<?xml version="1.0" encoding="UTF-8"?>
<svg id="Layer_2" data-name="Layer 2" xmlns="http://www.w3.org/2000/svg" viewBox="0 0 526.16 117.86">
  <defs>
    <style>
      .cls-1 {
        fill: #e20613;
      }

      .cls-1, .cls-2 {
        fill-rule: evenodd;
      }

      .cls-3 {
        fill: #333;
      }

      .cls-4 {
        fill: #1a1a1a;
      }
    </style>
  </defs>
  <g id="Layer_1-2" data-name="Layer 1">
    <g>
      <g>
        <g>
          <path class="cls-1" d="m24.46,0c13.51,0,24.46,10.95,24.46,24.46s-10.95,24.46-24.46,24.46S0,37.96,0,24.46,10.95,0,24.46,0h0Z"/>
          <path class="cls-2" d="m73.73,27.56h-14.29c-1.48,16.92-14.96,30.4-31.88,31.88.3,4.76,1.28,9.48,2.95,14.01,2.39,6.49,6.2,12.58,11.41,17.79,8.85,8.85,20.22,13.64,31.81,14.36v-14.29c-13.33-1.17-24.52-9.78-29.4-21.66,5.46-2.4,10.57-5.83,15.04-10.3,8.85-8.85,13.64-20.22,14.36-31.8h0Z"/>
        </g>
        <g>
          <path class="cls-4" d="m100.6,96.19h-5.97v-63.3h22.33c6.26.06,11.19,1.74,14.78,5.04,3.6,3.28,5.42,7.76,5.48,13.47-.03,4.53-1.23,8.36-3.6,11.49-2.37,3.13-5.69,5.26-9.96,6.4l15.35,26.89h-7.02l-14.56-25.92h-16.84v25.92Zm0-31.23h15.88c4.65-.03,8.23-1.2,10.75-3.51,2.51-2.31,3.79-5.6,3.82-9.87-.03-4.21-1.35-7.49-3.95-9.83-2.57-2.31-6.19-3.48-10.83-3.51h-15.66v26.71Z"/>
          <path class="cls-4" d="m159.55,96.93c-4.56-.06-8.2-1.29-10.92-3.68-2.75-2.43-4.15-5.66-4.21-9.69.03-3.92,1.45-7.02,4.26-9.3,2.78-2.25,6.81-3.57,12.11-3.95l14.21-.88v-3.95c-.03-3.3-1.02-5.88-2.98-7.72-1.96-1.84-4.72-2.78-8.29-2.81-3.36.03-6.08.8-8.16,2.33-2.05,1.55-3.33,3.71-3.86,6.49h-5.61c.38-4.15,2.12-7.5,5.22-10.05,3.13-2.54,7.31-3.85,12.55-3.9,5.26.06,9.39,1.42,12.37,4.08,2.98,2.66,4.5,6.35,4.56,11.05v31.23h-5.53v-8.69h-.13c-1.35,2.87-3.41,5.15-6.19,6.84-2.81,1.7-5.94,2.56-9.39,2.59Zm1.18-5c4.09-.09,7.47-1.33,10.13-3.73,2.66-2.4,4.04-5.45,4.12-9.17v-5.04l-13.51.92c-3.63.26-6.39,1.13-8.29,2.59-1.9,1.49-2.87,3.51-2.9,6.05.06,2.52,1.02,4.53,2.9,6.05,1.9,1.52,4.42,2.3,7.54,2.33Z"/>
          <path class="cls-4" d="m207.76,96.93c-5.85-.09-10.54-2.24-14.08-6.45-3.54-4.21-5.35-9.91-5.44-17.11.09-7.19,1.89-12.9,5.4-17.11,3.51-4.21,8.17-6.36,13.99-6.45,3.71.06,6.93,1.01,9.65,2.85s4.71,4.27,5.97,7.28h.13v-27.07h5.83v63.3h-5.53v-9.65h-.13c-1.32,3.13-3.35,5.63-6.1,7.5-2.75,1.87-5.98,2.84-9.69,2.9Zm1.01-41.98c-4.45.06-7.97,1.74-10.57,5.04-2.6,3.28-3.93,7.74-3.99,13.38.06,5.64,1.39,10.1,3.99,13.38,2.6,3.31,6.13,4.99,10.57,5.04,4.42-.09,7.94-1.78,10.57-5.09,2.66-3.27,4.02-7.72,4.08-13.33-.06-5.59-1.42-10.03-4.08-13.34-2.63-3.3-6.16-5-10.57-5.09Z"/>
          <path class="cls-4" d="m242.9,41.35c-1.08-.03-1.99-.41-2.72-1.14-.73-.7-1.11-1.61-1.14-2.72.03-1.08.41-1.99,1.14-2.72.73-.7,1.64-1.07,2.72-1.1,1.11.03,2.03.39,2.76,1.1.73.73,1.11,1.64,1.14,2.72-.03,1.11-.41,2.02-1.14,2.72-.73.73-1.65,1.11-2.76,1.14Zm-2.9,9.21h5.79v45.62h-5.79v-45.62Z"/>
          <path class="cls-4" d="m292.77,96.19h-5.48v-8.47h-.13c-1.23,2.84-3.14,5.07-5.75,6.71-2.6,1.64-5.73,2.47-9.39,2.5-5-.06-8.92-1.56-11.76-4.52-2.84-2.95-4.28-7.02-4.34-12.19v-29.65h5.83v28.64c.03,4.06,1.07,7.17,3.11,9.3,2.05,2.13,4.99,3.22,8.82,3.25,4.04-.06,7.24-1.34,9.61-3.86,2.4-2.51,3.63-5.94,3.68-10.26v-27.06h5.79v45.62Z"/>
          <path class="cls-4" d="m301.86,62.76c.09-3.83,1.62-6.93,4.61-9.3,2.95-2.37,6.89-3.58,11.8-3.64,4.74.06,8.6,1.3,11.58,3.73,2.98,2.46,4.65,5.72,5,9.78h-5.57c-.38-2.72-1.54-4.85-3.47-6.4-1.96-1.52-4.53-2.3-7.72-2.32-3.16.03-5.69.76-7.59,2.19-1.87,1.46-2.84,3.35-2.9,5.66-.03,1.84.67,3.38,2.11,4.61,1.4,1.2,3.63,2.16,6.67,2.9l6.76,1.62c4.5,1.08,7.73,2.57,9.69,4.47,1.96,1.9,2.91,4.46,2.85,7.68-.09,3.92-1.73,7.08-4.91,9.48-3.19,2.43-7.4,3.67-12.63,3.73-4.97-.06-9.04-1.3-12.19-3.73-3.16-2.46-4.96-5.72-5.4-9.78h5.79c.44,2.72,1.71,4.85,3.82,6.4,2.11,1.52,4.88,2.3,8.33,2.32,3.48-.03,6.23-.76,8.25-2.19,2.02-1.43,3.06-3.36,3.11-5.79.03-1.96-.6-3.52-1.89-4.69-1.32-1.17-3.48-2.12-6.49-2.85l-7.41-1.84c-4.12-1.02-7.18-2.53-9.17-4.52-2.02-1.99-3.03-4.49-3.03-7.5Z"/>
          <path class="cls-4" d="m402.18,96.19h-39.22v-63.3h39.22v7.11h-31.32v20.31h29.7v7.02h-29.7v21.76h31.32v7.11Z"/>
          <path class="cls-4" d="m420.47,96.19h-7.9v-63.3h23.73c6.17.06,11.05,1.77,14.65,5.13,3.6,3.36,5.44,7.94,5.53,13.73-.03,4.45-1.16,8.26-3.38,11.45-2.22,3.19-5.34,5.42-9.34,6.71l14.65,26.28h-9.26l-13.55-25.05h-15.13v25.05Zm0-32.02h15.13c4.09-.03,7.22-1.08,9.39-3.16,2.19-2.11,3.3-5.1,3.33-8.99-.03-3.83-1.18-6.8-3.47-8.9-2.28-2.11-5.48-3.17-9.61-3.2h-14.78v24.26Z"/>
          <path class="cls-4" d="m488.99,32.89c6.05.09,10.92,1.97,14.61,5.66,3.68,3.69,5.57,8.57,5.66,14.65-.12,6.11-2.02,11.01-5.7,14.69s-8.6,5.61-14.65,5.7h-14.61v22.59h-7.9v-63.3h22.59Zm-14.69,33.69h12.63c4.53-.03,8.03-1.21,10.48-3.55,2.46-2.31,3.7-5.58,3.73-9.83-.03-4.21-1.26-7.47-3.68-9.78-2.46-2.31-5.97-3.48-10.53-3.51h-12.63v26.67Z"/>
        </g>
      </g>
      <g>
        <path class="cls-3" d="m499.47,24.08v-14.32h-5.09v-1.81h12.19v1.81h-5.09v14.32h-2.01Z"/>
        <path class="cls-3" d="m522.72,24.08v-12.43h-.08l-5.14,12.32h-1.7l-5.14-12.32h-.08v12.43h-1.88V7.94h2.34l5.57,13.46h.09l5.57-13.46h2.34v16.13h-1.88Z"/>
      </g>
    </g>
  </g>
</svg>