<?xml version="1.0" encoding="UTF-8"?>
<svg id="Layer_1" data-name="Layer 1" xmlns="http://www.w3.org/2000/svg" viewBox="0 0 190 70">
  <defs>
    <style>
      .cls-1 {
        fill: #999;
      }

      .cls-2, .cls-3 {
        fill: #ccc;
      }

      .cls-3 {
        fill-rule: evenodd;
      }
    </style>
  </defs>
  <path id="Path_73510" data-name="Path 73510" class="cls-2" d="m16.39,13.21l-5.31,13.95-5.28-13.95H.5l8.44,21.29h3.73l8.71-21.29h-4.98Z"/>
  <rect id="Rectangle_15258" data-name="Rectangle 15258" class="cls-2" x="30.16" y="13.21" width="4.39" height="21.29"/>
  <path id="Path_73511" data-name="Path 73511" class="cls-3" d="m56.37,18.36c-.39-.49-.91-.87-1.5-1.07-.57-.22-1.18-.34-1.79-.35-.34,0-.69.04-1.02.12-.35.08-.68.21-.99.38-.3.16-.56.4-.76.68-.2.3-.3.66-.29,1.03-.03.58.23,1.14.7,1.48.54.38,1.14.67,1.76.87.71.24,1.47.48,2.29.72.81.24,1.58.58,2.29,1.03.72.45,1.32,1.06,1.76,1.78.51.91.75,1.95.7,2.99.02,1.07-.2,2.13-.64,3.11-.4.86-1,1.61-1.74,2.2-.75.6-1.61,1.04-2.54,1.3-2.23.63-4.59.55-6.78-.21-1.2-.46-2.29-1.15-3.21-2.05l3.24-3.68c.46.64,1.06,1.15,1.76,1.49.68.35,1.44.53,2.2.53.38,0,.76-.05,1.12-.14.36-.08.7-.22,1.02-.41.29-.17.54-.41.73-.69.19-.3.29-.64.28-1,.02-.59-.24-1.16-.71-1.52-.54-.41-1.15-.73-1.79-.95-.72-.26-1.5-.52-2.33-.78-.82-.25-1.6-.61-2.33-1.06-.72-.44-1.33-1.04-1.79-1.75-.51-.86-.76-1.86-.71-2.87-.02-1.04.2-2.08.66-3.02.42-.84,1.02-1.58,1.75-2.17.75-.59,1.61-1.04,2.52-1.31.95-.29,1.95-.44,2.94-.44,1.15,0,2.29.17,3.38.51,1.1.35,2.1.93,2.94,1.72l-3.12,3.53Z"/>
  <rect id="Rectangle_15259" data-name="Rectangle 15259" class="cls-2" x="70.13" y="13.14" width="4.55" height="21.37"/>
  <path id="Path_73512" data-name="Path 73512" class="cls-3" d="m106.44,19.17c-1.02-2.68-3.15-4.79-5.84-5.79-2.88-1.05-6.04-1.05-8.92,0-2.69,1-4.82,3.11-5.85,5.79-.57,1.48-.85,3.06-.83,4.65-.02,1.59.26,3.16.83,4.64,1.02,2.68,3.15,4.79,5.85,5.79,2.88,1.05,6.04,1.05,8.92,0,2.69-1,4.82-3.11,5.84-5.79.57-1.48.85-3.06.83-4.64.02-1.59-.26-3.17-.83-4.65m-4.34,7.41c-.28.8-.72,1.54-1.3,2.17-.57.62-1.26,1.11-2.03,1.44-1.69.68-3.59.68-5.28,0-.77-.33-1.46-.82-2.02-1.44-.57-.63-1.02-1.37-1.3-2.17-.31-.89-.46-1.82-.45-2.76,0-.94.14-1.86.45-2.75.28-.81.72-1.55,1.3-2.19.57-.62,1.26-1.1,2.02-1.44,1.69-.68,3.59-.68,5.28,0,.77.33,1.46.82,2.03,1.44.58.63,1.02,1.38,1.3,2.19.31.88.46,1.81.45,2.75.01.94-.14,1.87-.45,2.76"/>
  <path id="Path_73513" data-name="Path 73513" class="cls-3" d="m117.65,13.14h6.18l8.78,14.85h.06v-14.85h4.55v21.37h-5.95l-9.01-15.21h-.06v15.21h-4.55V13.14Z"/>
  <path id="Path_73514" data-name="Path 73514" class="cls-3" d="m148.87,13.14h14.02v4.35h-9.48v3.98h8.95v4.35h-8.95v4.35h10v4.35h-14.55V13.14Z"/>
  <path id="Path_73515" data-name="Path 73515" class="cls-3" d="m178.35,17.3h-5.89v-4.16h16.33v4.16h-5.89v17.2h-4.55v-17.2Z"/>
  <rect id="Rectangle_15260" data-name="Rectangle 15260" class="cls-1" x="46.3" y="44.71" width="1.5" height="9.26"/>
  <path id="Path_73516" data-name="Path 73516" class="cls-1" d="m55.72,47.44c.55.65.82,1.48.77,2.32v4.21h-1.5v-4.05c.03-.55-.15-1.09-.5-1.5-.36-.36-.86-.56-1.37-.53-.54-.02-1.06.18-1.44.57-.39.47-.58,1.07-.54,1.67v3.84h-1.5v-7.23h1.51v1.59c.17-.52.52-.96.98-1.26.47-.3,1.02-.46,1.58-.45.76-.03,1.5.26,2.03.81"/>
  <path id="Path_73517" data-name="Path 73517" class="cls-1" d="m64.34,47.44c.55.65.82,1.48.77,2.32v4.21h-1.5v-4.05c.03-.55-.15-1.09-.5-1.5-.36-.36-.86-.56-1.37-.53-.54-.02-1.06.18-1.44.57-.39.47-.58,1.07-.54,1.67v3.84h-1.5v-7.23h1.5v1.59c.17-.52.52-.96.98-1.26.47-.3,1.02-.46,1.58-.45.76-.03,1.5.26,2.03.81"/>
  <path id="Path_73518" data-name="Path 73518" class="cls-1" d="m72.08,47.1c.56.29,1.01.74,1.32,1.29.63,1.24.63,2.71,0,3.95-.3.55-.76.99-1.32,1.29-1.19.59-2.6.59-3.79,0-.56-.29-1.01-.74-1.32-1.29-.64-1.24-.64-2.71,0-3.94.31-.55.77-.99,1.32-1.29,1.19-.59,2.6-.59,3.79,0m-2.97,1.12c-.34.19-.61.47-.79.81-.4.85-.4,1.82,0,2.67.18.34.45.62.79.8.67.35,1.47.35,2.14,0,.33-.18.61-.46.79-.8.4-.85.4-1.82,0-2.67-.18-.34-.45-.62-.79-.81-.67-.35-1.47-.35-2.14,0"/>
  <path id="Path_73519" data-name="Path 73519" class="cls-1" d="m78.31,52.42l2.06-5.68h1.61l-2.77,7.23h-1.82l-2.77-7.23h1.61l2.09,5.68Z"/>
  <path id="Path_73520" data-name="Path 73520" class="cls-1" d="m87.7,47.14c.46.31.8.76.99,1.28v-1.68h1.5v7.23h-1.5v-1.68c-.19.52-.53.97-.99,1.29-.5.33-1.09.5-1.69.48-.6.01-1.18-.14-1.7-.45-.51-.31-.91-.75-1.17-1.29-.56-1.26-.56-2.69,0-3.95.26-.53.66-.98,1.17-1.29.51-.3,1.1-.46,1.7-.45.6-.02,1.19.15,1.69.48m-2.83,1.46c-.8,1.03-.8,2.47,0,3.5.42.43,1,.66,1.6.64.4,0,.79-.1,1.13-.3.34-.2.61-.49.79-.83.39-.79.39-1.72,0-2.51-.18-.35-.45-.64-.79-.84-.34-.2-.74-.3-1.13-.29-.6-.03-1.18.2-1.6.64"/>
  <path id="Path_73521" data-name="Path 73521" class="cls-1" d="m95.65,52.67v1.3h-.92c-.64.05-1.27-.15-1.76-.56-.4-.37-.6-.99-.6-1.86v-3.54h-1.04v-1.27h1.04v-1.8h1.52v1.8h1.76v1.27h-1.76v3.57c-.03.3.05.61.23.85.23.18.52.27.81.24h.73Z"/>
  <path id="Path_73522" data-name="Path 73522" class="cls-1" d="m97.12,44.02c.19-.17.44-.26.7-.25.26-.01.51.08.71.25.18.16.28.39.27.63,0,.24-.09.46-.27.62-.2.16-.45.25-.71.24-.25.01-.5-.07-.7-.24-.18-.16-.27-.38-.26-.62,0-.24.09-.47.26-.63m1.45,9.95h-1.5v-7.23h1.5v7.23Z"/>
  <path id="Path_73523" data-name="Path 73523" class="cls-1" d="m105.62,47.1c.56.29,1.01.74,1.32,1.29.63,1.24.63,2.71,0,3.95-.3.55-.76.99-1.32,1.29-.59.3-1.24.46-1.9.45-.66.01-1.31-.14-1.89-.45-.56-.29-1.01-.74-1.32-1.29-.64-1.24-.64-2.71,0-3.94.31-.55.77-.99,1.32-1.29.58-.3,1.24-.46,1.89-.45.66-.01,1.31.14,1.9.45m-2.97,1.12c-.34.19-.61.47-.79.81-.4.85-.4,1.82,0,2.67.18.34.45.62.79.8.67.35,1.47.35,2.14,0,.33-.18.61-.46.79-.8.4-.85.4-1.82,0-2.67-.18-.34-.45-.62-.79-.81-.67-.35-1.47-.35-2.14,0"/>
  <path id="Path_73524" data-name="Path 73524" class="cls-1" d="m114.96,47.44c.55.65.82,1.48.77,2.32v4.21h-1.5v-4.05c.03-.55-.15-1.09-.5-1.5-.36-.36-.86-.56-1.37-.53-.54-.02-1.06.18-1.44.57-.39.47-.58,1.07-.54,1.67v3.84h-1.5v-7.23h1.5v1.59c.17-.52.52-.96.98-1.26.47-.3,1.02-.46,1.58-.45.76-.03,1.5.26,2.03.81"/>
  <rect id="Rectangle_15261" data-name="Rectangle 15261" class="cls-1" x="116.96" y="52.32" width="1.7" height="1.65"/>
  <path id="Path_73525" data-name="Path 73525" class="cls-2" d="m128.87,52.77c-.24.4-.58.73-1,.94-.51.25-1.08.37-1.65.35-.58,0-1.17-.1-1.7-.33-.47-.2-.89-.52-1.2-.94-.3-.41-.48-.89-.51-1.39h1.61c.04.4.23.77.52,1.04.33.3.77.45,1.22.43.39.02.77-.11,1.06-.37.25-.25.39-.59.38-.94.01-.3-.09-.59-.28-.82-.19-.22-.42-.39-.69-.5-.27-.12-.65-.26-1.12-.42-.49-.15-.96-.33-1.42-.55-.37-.19-.69-.46-.93-.8-.27-.41-.41-.89-.38-1.38,0-.46.12-.92.37-1.31.26-.39.63-.69,1.06-.87.5-.21,1.04-.32,1.58-.31.81-.04,1.61.2,2.26.68.55.44.9,1.08.96,1.78h-1.62c-.12-.77-.82-1.33-1.6-1.27-.37-.02-.73.1-1.02.32-.26.23-.4.57-.38.92-.01.28.08.56.26.78.18.21.41.38.67.49.27.12.64.26,1.1.41.5.15.98.33,1.44.56.38.19.7.47.95.82.28.42.41.91.39,1.42,0,.44-.11.88-.33,1.27"/>
  <path id="Path_73526" data-name="Path 73526" class="cls-2" d="m130.75,44.02c.19-.17.44-.26.7-.25.26-.01.51.08.71.25.18.16.28.39.27.63,0,.24-.09.46-.27.62-.2.16-.45.25-.71.24-.25.01-.5-.07-.7-.24-.18-.16-.27-.38-.26-.62,0-.24.09-.47.26-.63m1.45,9.95h-1.5v-7.23h1.5v7.23Z"/>
  <path id="Path_73527" data-name="Path 73527" class="cls-2" d="m145.18,47.44c.55.64.83,1.48.77,2.32v4.21h-1.5v-4.05c.03-.53-.14-1.05-.47-1.46-.34-.35-.82-.54-1.31-.52-.53-.03-1.04.18-1.4.56-.38.46-.56,1.04-.52,1.63v3.84h-1.5v-4.05c.03-.53-.14-1.05-.48-1.46-.34-.35-.82-.54-1.31-.52-.53-.02-1.04.18-1.4.56-.38.46-.56,1.04-.52,1.63v3.84h-1.51v-7.23h1.5v1.51c.16-.5.49-.92.92-1.21.45-.29.98-.43,1.52-.42.56-.01,1.11.14,1.58.45.45.31.8.76.97,1.29.19-.52.55-.97,1.02-1.27.47-.31,1.02-.47,1.58-.46.77-.04,1.52.26,2.07.81"/>
  <path id="Path_73528" data-name="Path 73528" class="cls-2" d="m153.57,47.1c.51.31.91.75,1.17,1.28.56,1.26.56,2.69,0,3.95-.26.53-.66.98-1.17,1.29-.51.3-1.1.46-1.7.45-.6.02-1.19-.15-1.69-.48-.46-.31-.8-.76-.98-1.29v5.11h-1.5v-10.66h1.5v1.68c.18-.52.52-.97.98-1.28.5-.33,1.09-.5,1.69-.48.6-.01,1.18.14,1.7.45m-3.29,1.16c-.34.2-.61.49-.79.84-.39.79-.39,1.72,0,2.51.18.35.46.63.79.83.34.2.74.3,1.13.3.6.03,1.19-.2,1.61-.64.81-1.02.81-2.47,0-3.49-.42-.43-1.01-.67-1.61-.64-.4,0-.79.1-1.13.29"/>
  <rect id="Rectangle_15262" data-name="Rectangle 15262" class="cls-2" x="156.62" y="44.27" width="1.5" height="9.7"/>
  <path id="Path_73529" data-name="Path 73529" class="cls-2" d="m159.99,44.02c.19-.17.44-.26.7-.25.26-.01.51.08.71.25.18.16.28.39.27.63,0,.24-.09.46-.27.62-.2.16-.45.25-.71.24-.25.01-.5-.07-.7-.24-.18-.16-.27-.38-.26-.62,0-.24.09-.47.26-.63m1.45,9.95h-1.5v-7.23h1.5v7.23Z"/>
  <path id="Path_73530" data-name="Path 73530" class="cls-2" d="m165.42,45.53c-.27.3-.4.7-.36,1.1v.12h1.6v1.28h-1.6v5.94h-1.52v-5.94h-.99v-1.28h.99v-.24c-.06-.75.23-1.48.78-1.99.52-.44,1.3-.64,2.34-.58v1.31c-.43-.07-.88.03-1.24.28"/>
  <path id="Path_73531" data-name="Path 73531" class="cls-2" d="m167.93,44.02c.19-.17.44-.26.7-.25.26-.01.51.08.71.25.18.16.28.39.27.63,0,.24-.09.46-.27.62-.2.16-.45.25-.71.24-.25.01-.5-.07-.7-.24-.18-.16-.27-.38-.26-.62,0-.24.09-.47.26-.63m1.45,9.95h-1.5v-7.23h1.5v7.23Z"/>
  <path id="Path_73532" data-name="Path 73532" class="cls-2" d="m177.9,50.65h-5.59c-.03.61.2,1.21.62,1.65.39.36.91.55,1.44.54.45.01.9-.12,1.27-.38.34-.24.57-.6.64-1.01h1.61c-.09.49-.3.96-.61,1.35-.32.4-.73.72-1.2.92-.52.23-1.08.34-1.65.33-.65.01-1.29-.14-1.87-.45-.54-.3-.98-.74-1.27-1.29-.62-1.24-.62-2.7,0-3.95.29-.54.73-.99,1.27-1.29,1.17-.59,2.56-.59,3.73,0,.52.28.94.7,1.23,1.21.38.72.51,1.55.38,2.35m-1.71-1.87c-.17-.31-.43-.55-.74-.71-.32-.15-.67-.23-1.02-.23-.54-.02-1.07.18-1.48.54-.42.42-.66.99-.65,1.59h4.13c.03-.41-.05-.82-.24-1.19"/>
  <path id="Path_73533" data-name="Path 73533" class="cls-2" d="m184.01,47.14c.46.31.8.76.98,1.28v-4.16h1.52v9.7h-1.52v-1.68c-.18.52-.52.97-.98,1.29-.5.33-1.09.5-1.69.48-.6.01-1.18-.14-1.7-.45-.51-.31-.91-.75-1.17-1.29-.56-1.26-.56-2.69,0-3.95.26-.53.66-.98,1.17-1.29.51-.3,1.1-.46,1.7-.45.6-.02,1.19.15,1.69.48m-2.83,1.46c-.8,1.03-.8,2.47,0,3.5.42.43,1,.66,1.6.64.4,0,.79-.1,1.13-.3.34-.2.61-.49.79-.83.39-.79.39-1.72,0-2.51-.18-.35-.45-.64-.79-.84-.34-.2-.74-.3-1.13-.29-.6-.03-1.18.2-1.6.64"/>
  <rect id="Rectangle_15263" data-name="Rectangle 15263" class="cls-2" x="187.8" y="52.32" width="1.7" height="1.65"/>
</svg>