<?xml version="1.0" encoding="UTF-8"?>
<svg id="Layer_1" data-name="Layer 1" xmlns="http://www.w3.org/2000/svg" viewBox="0 0 251 70">
  <defs>
    <style>
      .cls-1 {
        isolation: isolate;
      }

      .cls-2 {
        fill: #ccc;
      }

      .cls-3 {
        fill: #b3b3b3;
      }
    </style>
  </defs>
  <g id="e8122ee4-da74-4501-b003-a0c55e6aea63">
    <g id="ad962cea-54fb-40bc-b910-08b5097c8aec">
      <path class="cls-3" d="m21.75,38.64v-5.2h11.77c.7,0,.78.06.78.78,0,2.58-.01,5.16-.04,7.73v1.12c3.31-1.06,6.63-1.22,9.98-1.38-2,.17-3.99.54-5.92,1.12-1.32.36-2.57.99-3.63,1.87-.3.24-.45.61-.44,1,.02,3.31.04,6.62.04,9.92v1H15.34c-.48.02-.94-.19-1.24-.56-2.47-2.74-4.58-5.81-6.26-9.1-1.62-3.1-2.71-6.47-3.23-9.93-.72-5.02-.13-9.87,2.33-14.39,1.49-2.76,3.68-5.08,6.32-6.75,2.89-1.81,6.13-2.98,9.51-3.44,3.13-.44,6.29-.48,9.42-.12,6.41.68,12.48,2.54,18.39,5.04,5.05,2.14,9.94,4.64,14.63,7.49.1.05.17.12.21.21-1.11-.56-2.21-1.12-3.32-1.67-5.19-2.63-10.63-4.7-16.26-6.18-3.64-.98-7.39-1.52-11.17-1.59-3.58-.04-7.06.44-10.32,2.05-4.27,2.12-6.93,5.49-7.65,10.25-.5,3.26,0,6.43.95,9.56,1.11,3.39,2.68,6.6,4.71,9.53,1.65,2.45,3.48,4.76,5.49,6.92.14.17.27.35.41.51l.14-.1v-15.08c-.01-.5-.13-.62-.64-.62-1.81.04-3.63,0-5.43,0h-.57Z"/>
      <path class="cls-2" d="m55.18,33.76v22.76h-5.85v-2.18q0-.87-.87-1.04c-3.66-.82-7.29-1.74-10.7-3.35-.86-.42-1.66-.93-2.37-1.55-.73-.6-.73-1.34.06-1.9.85-.63,1.78-1.13,2.76-1.53,1.72-.64,3.48-1.11,5.23-1.66l.05.14c-.78.26-1.58.5-2.35.79-.78.3-1.43.6-2.14.93-.19.1-.37.19-.55.31-1.24.84-1.22,1.72.14,2.33.93.45,1.93.78,2.96.95,2.31.33,4.64.54,6.97.75.79.07.8,0,.8-.75v-14.34c0-.55.17-.67.68-.64,1.53.04,3.05,0,4.59,0h.6Z"/>
    </g>
  </g>
  <g class="cls-1">
    <path class="cls-3" d="m77.13,40.06c-1.24-.75-2.2-1.82-2.88-3.2-.68-1.38-1.02-3.03-1.02-4.93h0c0-1.88.34-3.5,1.01-4.85.67-1.35,1.63-2.4,2.87-3.14,1.24-.74,2.7-1.11,4.38-1.11,1.38,0,2.59.24,3.62.73,1.03.49,1.88,1.16,2.54,2,.66.85,1.11,1.81,1.35,2.88l.05.21h-2.84l-.05-.14c-.37-1.03-.95-1.82-1.74-2.39s-1.77-.85-2.92-.85-2.1.26-2.91.79-1.44,1.28-1.88,2.27c-.44.99-.65,2.18-.65,3.57h0c0,1.42.22,2.64.67,3.66.45,1.02,1.08,1.81,1.9,2.35.82.55,1.79.82,2.92.82.96,0,1.81-.19,2.54-.57.73-.38,1.31-.91,1.72-1.58.41-.68.63-1.46.63-2.36v-.3h-4.66v-2.25h7.39v1.82c0,1.6-.3,2.98-.91,4.13-.61,1.15-1.48,2.03-2.62,2.64s-2.52.92-4.13.92c-1.69,0-3.16-.38-4.4-1.13Z"/>
    <path class="cls-3" d="m93.9,40.34c-.92-.55-1.64-1.32-2.15-2.33s-.76-2.2-.76-3.59v-.02c0-1.38.26-2.57.77-3.57.51-1,1.23-1.77,2.16-2.32.92-.54,2-.81,3.22-.81s2.31.27,3.23.81,1.64,1.31,2.16,2.31c.51,1,.77,2.2.77,3.58v.02c0,1.4-.26,2.59-.77,3.6-.51,1-1.23,1.78-2.15,2.32s-2,.82-3.23.82-2.32-.27-3.25-.82Zm5.06-1.95c.51-.35.9-.86,1.18-1.53.28-.67.42-1.48.42-2.43v-.02c0-.94-.14-1.75-.42-2.42-.28-.67-.68-1.18-1.19-1.53-.52-.35-1.12-.52-1.81-.52s-1.28.18-1.79.53-.91.86-1.2,1.53c-.29.67-.43,1.47-.43,2.41v.02c0,.95.14,1.76.42,2.43.28.67.68,1.18,1.2,1.53.52.35,1.12.53,1.82.53s1.29-.18,1.8-.53Z"/>
    <path class="cls-3" d="m107.32,40.33c-.81-.55-1.44-1.33-1.88-2.33-.44-1.01-.67-2.2-.67-3.58h0c0-1.39.22-2.58.67-3.58s1.08-1.78,1.88-2.32c.81-.55,1.76-.82,2.84-.82.91,0,1.72.22,2.43.65.71.44,1.26,1.03,1.66,1.8h.05v-7.02h2.69v17.77h-2.69v-2.19h-.05c-.39.75-.93,1.35-1.63,1.79-.7.44-1.51.66-2.44.66-1.1,0-2.06-.28-2.87-.83Zm5.35-2.03c.51-.37.92-.88,1.21-1.55.29-.67.44-1.44.44-2.34h0c0-.91-.15-1.69-.44-2.35-.3-.66-.7-1.17-1.21-1.54s-1.1-.55-1.77-.55-1.3.18-1.81.54c-.51.36-.9.87-1.18,1.53-.28.66-.41,1.45-.41,2.36h0c0,.92.14,1.71.41,2.38.27.67.67,1.18,1.18,1.53.51.35,1.11.53,1.81.53s1.27-.18,1.78-.55Z"/>
    <path class="cls-3" d="m121.24,40.64c-.65-.33-1.15-.79-1.52-1.38-.36-.59-.54-1.27-.54-2.04v-.02c0-1.13.42-2.03,1.26-2.69.84-.66,2.03-1.04,3.55-1.13l4.9-.3v1.87l-4.54.28c-.8.05-1.41.24-1.84.57-.43.33-.65.77-.65,1.32v.03c0,.57.22,1.01.65,1.34.43.33,1,.49,1.72.49.62,0,1.18-.13,1.68-.38.5-.25.89-.61,1.18-1.05.29-.45.43-.95.43-1.51v-3.86c0-.71-.22-1.27-.67-1.68-.44-.41-1.08-.61-1.91-.61-.76,0-1.38.16-1.84.49s-.75.75-.87,1.27l-.02.11h-2.51v-.14c.08-.75.33-1.42.76-2.01.44-.6,1.04-1.07,1.81-1.41.77-.34,1.69-.52,2.75-.52s1.97.18,2.75.53c.77.35,1.37.85,1.8,1.49.43.64.64,1.39.64,2.25v8.93h-2.69v-2.04h-.05c-.25.47-.58.87-.98,1.21-.4.34-.86.6-1.36.79-.5.18-1.04.28-1.62.28-.86,0-1.62-.16-2.27-.49Z"/>
    <path class="cls-3" d="m131.74,27.94h2.67l2.35,10.2h.06l2.69-10.2h2.57l2.71,10.2h.06l2.35-10.2h2.65l-3.55,12.96h-2.78l-2.71-9.71h-.06l-2.7,9.71h-2.77l-3.55-12.96Z"/>
    <path class="cls-3" d="m152.71,40.64c-.65-.33-1.15-.79-1.52-1.38-.36-.59-.54-1.27-.54-2.04v-.02c0-1.13.42-2.03,1.26-2.69.84-.66,2.03-1.04,3.55-1.13l4.9-.3v1.87l-4.54.28c-.8.05-1.41.24-1.84.57-.43.33-.65.77-.65,1.32v.03c0,.57.22,1.01.65,1.34.43.33,1,.49,1.72.49.62,0,1.18-.13,1.68-.38.5-.25.89-.61,1.18-1.05.29-.45.43-.95.43-1.51v-3.86c0-.71-.22-1.27-.67-1.68-.44-.41-1.08-.61-1.91-.61-.76,0-1.38.16-1.84.49-.46.33-.75.75-.87,1.27l-.03.11h-2.51v-.14c.08-.75.33-1.42.76-2.01.43-.6,1.04-1.07,1.81-1.41.77-.34,1.69-.52,2.75-.52s1.97.18,2.75.53,1.37.85,1.8,1.49c.43.64.64,1.39.64,2.25v8.93h-2.69v-2.04h-.05c-.26.47-.58.87-.99,1.21-.4.34-.86.6-1.36.79-.5.18-1.04.28-1.62.28-.86,0-1.62-.16-2.27-.49Z"/>
    <path class="cls-3" d="m164.23,27.94h2.68v2.22h.05c.21-.76.57-1.36,1.1-1.8.53-.44,1.16-.66,1.9-.66.2,0,.38.01.54.03s.29.04.39.07v2.48c-.11-.04-.27-.08-.48-.1-.21-.03-.45-.04-.71-.04-.57,0-1.06.12-1.48.36-.42.24-.74.59-.96,1.05s-.33,1-.33,1.64v7.72h-2.68v-12.96Z"/>
    <path class="cls-3" d="m172.88,25.49c-.3-.3-.46-.66-.46-1.08s.15-.8.46-1.1c.3-.3.67-.44,1.1-.44s.8.15,1.1.44.45.66.45,1.1-.15.78-.45,1.08-.67.45-1.1.45-.79-.15-1.1-.45Zm-.25,2.44h2.69v12.96h-2.69v-12.96Z"/>
    <path class="cls-2" d="m183.47,23.12h2.76v7.51h9.11v-7.51h2.77v17.77h-2.77v-7.87h-9.11v7.87h-2.76v-17.77Z"/>
    <path class="cls-2" d="m202.28,40.64c-.65-.33-1.15-.79-1.51-1.38-.36-.59-.54-1.27-.54-2.04v-.02c0-1.13.42-2.03,1.26-2.69.84-.66,2.03-1.04,3.55-1.13l4.9-.3v1.87l-4.54.28c-.8.05-1.41.24-1.84.57-.43.33-.65.77-.65,1.32v.03c0,.57.22,1.01.65,1.34.43.33,1,.49,1.72.49.62,0,1.18-.13,1.68-.38s.89-.61,1.18-1.05c.29-.45.43-.95.43-1.51v-3.86c0-.71-.22-1.27-.67-1.68-.44-.41-1.08-.61-1.91-.61-.76,0-1.38.16-1.84.49s-.75.75-.87,1.27l-.03.11h-2.51v-.14c.08-.75.33-1.42.76-2.01.44-.6,1.04-1.07,1.81-1.41.77-.34,1.69-.52,2.75-.52s1.97.18,2.75.53c.77.35,1.37.85,1.8,1.49.43.64.64,1.39.64,2.25v8.93h-2.69v-2.04h-.05c-.25.47-.58.87-.99,1.21-.4.34-.86.6-1.36.79-.5.18-1.04.28-1.62.28-.86,0-1.62-.16-2.27-.49Z"/>
    <path class="cls-2" d="m213.81,27.94h2.68v2.22h.05c.21-.76.57-1.36,1.1-1.8.53-.44,1.16-.66,1.9-.66.2,0,.38.01.54.03s.29.04.39.07v2.48c-.11-.04-.27-.08-.48-.1-.21-.03-.45-.04-.71-.04-.57,0-1.06.12-1.48.36-.42.24-.74.59-.96,1.05s-.33,1-.33,1.64v7.72h-2.68v-12.96Z"/>
    <path class="cls-2" d="m224.18,40.66c-.78-.33-1.39-.8-1.83-1.39-.44-.6-.71-1.29-.8-2.08v-.11s2.62,0,2.62,0l.03.12c.13.59.42,1.05.87,1.39s1.08.5,1.9.5c.54,0,1-.07,1.38-.2.38-.14.67-.33.87-.58.21-.25.31-.56.31-.91h0c0-.43-.14-.77-.41-1.02-.27-.25-.75-.47-1.45-.64l-2.12-.48c-1.23-.28-2.15-.72-2.77-1.32-.61-.6-.92-1.37-.92-2.31h0c0-.79.21-1.48.63-2.06s1.01-1.04,1.76-1.37c.75-.32,1.63-.49,2.62-.49s1.9.17,2.64.52,1.32.81,1.73,1.41c.41.6.64,1.26.68,1.99v.15h-2.5v-.09c-.09-.57-.34-1.03-.78-1.39-.44-.36-1.03-.54-1.77-.54-.48,0-.89.07-1.24.21-.35.14-.62.34-.81.6-.19.26-.28.56-.28.91h0c0,.41.15.74.44,1.02.29.28.79.5,1.48.65l2.12.49c1.32.3,2.26.73,2.81,1.29.55.55.83,1.3.83,2.24h0c0,.8-.23,1.49-.68,2.09-.45.6-1.07,1.07-1.87,1.4-.79.34-1.7.5-2.72.5-1.08,0-2.01-.17-2.79-.5Z"/>
    <path class="cls-2" d="m234.4,23.12h2.67v6.95h.06c.34-.76.85-1.34,1.53-1.76.69-.41,1.51-.62,2.48-.62s1.73.22,2.42.65,1.22,1.04,1.6,1.82c.38.78.57,1.69.57,2.73v8.01h-2.67v-7.5c0-1.08-.26-1.91-.78-2.51-.52-.6-1.24-.9-2.18-.9-.61,0-1.14.14-1.59.43-.46.29-.81.69-1.07,1.19s-.38,1.1-.38,1.79v7.5h-2.67v-17.77Z"/>
  </g>
  <g class="cls-1">
    <path class="cls-3" d="m79.92,55.75c-.94-.01-1.68-.33-2.21-.94-.54-.61-.81-1.46-.82-2.54.01-1.07.29-1.92.83-2.53.54-.62,1.28-.94,2.21-.95.74,0,1.37.21,1.87.61.5.4.81.94.93,1.62h-.85c-.12-.45-.35-.8-.69-1.06-.35-.26-.77-.4-1.26-.4-.67,0-1.19.26-1.58.74-.39.48-.58,1.13-.59,1.97,0,.84.2,1.5.59,1.98.39.48.92.72,1.59.73.5,0,.92-.12,1.25-.34.34-.22.57-.54.69-.96h.85c-.16.67-.48,1.18-.96,1.54-.48.35-1.09.53-1.84.54Z"/>
    <path class="cls-3" d="m87.04,48.78c.97.01,1.72.33,2.27.94.55.62.83,1.47.84,2.55,0,1.08-.29,1.93-.84,2.54-.55.61-1.31.93-2.27.94-.97-.01-1.72-.33-2.27-.94-.55-.61-.83-1.46-.84-2.54,0-1.08.29-1.93.84-2.55.55-.61,1.31-.93,2.27-.94Zm0,.78c-.7,0-1.24.25-1.64.73-.4.48-.6,1.14-.6,1.98,0,.84.21,1.5.6,1.98.4.48.94.72,1.64.73.7,0,1.24-.25,1.64-.73.4-.48.6-1.14.6-1.98,0-.84-.21-1.5-.6-1.98-.4-.48-.94-.72-1.64-.73Z"/>
    <path class="cls-3" d="m91.67,55.63v-6.74h.82l3.69,5.29h.04v-5.29h.83v6.74h-.82l-3.69-5.27h-.04v5.27h-.83Z"/>
    <path class="cls-3" d="m99.36,53.78c.05.37.23.66.54.88.31.21.71.33,1.2.33.46,0,.84-.11,1.13-.32.29-.21.43-.49.44-.82,0-.28-.1-.52-.31-.71-.21-.18-.54-.33-.99-.45l-.86-.22c-.62-.16-1.07-.38-1.36-.67-.29-.29-.43-.66-.43-1.11.01-.57.23-1.03.67-1.37.43-.35,1-.52,1.71-.53.68,0,1.24.19,1.66.54.43.35.66.81.69,1.39h-.84c-.04-.36-.2-.65-.47-.86-.27-.21-.63-.31-1.07-.31-.45,0-.8.11-1.07.31-.27.2-.4.47-.41.8,0,.25.1.46.3.63.2.17.53.31.99.42l.71.19c.69.17,1.19.4,1.5.7s.46.68.46,1.16c0,.62-.24,1.11-.68,1.46-.45.35-1.06.54-1.85.54-.73,0-1.31-.19-1.76-.54-.45-.35-.69-.83-.74-1.43h.85Z"/>
    <path class="cls-3" d="m106.7,55.63v-5.98h-2.13v-.76h5.09v.76h-2.13v5.98h-.84Z"/>
    <path class="cls-3" d="m111.87,55.63h-.84v-6.74h2.53c.66,0,1.18.19,1.56.55.38.36.58.85.59,1.46,0,.47-.12.88-.36,1.22-.24.34-.57.58-1,.71l1.56,2.8h-.99l-1.44-2.67h-1.61v2.67Zm0-3.41h1.61c.44,0,.77-.12,1-.34.23-.22.35-.54.35-.96,0-.41-.13-.72-.37-.95-.24-.22-.58-.34-1.02-.34h-1.57v2.58Z"/>
    <path class="cls-3" d="m118.09,53.21c0,.52.16.94.48,1.26.31.32.77.49,1.35.5.59,0,1.04-.17,1.35-.5.32-.32.48-.74.48-1.26v-4.32h.84v4.38c0,.73-.24,1.32-.71,1.78-.47.46-1.12.69-1.97.7-.84-.01-1.5-.25-1.97-.7-.47-.45-.7-1.04-.71-1.78v-4.38h.84v4.32Z"/>
    <path class="cls-3" d="m127.16,55.75c-.94-.01-1.68-.33-2.21-.94-.54-.61-.81-1.46-.82-2.54.01-1.07.29-1.92.83-2.53.54-.62,1.28-.94,2.21-.95.74,0,1.37.21,1.87.61.5.4.81.94.93,1.62h-.85c-.12-.45-.35-.8-.69-1.06-.35-.26-.77-.4-1.26-.4-.67,0-1.19.26-1.58.74-.39.48-.58,1.13-.59,1.97,0,.84.2,1.5.59,1.98.39.48.92.72,1.59.73.5,0,.92-.12,1.25-.34.34-.22.57-.54.69-.96h.85c-.16.67-.48,1.18-.96,1.54-.48.35-1.09.53-1.84.54Z"/>
    <path class="cls-3" d="m133.13,55.63v-5.98h-2.13v-.76h5.09v.76h-2.13v5.98h-.84Z"/>
    <path class="cls-3" d="m137.47,55.63v-6.74h.84v6.74h-.84Z"/>
    <path class="cls-3" d="m142.94,48.78c.97.01,1.72.33,2.27.94.55.62.83,1.47.84,2.55,0,1.08-.29,1.93-.84,2.54-.55.61-1.31.93-2.27.94-.97-.01-1.72-.33-2.27-.94-.55-.61-.83-1.46-.84-2.54,0-1.08.29-1.93.84-2.55.55-.61,1.31-.93,2.27-.94Zm0,.78c-.7,0-1.24.25-1.64.73-.4.48-.6,1.14-.6,1.98,0,.84.21,1.5.6,1.98.4.48.94.72,1.64.73.7,0,1.24-.25,1.64-.73.39-.48.6-1.14.6-1.98,0-.84-.21-1.5-.6-1.98-.4-.48-.94-.72-1.64-.73Z"/>
    <path class="cls-3" d="m147.57,55.63v-6.74h.82l3.69,5.29h.04v-5.29h.83v6.74h-.82l-3.69-5.27h-.04v5.27h-.83Z"/>
    <path class="cls-3" d="m155.26,53.78c.05.37.23.66.54.88.31.21.71.33,1.2.33.46,0,.84-.11,1.13-.32.29-.21.43-.49.44-.82,0-.28-.1-.52-.31-.71-.21-.18-.54-.33-.99-.45l-.86-.22c-.62-.16-1.07-.38-1.36-.67-.29-.29-.43-.66-.43-1.11.01-.57.24-1.03.67-1.37.43-.35,1-.52,1.71-.53.68,0,1.24.19,1.66.54s.66.81.69,1.39h-.84c-.04-.36-.2-.65-.47-.86-.27-.21-.63-.31-1.07-.31-.45,0-.8.11-1.07.31-.27.2-.4.47-.41.8,0,.25.1.46.3.63.2.17.53.31.99.42l.71.19c.69.17,1.19.4,1.5.7s.46.68.46,1.16c0,.62-.23,1.11-.68,1.46-.45.35-1.06.54-1.85.54-.73,0-1.31-.19-1.76-.54-.45-.35-.69-.83-.74-1.43h.85Z"/>
    <path class="cls-3" d="m165.74,48.89c.64,0,1.16.21,1.56.6.39.39.59.91.6,1.56-.01.65-.21,1.17-.61,1.56s-.92.6-1.56.61h-1.56v2.41h-.84v-6.74h2.41Zm-1.57,3.59h1.35c.48,0,.85-.13,1.12-.38.26-.25.39-.59.4-1.05,0-.45-.13-.8-.39-1.04-.26-.25-.64-.37-1.12-.37h-1.35v2.84Z"/>
    <path class="cls-3" d="m170.18,55.63h-.84v-6.74h2.53c.66,0,1.18.19,1.56.55.38.36.58.85.59,1.46,0,.47-.12.88-.36,1.22-.24.34-.57.58-1,.71l1.56,2.8h-.99l-1.44-2.67h-1.61v2.67Zm0-3.41h1.61c.44,0,.77-.12,1-.34.23-.22.35-.54.36-.96,0-.41-.13-.72-.37-.95-.24-.22-.58-.34-1.02-.34h-1.57v2.58Z"/>
    <path class="cls-3" d="m175.55,55.63v-6.74h.84v6.74h-.84Z"/>
    <path class="cls-3" d="m180.13,55.63l-2.49-6.74h.88l2,5.72h.03l2-5.72h.88l-2.49,6.74h-.83Z"/>
    <path class="cls-3" d="m188.4,53.71h-2.68l-.68,1.93h-.88l2.49-6.74h.83l2.49,6.74h-.88l-.68-1.93Zm-2.43-.71h2.19l-1.08-3.07h-.03l-1.08,3.07Z"/>
    <path class="cls-3" d="m192.92,55.63v-5.98h-2.13v-.76h5.09v.76h-2.13v5.98h-.84Z"/>
    <path class="cls-3" d="m201.43,55.63h-4.18v-6.74h4.18v.76h-3.34v2.16h3.16v.75h-3.16v2.32h3.34v.76Z"/>
    <path class="cls-3" d="m209.54,55.63h-4.09v-6.74h.84v5.98h3.25v.76Z"/>
    <path class="cls-3" d="m210.95,55.63v-6.74h.84v6.74h-.84Z"/>
    <path class="cls-3" d="m219.43,55.63v-5.2h-.03l-2.15,5.15h-.71l-2.15-5.15h-.03v5.2h-.78v-6.74h.98l2.33,5.62h.04l2.33-5.62h.98v6.74h-.79Z"/>
    <path class="cls-3" d="m222,55.63v-6.74h.84v6.74h-.84Z"/>
    <path class="cls-3" d="m226.34,55.63v-5.98h-2.13v-.76h5.09v.76h-2.13v5.98h-.84Z"/>
    <path class="cls-3" d="m234.85,55.63h-4.18v-6.74h4.18v.76h-3.34v2.16h3.16v.75h-3.16v2.32h3.34v.76Z"/>
    <path class="cls-3" d="m238.7,48.89c1.01,0,1.79.3,2.34.89.55.58.83,1.41.84,2.48,0,1.07-.29,1.9-.84,2.49-.55.59-1.33.88-2.34.89h-2.27v-6.74h2.27Zm-1.42,5.98h1.37c.77,0,1.35-.23,1.76-.68.41-.45.61-1.09.62-1.93,0-.85-.21-1.5-.61-1.94-.41-.45-1-.67-1.77-.68h-1.37v5.23Z"/>
  </g>
</svg>