<?xml version="1.0" encoding="UTF-8"?>
<svg id="Layer_1" data-name="Layer 1" xmlns="http://www.w3.org/2000/svg" viewBox="0 0 257.14 99">
  <defs>
    <style>
      .cls-1 {
        fill: #c6c6c6;
      }
    </style>
  </defs>
  <path class="cls-1" d="m101.13,16.88h9.2v37.43h-9.21v-3.96c-1.8,1.74-3.56,3-5.39,3.76-1.78.78-3.72,1.16-5.83,1.16-4.71,0-8.76-1.89-12.21-5.63-3.42-3.74-5.16-8.4-5.13-13.98,0-5.78,1.66-10.51,4.98-14.21,3.33-3.69,7.35-5.55,12.1-5.55,2.19,0,4.26.45,6.17,1.27,1.92.84,3.7,2.12,5.32,3.81v-4.11Zm-9.6,7.63c-2.83,0-5.16,1.02-7.04,3.11-1.88,2.02-2.79,4.67-2.81,7.9,0,3.24.95,5.89,2.87,8,1.88,2.1,4.22,3.14,7.02,3.14s5.23-1.02,7.14-3.12c1.87-2.02,2.48-5.08,2.48-8.4s-.58-5.57-2.48-7.59c-1.91-2.02-4.28-3.05-7.18-3.05"/>
  <path class="cls-1" d="m39.22,16.94h9.18v37.43h-9.18v-3.96c-1.79,1.75-3.6,3.01-5.37,3.75-1.8.77-3.76,1.16-5.86,1.16-4.7,0-8.77-1.88-12.22-5.63-3.42-3.74-5.14-8.41-5.14-13.97s1.67-10.52,4.99-14.22c3.33-3.68,7.37-5.54,12.13-5.54,2.17,0,4.22.44,6.14,1.27,1.92.85,3.7,2.11,5.32,3.8v-4.09Zm-9.59,7.64c-2.84-.02-5.17,1.01-7.03,3.08-1.87,2.07-2.8,4.69-2.82,7.91,0,3.23.95,5.92,2.85,7.99,1.91,2.11,4.25,3.16,7.02,3.16s5.27-1.03,7.16-3.1c1.86-2.06,2.49-5.09,2.49-8.43s-.61-5.56-2.49-7.57c-1.89-2.06-4.28-3.05-7.18-3.05"/>
  <path class="cls-1" d="m115.13,16.88l9.18.02v4.32c1.58-1.75,3.32-3.09,5.24-3.98,1.93-.86,4.02-1.33,6.28-1.33s4.36.6,6.22,1.75c1.8,1.17,3.29,2.85,4.42,5.07,1.44-2.22,3.24-3.9,5.34-5.05,2.14-1.17,4.46-1.75,6.99-1.75s4.88.64,6.86,1.87c1.96,1.22,3.38,2.86,4.24,4.85.87,2,1.29,5.26,1.29,9.74v21.96s-9.21,0-9.21,0l.02-18.94c0-4.24-.5-7.1-1.55-8.61-1.06-1.5-2.58-2.26-4.66-2.26-1.59,0-2.99.48-4.26,1.4-1.24.89-2.16,2.15-2.78,3.77-.62,1.62-.9,4.21-.9,7.78l-.03,16.86h-9.2l.03-18.11c0-3.33-.25-5.75-.73-7.26-.48-1.5-1.21-2.61-2.17-3.36-.98-.72-2.14-1.09-3.52-1.09-1.53,0-2.91.46-4.16,1.4-1.25.91-2.18,2.22-2.8,3.89-.63,1.65-.94,4.3-.94,7.87l-.02,16.61h-9.21l.04-37.43Z"/>
  <path class="cls-1" d="m213.47,38.26l-29.48-.02c.43,2.68,1.56,4.85,3.41,6.42,1.83,1.6,4.18,2.41,7.05,2.42,3.43,0,6.37-1.26,8.85-3.74l7.72,3.74c-1.93,2.79-4.23,4.86-6.93,6.21-2.68,1.33-5.87,1.98-9.56,1.98-5.73,0-10.4-1.83-14-5.54-3.59-3.72-5.41-8.35-5.41-13.91s1.82-10.46,5.41-14.24c3.6-3.76,8.11-5.66,13.53-5.66,5.77.01,10.46,1.9,14.06,5.66,3.6,3.75,5.41,8.73,5.41,14.89l-.05,1.78Zm-9.15-7.35c-.58-2.05-1.79-3.72-3.59-4.99-1.78-1.31-3.86-1.94-6.21-1.94-2.55,0-4.8.72-6.73,2.17-1.21.89-2.36,2.5-3.37,4.77h19.9Z"/>
  <polygon class="cls-1" points="249.32 54.37 238.66 54.37 229.99 42.08 221.35 54.35 210.86 54.35 224.74 34.67 212.18 16.93 222.82 16.93 230.04 27.15 237.23 16.93 247.74 16.95 235.3 34.57 249.32 54.37"/>
  <path class="cls-1" d="m71.33,24.61c1.48-2.58,3.22-5.01,5.17-7.24-2.1-1.09-4.15-1.68-6.08-1.67-1.72,0-3.2.33-4.43.99-1.24.6-2.62,1.77-4.21,3.43v-3.25s-8.59.04-8.59.04l.12,37.43,9.02-.03-.08-19.46c-.02-7.13,1.89-10.72,6.59-10.74.82,0,1.64.17,2.48.5"/>
  <path class="cls-1" d="m23.66,78.69h-.93l-.41-.81c-.91.75-1.83,1.14-2.8,1.14-1.33,0-2.42-.39-3.22-1.14-.95-.95-1.43-2.36-1.43-4.28,0-3.62,1.48-5.43,4.44-5.43,1,0,1.99.34,3.03,1.06-.12-.23-.15-.52-.15-.83v-4.51h1.46v14.8Zm-1.46-2v-6.33c-.78-.36-1.24-.57-1.41-.65-.51-.18-1.01-.3-1.47-.3-1.03,0-1.77.35-2.24,1-.46.68-.71,1.74-.71,3.2,0,2.8,1.07,4.19,3.16,4.19.74,0,1.63-.37,2.68-1.1"/>
  <path class="cls-1" d="m34.79,74.03h-7.38c.03,1.3.27,2.23.71,2.81.46.6,1.27.91,2.41.91,1.4,0,2.36-.49,2.85-1.48l1.28.51c-.73,1.49-2.1,2.23-4.12,2.23-1.63,0-2.8-.43-3.55-1.3-.77-.86-1.14-2.25-1.14-4.14s.35-3.14,1.04-3.99c.74-.94,1.98-1.42,3.67-1.42s2.91.54,3.54,1.63c.46.8.7,2.05.7,3.8v.44Zm-1.5-1.25c0-1.15-.18-1.97-.55-2.48-.41-.6-1.14-.91-2.19-.91s-1.78.25-2.25.75c-.54.52-.83,1.4-.9,2.63h5.88Z"/>
  <path class="cls-1" d="m40.46,78.85h-.77c-1.49,0-2.25-.82-2.25-2.45v-11.23h-1.55v-1.28h3.03v12.51c0,.75.28,1.13.83,1.13h.71v1.32Z"/>
  <path class="cls-1" d="m45.89,78.85h-.79c-1.46,0-2.21-.82-2.21-2.45v-5.97c0-.2.03-.42.12-.66h-1.7v-1.3h3.05v7.93c0,.76.23,1.13.73,1.13h.79v1.32Zm-1.53-13.31c0,.11-.05.15-.14.15h-1.52c-.1,0-.14-.04-.14-.15v-1.47c0-.14.04-.19.14-.19h1.52c.09,0,.14.05.14.19v1.47Z"/>
  <path class="cls-1" d="m55.68,68.48l-3.8,10.21h-1.67l-3.8-10.21h1.52l2.76,7.52c.11.34.24.85.34,1.57.09-.33.19-.86.39-1.57l2.72-7.52h1.53Z"/>
  <path class="cls-1" d="m65.61,74.03h-7.39c.02,1.3.27,2.23.7,2.81.46.6,1.27.91,2.43.91,1.4,0,2.33-.49,2.85-1.48l1.25.51c-.7,1.49-2.07,2.23-4.1,2.23-1.62,0-2.8-.43-3.56-1.3-.77-.86-1.15-2.25-1.15-4.14s.34-3.14,1.02-3.99c.77-.94,1.99-1.42,3.7-1.42s2.89.54,3.53,1.63c.51.8.73,2.05.73,3.8v.44Zm-1.54-1.25c0-1.15-.16-1.97-.51-2.48-.42-.6-1.16-.91-2.21-.91s-1.76.25-2.25.75c-.55.52-.83,1.4-.89,2.63h5.85Z"/>
  <path class="cls-1" d="m72.9,69.7c-.26-.05-.56-.09-.88-.09-.78,0-1.51.28-2.15.82l-.6.49v7.76h-1.46v-10.21h1.22l.24,1.08.87-.74c.53-.43,1.15-.65,1.88-.65.28,0,.57.03.88.11v1.43Z"/>
  <path class="cls-1" d="m83.18,68.48l-4.77,12.88c-.27.71-.61,1.21-1.09,1.5-.44.29-1.1.44-1.94.44h-1.3v-1.36h1.3c.53,0,.94-.09,1.15-.23.22-.15.39-.46.59-.97l.65-1.8-3.86-10.46h1.52l2.76,7.52c.06.1.17.54.36,1.28.15-.59.25-1.03.35-1.28l2.75-7.52h1.54Z"/>
  <path class="cls-1" d="m97.9,78.69h-1.15l-.3-1.23-.76.52c-.96.69-1.82,1.03-2.57,1.03-1.09,0-1.96-.31-2.57-.92-.69-.67-1.02-1.69-1.02-3.02v-6.59h1.46v6.56c0,1.82.7,2.72,2.13,2.72.65,0,1.43-.29,2.34-.9l1-.65v-7.73h1.45v10.21Z"/>
  <path class="cls-1" d="m108.87,78.69h-1.46v-6.55c0-1.81-.72-2.74-2.11-2.74-.67,0-1.47.3-2.36.9l-.98.67v7.71h-1.48v-10.21h1.16l.32,1.23.74-.51c.99-.7,1.84-1.03,2.6-1.03,1.09,0,1.94.31,2.54.91.68.68,1.03,1.68,1.03,3.02v6.6Z"/>
  <path class="cls-1" d="m114.81,78.85h-.75c-1.51,0-2.27-.82-2.27-2.45v-11.23h-1.57v-1.28h3.04v12.51c0,.75.27,1.13.82,1.13h.72v1.32Z"/>
  <path class="cls-1" d="m120.23,78.85h-.78c-1.5,0-2.23-.82-2.23-2.45v-5.97c0-.2.06-.42.15-.66h-1.71v-1.3h3.03v7.93c0,.76.25,1.13.76,1.13h.78v1.32Zm-1.54-13.31c0,.11-.05.15-.14.15h-1.5c-.1,0-.15-.04-.15-.15v-1.47c0-.14.05-.19.15-.19h1.5c.09,0,.14.05.14.19v1.47Z"/>
  <path class="cls-1" d="m135.92,78.69h-1.48v-6.5c0-1.85-.53-2.78-1.62-2.78-.68,0-1.51.36-2.49,1.04l-.67.49c.05.3.07.73.07,1.26v6.5h-1.49v-6.5c0-1.85-.54-2.78-1.66-2.78-.6,0-1.36.35-2.28,1l-.85.57v7.71h-1.44v-10.21h1.18l.26,1.23.73-.48c1.02-.73,1.83-1.06,2.39-1.06,1.3,0,2.21.54,2.71,1.63l.71-.54c.57-.39.99-.65,1.29-.78.45-.2.95-.31,1.54-.31,2.06,0,3.08,1.36,3.08,4.02v6.5Z"/>
  <path class="cls-1" d="m142.14,78.85h-.79c-1.48,0-2.21-.82-2.21-2.45v-5.97c0-.2.03-.42.14-.66h-1.69v-1.3h3.01v7.93c0,.76.26,1.13.75,1.13h.79v1.32Zm-1.54-13.31c0,.11-.04.15-.11.15h-1.54c-.08,0-.13-.04-.13-.15v-1.47c0-.14.05-.19.13-.19h1.54c.07,0,.11.05.11.19v1.47Z"/>
  <path class="cls-1" d="m150.39,78.16c-.68.56-1.67.85-3.01.85-1.78,0-2.64-.93-2.64-2.8v-5.66c0-.18.06-.42.19-.77h-1.92v-1.3h1.73v-3.48l1.46-.44v3.92h3.63l-.41,1.3h-3.22v6.43c0,.59.14,1.01.39,1.24.26.23.67.33,1.25.33.52,0,1.04-.2,1.64-.57l.91.94Z"/>
  <path class="cls-1" d="m160.46,74.03h-7.42c.04,1.3.29,2.23.71,2.81.51.6,1.28.91,2.43.91,1.4,0,2.36-.49,2.83-1.48l1.28.51c-.71,1.49-2.08,2.23-4.12,2.23-1.63,0-2.8-.43-3.57-1.3-.76-.86-1.11-2.25-1.11-4.14s.32-3.14,1.01-3.99c.75-.94,1.98-1.42,3.67-1.42s2.9.54,3.55,1.63c.47.8.72,2.05.72,3.8v.44Zm-1.53-1.25c0-1.15-.16-1.97-.52-2.48-.42-.6-1.15-.91-2.22-.91-1,0-1.75.25-2.24.75-.54.52-.82,1.4-.9,2.63h5.89Z"/>
  <path class="cls-1" d="m171.06,78.69h-.93l-.39-.81c-.92.75-1.88,1.14-2.85,1.14-1.33,0-2.39-.39-3.2-1.14-.96-.95-1.43-2.36-1.43-4.28,0-3.62,1.47-5.43,4.46-5.43.97,0,2,.34,3.03,1.06-.11-.23-.16-.52-.16-.83v-4.51h1.47v14.8Zm-1.47-2v-6.33c-.78-.36-1.24-.57-1.4-.65-.55-.18-1.02-.3-1.47-.3-1.04,0-1.79.35-2.25,1-.48.68-.71,1.74-.71,3.2,0,2.8,1.05,4.19,3.13,4.19.74,0,1.66-.37,2.7-1.1"/>
</svg>