<?xml version="1.0" encoding="UTF-8"?>
<svg id="Layer_1" data-name="Layer 1" xmlns="http://www.w3.org/2000/svg" viewBox="0 0 185 70">
  <defs>
    <style>
      .cls-1 {
        fill: #ccc;
        fill-rule: evenodd;
      }
    </style>
  </defs>
  <polygon class="cls-1" points="172.09 49.18 175.09 49.18 175.09 56.97 176.29 56.97 176.29 49.18 179.27 49.18 179.27 48.12 172.09 48.12 172.09 49.18 172.09 49.18"/>
  <polygon class="cls-1" points="169.83 55.26 169.79 55.26 165.37 48.12 163.96 48.12 163.96 56.97 165.12 56.97 165.12 49.82 165.14 49.82 169.63 56.97 170.99 56.97 170.99 48.12 169.83 48.12 169.83 55.26 169.83 55.26"/>
  <polygon class="cls-1" points="162.39 55.91 157.05 55.91 157.05 52.95 161.9 52.95 161.9 51.89 157.05 51.89 157.05 49.18 162.31 49.18 162.31 48.12 155.85 48.12 155.85 56.97 162.39 56.97 162.39 55.91 162.39 55.91"/>
  <path class="cls-1" d="m153.91,56.97v-8.86h-1.69l-2.53,7.48h-.02l-2.53-7.48h-1.71v8.86h1.16v-5.22c0-.26-.02-1.39-.02-2.2h.02l2.49,7.42h1.18l2.49-7.44h.02c0,.82-.02,1.96-.02,2.22v5.22h1.16Z"/>
  <path class="cls-1" d="m141.34,48.12h-3.97v8.86h1.2v-3.73h2.77c1.92,0,2.63-1.39,2.63-2.63,0-1.43-.98-2.49-2.63-2.49Zm-.39,4.1h-2.38v-3.08h2.41c.98,0,1.75.35,1.75,1.49s-.73,1.59-1.79,1.59Z"/>
  <polygon class="cls-1" points="135.2 48.12 134 48.12 134 56.97 135.2 56.97 135.2 48.12 135.2 48.12"/>
  <path class="cls-1" d="m130.72,48.12v5.6c0,1.92-1.22,2.43-2.32,2.43s-2.26-.53-2.26-2.45v-5.58h-1.2v5.91c0,1.65,1.04,3.18,3.42,3.18s3.55-1.53,3.55-3.34v-5.75h-1.2Z"/>
  <path class="cls-1" d="m123.63,52.55c0-1.92-1.02-4.67-4.32-4.67s-4.32,2.75-4.32,4.67,1.02,4.65,4.32,4.65c.94,0,1.71-.22,2.28-.59l1.35,1.04.61-.71-1.22-.94c.94-.94,1.3-2.34,1.3-3.46Zm-2.22,2.73l-1.12-.88-.61.75.94.71c-.37.2-.82.29-1.32.29-1.92,0-3.08-1.51-3.08-3.59s1.16-3.61,3.08-3.61,3.08,1.51,3.08,3.61c0,1.12-.35,2.1-.98,2.73Z"/>
  <polygon class="cls-1" points="113.89 55.91 108.55 55.91 108.55 52.95 113.4 52.95 113.4 51.89 108.55 51.89 108.55 49.18 113.79 49.18 113.79 48.12 107.35 48.12 107.35 56.97 113.89 56.97 113.89 55.91 113.89 55.91"/>
  <polygon class="cls-1" points="100.78 55.26 100.76 55.26 96.32 48.12 94.91 48.12 94.91 56.97 96.06 56.97 96.06 49.82 96.08 49.82 100.58 56.97 101.93 56.97 101.93 48.12 100.78 48.12 100.78 55.26 100.78 55.26"/>
  <path class="cls-1" d="m89.19,47.88c-3.3,0-4.32,2.75-4.32,4.67s1.02,4.65,4.32,4.65,4.32-2.75,4.32-4.65-1.02-4.67-4.32-4.67Zm0,8.27c-1.92,0-3.08-1.51-3.08-3.59s1.16-3.61,3.08-3.61,3.08,1.51,3.08,3.61-1.16,3.59-3.08,3.59Z"/>
  <polygon class="cls-1" points="83.28 48.12 82.08 48.12 82.08 56.97 83.28 56.97 83.28 48.12 83.28 48.12"/>
  <polygon class="cls-1" points="73.62 49.18 76.61 49.18 76.61 56.97 77.8 56.97 77.8 49.18 80.81 49.18 80.81 48.12 73.62 48.12 73.62 49.18 73.62 49.18"/>
  <path class="cls-1" d="m72.86,50.79c-.18-1.49-1.35-2.91-3.65-2.91-2.57,0-4.12,1.89-4.12,4.61,0,3.4,1.98,4.71,3.99,4.71.67,0,3.38-.16,3.87-3.5h-1.16c-.41,2.06-1.75,2.43-2.53,2.43-2.18,0-2.93-1.61-2.93-3.69,0-2.34,1.3-3.51,2.89-3.51.86,0,2.16.29,2.49,1.85h1.16Z"/>
  <path class="cls-1" d="m62.39,48.12v5.6c0,1.92-1.24,2.43-2.34,2.43s-2.24-.53-2.24-2.45v-5.58h-1.2v5.91c0,1.65,1.02,3.18,3.4,3.18s3.57-1.53,3.57-3.34v-5.75h-1.2Z"/>
  <path class="cls-1" d="m55.22,55.89l-.08-1.61c-.04-1.24-.55-1.45-1.06-1.67.57-.33,1.24-.8,1.24-2.12,0-1.87-1.45-2.38-2.91-2.38h-4.1v8.86h1.2v-3.79h2.91c1.43,0,1.57.84,1.57,1.57,0,.33.04,1.67.22,2.22h1.45v-.2c-.35-.22-.41-.39-.43-.88Zm-2.95-3.75h-2.77v-3h2.98c.59,0,1.59.12,1.59,1.49,0,1.3-.92,1.51-1.81,1.51Z"/>
  <polygon class="cls-1" points="39.87 49.18 42.87 49.18 42.87 56.97 44.07 56.97 44.07 49.18 47.06 49.18 47.06 48.12 39.87 48.12 39.87 49.18 39.87 49.18"/>
  <path class="cls-1" d="m38.87,50.71c-.04-.98-.35-2.83-3.44-2.83-2.16,0-3.04,1.35-3.04,2.75,0,1.53,1.3,1.94,1.89,2.08l1.81.41c1.45.35,1.89.65,1.89,1.57,0,1.26-1.45,1.49-2.32,1.49-1.14,0-2.43-.47-2.43-2.08h-1.12c0,.82.14,1.57.88,2.26.39.35,1.04.84,2.69.84,1.51,0,3.46-.59,3.46-2.67,0-1.41-.86-2.1-2-2.38l-2.53-.57c-.51-.14-1.04-.37-1.04-1.14,0-1.34,1.26-1.55,2.02-1.55.98,0,2.12.43,2.18,1.81h1.12Z"/>
  <polygon class="cls-1" points="29.39 55.26 29.37 55.26 24.93 48.12 23.51 48.12 23.51 56.97 24.67 56.97 24.67 49.82 24.69 49.82 29.21 56.97 30.54 56.97 30.54 48.12 29.39 48.12 29.39 55.26 29.39 55.26"/>
  <path class="cls-1" d="m17.78,47.88c-3.3,0-4.3,2.75-4.3,4.67s1,4.65,4.3,4.65,4.32-2.75,4.32-4.65-1-4.67-4.32-4.67Zm0,8.27c-1.92,0-3.08-1.51-3.08-3.59s1.16-3.61,3.08-3.61,3.08,1.51,3.08,3.61-1.16,3.59-3.08,3.59Z"/>
  <path class="cls-1" d="m12.4,50.79c-.18-1.49-1.35-2.91-3.63-2.91-2.57,0-4.14,1.89-4.14,4.61,0,3.4,1.98,4.71,3.99,4.71.67,0,3.38-.16,3.87-3.5h-1.16c-.39,2.06-1.75,2.43-2.51,2.43-2.2,0-2.95-1.61-2.95-3.69,0-2.34,1.3-3.51,2.91-3.51.84,0,2.14.29,2.47,1.85h1.16Z"/>
  <path class="cls-1" d="m180.37,16.25c0-.94-.77-1.69-1.71-1.69s-1.69.75-1.69,1.69.77,1.69,1.69,1.69,1.71-.75,1.71-1.69h0Z"/>
  <path class="cls-1" d="m139.53,39.56c-4.16,0-3.81-5.09-3.81-5.09h16.43c0-5.12-2.18-13.45-12.49-13.45s-12.78,7.97-12.78,11.78,2.4,11.7,12.43,11.7,12-6.71,12-6.71h-7.62s0,1.77-4.16,1.77Zm-.08-13.53c3.67,0,3.95,2.69,4.02,4.3h-7.7s0-4.3,3.67-4.3Z"/>
  <path class="cls-1" d="m177.1,37.96h2.08v5.44s-2.83.61-4.61.61-7.7-.33-7.7-8.33v-9.5h-3.12v-4.5h3.12v-6.83h8.4v6.83h4.16v4.5h-4.16v8.85s-.31,2.93,1.83,2.93h0Z"/>
  <polygon class="cls-1" points="153.97 13.32 162.39 13.32 162.39 43.4 153.97 43.4 153.97 13.32 153.97 13.32"/>
  <path class="cls-1" d="m121.53,27.36c3.38-2.89,3-7.11,3-7.11,0-7.03-8.82-6.93-8.82-6.93h-17.89v30.08h17.51c6.46,0,10.31-3.22,10.31-8.29s-4.12-7.76-4.12-7.76Zm-14.22-7.93h5.24c1.92,0,2.91,1.55,2.93,3.1.02,1.55-.94,3.12-2.93,3.12h-5.24v-6.22Zm6.15,17.51h-6.15v-6.52h6.15c2,0,3.04,1.63,3.06,3.24.02,1.65-.98,3.28-3.06,3.28Z"/>
  <polygon class="cls-1" points="86.6 28.5 96.14 28.5 96.14 35.22 86.6 35.22 86.6 28.5 86.6 28.5"/>
  <polygon class="cls-1" points="80.51 29.97 89.41 43.4 79.87 43.4 74.72 35.88 72.84 37.81 72.84 43.4 64.77 43.4 64.77 13.32 72.84 13.32 72.84 28.27 79.1 21.84 88.48 21.84 80.51 29.97 80.51 29.97"/>
  <path class="cls-1" d="m39.22,43.4v-21.5h7.52v2.41s3.1-3.04,8.15-3.04,7.85,3.81,7.85,8.09v14.04h-8.21v-12.31s-.55-3.26-3.59-3.26-3.59,2.14-3.59,3.67v11.9h-8.13Z"/>
  <polygon class="cls-1" points="29.6 12.34 37.44 12.34 37.44 18.74 29.6 18.74 29.6 12.34 29.6 12.34"/>
  <polygon class="cls-1" points="29.6 22.14 37.44 22.14 37.44 43.4 29.6 43.4 29.6 22.14 29.6 22.14"/>
  <polygon class="cls-1" points="5.41 13.32 14.66 13.32 14.66 36.08 27.7 36.08 27.7 43.4 5.41 43.4 5.41 13.32 5.41 13.32"/>
  <path class="cls-1" d="m180.18,16.25c0,.82-.69,1.49-1.51,1.49s-1.49-.67-1.49-1.49.67-1.49,1.49-1.49,1.51.67,1.51,1.49h0Z"/>
  <path class="cls-1" d="m178.04,17.13h.24v-.81h.63c.37,0,.27.35.31.57l.04.24h.27c-.1-.16-.06-.2-.08-.45-.04-.31-.04-.35-.24-.47.2-.14.26-.24.26-.47-.02-.41-.31-.47-.59-.47h-.84v1.87h0Z"/>
  <path class="cls-1" d="m178.88,15.48c.14,0,.37.04.33.35-.02.24-.18.27-.33.27h-.61v-.63h.61Z"/>
</svg>