<?xml version="1.0" encoding="utf-8"?>
<!-- Generator: Adobe Illustrator 27.3.1, SVG Export Plug-In . SVG Version: 6.00 Build 0)  -->
<svg version="1.1" id="svg2660" xmlns:svg="http://www.w3.org/2000/svg"
	 xmlns="http://www.w3.org/2000/svg" xmlns:xlink="http://www.w3.org/1999/xlink" x="0px" y="0px" viewBox="0 0 706 226"
	 style="enable-background:new 0 0 706 226;" xml:space="preserve">
<style type="text/css">
	.st0{fill:#B3B3B3;}
</style>
<path id="path2504" class="st0" d="M149.7,40.7l-19.8,107.1h20.5l15-82.2l51.6,74.8l18.2-99.7h-19.5l-9.3,50.7l-35-50.7H149.7z
	 M27.1,78.2c-4.5,0-8.3,3.1-9.2,7.3l-0.2,0.8l-4.1,22.9c-0.1,0.6-0.2,1.2-0.2,1.8c0,5.1,4.3,9.2,9.5,9.2h17c2.3,0,3.9,2.6,3.5,4.7
	c-0.5,2.4-1.4,4.3-5.2,4.3H9.9L6.4,148h44c8.5,0,10.3-8,10.3-8s4.3-19.7,4.3-24.7c0-5.1-4.1-9.2-9.2-9.2H38.6
	c-2.9,0-3.9-2.1-3.5-4.7c0.3-2,2.1-4.3,5.1-4.3h28.5l3.5-18.8H27.1V78.2z M80.3,78.2l-12.8,69.7h54.4l3.5-18.8H90.3l1.7-8.9h35
	l2.6-14.3H94.5l1.7-9h35.1l3.5-18.7L80.3,78.2L80.3,78.2z M235.2,78.2l-14.8,80.1l-51.1-74l-18.5,101h19.9l9.2-49.8l34.4,49.8H236
	l19.7-107.1C255.7,78.2,235.2,78.2,235.2,78.2z M263.8,78.2l-12.9,69.8h54.2l3.4-18.8h-34.8l1.7-8.9h34.8l2.6-14.3h-34.4l1.5-9h34.5
	l3.5-18.7H263.8z M325.6,78.2l-12.8,69.8h52c8.4,0,11.8-3.5,12.5-8c0,0,3.3-17.5,3.3-18c0.1-0.4,0.1-0.8,0.1-1.3
	c0-3.7-1.8-6.8-4.9-8.4c4-0.4,7.1-3.4,7.9-7.3l0.1-0.6l2.8-15.5c0.1-0.5,0.1-0.9,0.1-1.5c0-4.5-2.5-9.4-9.2-9.4L325.6,78.2
	L325.6,78.2z M480.1,78.2c-4.5,0-8.3,3.3-9.2,7.6l-0.5,2.8l-7.5,40.7l-1.3,7c-0.1,0.5-0.2,1.2-0.2,1.8c0,5.4,4.4,9.8,9.8,9.8H513
	c5.2,0,9.4-3.7,10.4-8.5l6.2-33.6H498l-2.2,12.4h14.8c0,0-0.2,1.5-0.5,3.3c-0.6,3.2-2.4,7.5-7.9,7.5h-17.1c-1.8,0-3.7-1.6-3.3-3.7
	l4.6-25.2c0.4-2,1.5-3.3,3.3-3.3h41.6l3.5-18.7L480.1,78.2L480.1,78.2z M542.9,78.2L530,147.9h54.2l3.5-18.8h-34.8l1.6-8.9h34.7
	l2.6-14.3H557l1.6-9h34.8l3.5-18.7C596.9,78.2,542.9,78.2,542.9,78.2z M405.5,78.2c-4.8,0-9.5,3.5-10.2,8c0,0-8.5,46.9-8.6,47.5
	c-2,7.9,4.3,14.2,11.1,14.2h43.5c4.8,0,10.7-3.4,11.5-7.9l9.2-50.4c0,0,0.2-1.6,0.2-2c0-4.5-2.9-9.3-9.6-9.3H405.5z M605.1,78.2
	L592.2,148h18l7.1-38.1l21.2,38.1h15.7L667,78.2h-18.3l-6.9,37l-21-37C620.9,78.2,605.1,78.2,605.1,78.2z M414.4,96.8h22.8
	c1.5,0,3.9,1.5,3.2,4.1l-4.7,25.4c-0.4,1.5-1.5,2.7-3,2.7h-22.5c-1.5,0-3.9-1.4-3.2-4.1l4.6-25.4C412.1,98.2,412.9,96.8,414.4,96.8z
	 M341.1,96.9h21.5c2,0,3.4,1.9,2.9,4.5c-0.5,2.8-2.2,4.4-4.5,4.4h-21.5L341.1,96.9z M336.8,120.1h21.4c2.2,0,3.3,2.2,3,4.5
	c-0.3,2.5-2.2,4.4-4.6,4.4h-21.5L336.8,120.1z"/>
<path id="path2506" class="st0" d="M683,53.2c-1.2,0-2.4,0.3-3.5,0.7c-1.1,0.5-2,1.1-2.8,2c-0.9,0.9-1.5,1.8-2,2.9
	c-0.5,1.1-0.7,2.2-0.7,3.5s0.2,2.4,0.7,3.5s1.1,2.1,2,2.9c0.9,0.9,1.8,1.6,2.9,2c1.1,0.5,2.2,0.7,3.5,0.7c1.2,0,2.3-0.2,3.5-0.7
	c1.1-0.5,2.1-1.2,3-2c0.9-0.8,1.5-1.8,2-2.8c0.4-1.1,0.6-2.2,0.6-3.5c0-1.2-0.3-2.4-0.7-3.5c-0.5-1.1-1-2.1-1.9-2.9
	c-0.9-0.9-1.9-1.5-3-2C685.4,53.4,684.2,53.2,683,53.2z M683,54.1c1.1,0,2.1,0.2,3.1,0.6c1,0.4,1.9,0.9,2.7,1.7
	c0.7,0.7,1.3,1.6,1.7,2.6c0.4,0.9,0.6,2,0.6,3.2c0,1.1-0.2,2.1-0.6,3.1c-0.4,0.9-0.9,1.8-1.7,2.6c-0.8,0.7-1.7,1.4-2.7,1.8
	c-1,0.4-2,0.6-3.1,0.6c-1.1,0-2.1-0.2-3.1-0.6c-1-0.4-1.8-1-2.6-1.8c-0.7-0.7-1.4-1.6-1.8-2.6c-0.4-0.9-0.6-2-0.6-3.1
	s0.2-2.1,0.6-3.1s1-1.9,1.8-2.7c0.7-0.7,1.6-1.4,2.6-1.8C680.8,54.3,681.9,54.1,683,54.1z M679.9,57.1v10.2h0.5v-4.7h3.1l2.2,4.7
	h0.9l-2.4-4.9c0.7-0.1,1.4-0.3,1.8-0.9c0.5-0.5,0.7-1.1,0.7-1.8c0-1-0.3-1.7-1-2.2c-0.7-0.5-1.8-0.5-3.3-0.5
	C682.5,57.1,679.9,57.1,679.9,57.1z M680.5,57.8h2.5c1.1,0,1.8,0.1,2.4,0.5c0.5,0.3,0.7,0.7,0.7,1.4c0,0.7-0.2,1.2-0.6,1.6
	c-0.5,0.3-1.3,0.5-2.4,0.5h-2.5L680.5,57.8L680.5,57.8z"/>
</svg>
