<?xml version="1.0" encoding="UTF-8"?>
<svg id="Layer_1" data-name="Layer 1" xmlns="http://www.w3.org/2000/svg" viewBox="0 0 190 70">
  <defs>
    <style>
      .cls-1 {
        fill: #ccc;
        fill-rule: evenodd;
      }
    </style>
  </defs>
  <path class="cls-1" d="m68.7,24.4h-4.28l-8,8.89h-.99v-8.89h-2.42l-.76.76v19.55l.76.76h2.42v-9.02h.87l8.09,9.02h4.27l-9.5-10.49,9.53-10.59Zm5.47,21.08l1.88-4.55h10.15l1.88,4.55h3.44l-8.47-20.45-.94-.63h-1.96l-.94.63-8.48,20.45h3.44Zm6.97-16.81l3.75,9.08h-7.52l3.76-9.08Zm26.03-4.26h-15.44l-.76.76v2.42h6.55v17.89h3.18v-17.89h5.7l.76-.76v-2.42Zm26.59,21.08v-8.34h2.87l5.66,8.34h3.84l-5.83-8.61c2.7-.79,4.57-3.29,4.57-6.11,0-3.49-2.87-6.36-6.36-6.36h-7.16l-.76.76v20.32h3.18Zm0-17.91h4.72c1.75,0,3.19,1.44,3.19,3.19s-1.43,3.18-3.17,3.19h-4.74v-6.38Zm19.77,17.91v-8.34h2.86l5.66,8.34h3.84l-5.83-8.61c2.7-.79,4.57-3.29,4.57-6.11,0-3.49-2.87-6.36-6.36-6.36h-7.16l-.76.76v20.32h3.18Zm0-17.91h4.73c1.75,0,3.19,1.44,3.19,3.19s-1.43,3.18-3.17,3.19h-4.74v-6.38Zm18.64,17.91l1.88-4.55h10.15l1.88,4.55h3.44l-8.46-20.45-.95-.63h-1.97l-.94.63-8.48,20.45h3.45Zm6.97-16.81l3.75,9.08h-7.52l3.76-9.08Zm-54.07-1.08v-3.18h-12.37l-.76.76v19.54l.76.76h12.37v-3.18h-9.95v-5.71h7.12v-3.18h-7.12v-5.81h9.95ZM12.69,54.12h-.37l-.48-.48V16.37l.48-.48h.37l.48.48v37.26l-.48.48Zm-5.67-4.33h-.37l-.48-.48v-28.55l.48-.48h.37l.48.48v28.55l-.48.48Zm-5.66-9.19h-.37l-.48-.48v-10l.44-.43h.45l.44.44v9.99l-.48.48Zm34.78,10.99h-.68l-14.42-14.42c-1.12-1.12-1.12-2.97,0-4.09l14.51-14.51h.68l.27.27v.68l-14.51,14.51c-.6.6-.6,1.59,0,2.2l14.42,14.42v.68l-.27.27h0Zm4.18-4.79h-.68l-9.63-9.63c-1.12-1.12-1.12-2.97,0-4.09l9.61-9.61h.68l.27.27v.68l-9.61,9.61c-.6.6-.6,1.59,0,2.2l9.63,9.63v.68l-.26.27h0Zm2.57-6.48h-.68l-3.13-3.13c-1.12-1.12-1.12-2.97,0-4.09l3.13-3.12h.68l.27.27v.68l-3.13,3.13c-.6.6-.6,1.59,0,2.2l3.13,3.13v.68l-.27.26h0Zm-23.28-13.85c-.27,0-.54-.05-.79-.15-.83-.34-1.37-1.15-1.36-2.05v-10.01l.48-.48h.37l.48.48v10.07c0,.44.36.8.8.8.21,0,.42-.08.57-.23l9.69-9.7h.68l.27.27v.68l-9.69,9.7c-.39.4-.93.63-1.5.63h0Zm-1.18,29.76h-.37l-.48-.48v-9.7c0-1.17.97-2.13,2.14-2.13.57,0,1.11.23,1.51.63l9.49,9.49v.68l-.27.27h-.68l-9.49-9.49c-.15-.15-.35-.23-.56-.23-.44,0-.8.36-.8.8v9.7l-.48.48h0Z"/>
</svg>