<?xml version="1.0" encoding="UTF-8"?>
<svg id="Layer_1" data-name="Layer 1" xmlns="http://www.w3.org/2000/svg" viewBox="0 0 190 70">
  <defs>
    <style>
      .cls-1 {
        fill: #f2f2f2;
      }
    </style>
  </defs>
  <path class="cls-1" d="m21.56,14.17c11.51.13,20.73,9.56,20.61,21.06-.13,11.51-9.56,20.73-21.06,20.61-11.51-.13-20.73-9.55-20.61-21.06.12-11.51,9.55-20.73,21.06-20.61,0,0,0,0,0,0Zm-10.42,26.39l-.76-.41c-4.05-2.13-6-6.87-3.54-10.99,1.24-2.1,4.4-3.95,6.95-3.03,3.15,1.13,3.95,4.79,2.52,6.71-.67.89-1.76,1.34-2.86,1.2-1.18-.16-2.11-1.09-2.27-2.27-.02-.3.12-.58.36-.76.42-.14.87-.23,1.31-.26-.02.19,0,.38.05.56.24.35.48.87.81.97.62.21,1.3-.12,1.51-.74,0,0,0-.02,0-.03.76-1.61-.76-3.92-2.66-4.01-3.19-.13-5.85,3.35-4.91,7.01.53,1.71,1.68,3.15,3.22,4.05.76.5,1.09.36,1.4-.28,1.22-2.39,3.33-4.2,5.89-5.04-.03-1.54.06-3.08.29-4.61.49-1.49,1.1-2.95,1.83-4.34-.59-.56-1.23-1.06-1.91-1.51-4.83-2.91-9.89-1.58-13.12,2.69-2.91,3.86-3.59,8.39-2.71,13.02.79,3.95,2.75,7.56,5.63,10.37,1.52,1.39,3.25,2.53,5.13,3.38.42.22.87.41,1.28.61-3.47-3.52-4.88-7.54-3.43-12.32h-.03Zm10.29-2.04c-2.56,2.04-5.3,3.19-8.9,2.56-.14,1.6-.14,3.22,0,4.82.54,3.34,2.88,6.11,6.08,7.21,2.19.81,4.57.99,6.86.54,4.5-.76,8.53-3.25,11.22-6.95,1.99-2.6,3.6-5.47,3.73-8.86.09-2.04,0-4.1,0-6.16-.49,2.2-1.54,4.24-3.04,5.93-1.45,1.57-3.32,2.7-5.39,3.25-.43.13-.56.29-.54.76.15,1.35-.01,2.72-.47,3.99-1.61,4-6.56,6.4-10.65,3.94-2.15-1.28-3.11-3.06-2.72-5.42.28-1.74,2.34-3.93,4.44-3.69,1.74.2,3.29,2.11,2.68,3.72-.27.61-.73,1.11-1.31,1.44-.19.11-.82-.49-1.29-.82l.58-.62c.45-.38.5-1.05.12-1.5-.14-.16-.32-.28-.52-.34-.82-.31-1.75-.09-2.34.56-.97,1.35-1.08,4.13,1.14,5.21,2.02,1.14,4.53.96,6.37-.45,2.01-1.55,2.54-3.88,2.31-6.28-3.04.24-6.04-.78-8.29-2.83l-.06-.03Zm9.68.92c1-.37,1.98-.79,2.94-1.27,3.14-1.85,4.92-5.37,4.53-9-.49-4.4-2.96-7.75-6.55-10.14-4.54-3.1-10.2-4.09-15.51-2.7-2.74.72-5.27,2.11-7.34,4.05,4.86-1.66,9.01-.58,12.55,3.02,1.41-1.25,3.21-1.97,5.09-2.06,2.5-.11,4.9,1.02,6.41,3.02,1.5,1.64,2.02,3.95,1.37,6.08-.56,1.88-1.81,3.55-5.07,3.41-1.94-.08-3.52-.95-3.88-3.02-.16-1.12.34-2.23,1.28-2.86.87-.7,1.74-.48,2.6-.23.16,0,.33.41.3.6-.08.42-.2.83-.35,1.23-1.42-.44-2.01-.3-2,.63.03.66.35,1.28.87,1.68,1.62,1.09,3.83.23,4.6-1.96s-.97-5.33-3.27-6.33c-2.54-1.05-4.65-.2-6.88.97,1.74,2.69,2.68,5.48,1.81,8.6,3.02,1.22,5.36,3.07,6.61,6.28h-.1Zm-9.55-13.55c-1.14,1.33-1.78,3.02-1.81,4.77-.19,1.9.19,2.27,2.11,2.27h.94c.58-2.41.15-4.95-1.19-7.04h-.04Zm-7.98,13.6c2.6.11,4.93-.35,6.7-2.21l-1.35-2.44c-2.39.65-4.36,2.35-5.35,4.63v.02Zm10.5-4.64l-1.51,2.4c1.85,1.94,4.1,2.36,6.63,2.23-.87-2.6-2.93-3.68-5.12-4.64v.02Zm-2.6,1.09l.87-1.4h-1.69l.82,1.4Z"/>
  <g>
    <path class="cls-1" d="m53.95,44.39v-18.08h10.11v2.49h-7.17v4.53h7.17v2.6h-7.17v5.84h7.17v2.6h-10.11Z"/>
    <path class="cls-1" d="m86.91,35.49c0-.14-.09-.52-.16-1.15s-.13-.96-.17-1.31c-.08.42-.18.83-.32,1.23-.14.43-.31.85-.5,1.26l-4.73,9.62-4.72-9.82c-.18-.38-.36-.77-.5-1.17s-.27-.76-.37-1.12c-.01.41-.04.82-.1,1.22-.06.44-.14.87-.24,1.31l-1.96,8.84h-2.67l4.27-18.8,5.29,11.39.37.87c.17.42.37.93.61,1.55.23-.68.5-1.34.82-1.98l.23-.49,5.21-11.37,4.34,18.8h-2.73l-1.94-8.87Z"/>
    <path class="cls-1" d="m98.8,44.39v-18.08h10.1v2.49h-7.14v4.53h7.14v2.6h-7.14v5.84h7.14v2.6h-10.1Z"/>
    <path class="cls-1" d="m119.75,36.32v8.07h-2.74v-18.08h4.09c.94-.03,1.88.05,2.8.23,1.35.27,2.48,1.19,3.02,2.46.31.72.46,1.49.45,2.27.08,1.22-.29,2.43-1.04,3.39-.79.89-1.9,1.43-3.09,1.51l6.21,8.21h-3.32l-6.08-8.07h-.3Zm.19-2.27h.53c1.06.1,2.13-.09,3.1-.54.55-.48.83-1.19.76-1.92.08-.8-.25-1.59-.87-2.1-.92-.5-1.98-.71-3.02-.62h-.52l.03,5.17Z"/>
    <path class="cls-1" d="m147.91,44.39l-2.04-4.64h-7.15l-2.14,4.64h-3.08l8.74-18.76,8.68,18.76h-3.01Zm-8.11-7.08h5.03l-1.85-4.12c-.1-.26-.22-.56-.33-.87s-.23-.76-.35-1.15c-.1.39-.21.76-.32,1.1s-.22.66-.33.95l-1.85,4.08Z"/>
    <path class="cls-1" d="m157.47,44.39v-18.08h2.93v15.48h6.55v2.6h-9.49Z"/>
    <path class="cls-1" d="m174.14,44.39v-18.08h3.99c1.82-.06,3.64.06,5.43.38,1,.25,1.94.72,2.75,1.35,1.05.8,1.86,1.85,2.37,3.06,1.09,2.74,1.09,5.79,0,8.53-.51,1.21-1.33,2.26-2.37,3.06-.8.61-1.71,1.06-2.69,1.3-1.55.3-3.13.43-4.71.38h-4.78Zm2.93-2.6h2.47c1.01.03,2.03-.06,3.02-.27.64-.18,1.23-.49,1.74-.92.68-.59,1.2-1.33,1.52-2.17.68-1.97.68-4.11,0-6.08-.32-.84-.84-1.59-1.52-2.18-.53-.43-1.16-.72-1.82-.87-1.1-.22-2.22-.31-3.33-.28h-2.09l.03,12.76Z"/>
  </g>
</svg>