<?xml version="1.0" encoding="UTF-8"?>
<svg id="Layer_1" data-name="Layer 1" xmlns="http://www.w3.org/2000/svg" viewBox="0 0 190 70">
  <defs>
    <style>
      .cls-1 {
        fill: #fff;
      }

      .cls-1, .cls-2, .cls-3 {
        fill-rule: evenodd;
      }

      .cls-2 {
        fill: #999;
      }

      .cls-3 {
        fill: #ccc;
      }
    </style>
  </defs>
  <path class="cls-3" d="m27.21,52.65h.94l-2.32,3.01,2.57,5.21h-1l-2.19-4.45-1.25,1.69v2.76h-.88v-8.22h.88v4.14l3.26-4.14h0Zm7.9.69h-3.57v2.82h2.57v.75h-2.57v3.2h3.83v.75h-4.7v-8.22h4.45v.69h0Zm7.4,0h-3.57v2.82h2.57v.75h-2.57v3.2h3.83v.75h-4.7v-8.22h4.45v.69h0Zm4.45-.69c1.19,0,1.69.06,2.26.31.69.31,1.13,1.07,1.13,1.88,0,.94-.56,1.82-1.38,2.07-.44.19-1,.25-1.82.25h-.88v3.7h-.88v-8.22h1.57Zm-.69,3.76h.88c.75,0,1.32-.06,1.69-.25.44-.25.63-.69.63-1.25,0-.63-.25-1.13-.75-1.32-.38-.19-.82-.25-1.69-.25h-.75v3.07h0Zm6.52-3.76h.88v8.22h-.88v-8.22h0Zm9.22,8.22h-.88l-3.01-5.83c-.06-.13-.19-.38-.38-.69-.19-.5-.25-.63-.5-1.07l.06.88v6.71h-.88v-8.22h1.38l2.57,4.89c.06.19.19.5.44,1,.13.38.25.5.44,1l-.06-.63c-.06-.63-.06-1.13-.06-1.51v-4.77h.88v8.22h0Zm7.46-5.83c-.19-.69-.31-.88-.56-1.19-.25-.44-.69-.63-1.25-.63-1.38,0-2.2,1.25-2.2,3.45,0,2.32.82,3.57,2.2,3.57,1.13,0,1.82-.88,1.82-2.32v-.25h-1.76v-.75h2.57v3.89h-.75v-.75c-.63.75-1,.94-1.94.94-1.82,0-3.01-1.57-3.01-4.2s1.19-4.33,3.07-4.33c.75,0,1.38.31,1.94.88.31.38.5.69.69,1.51l-.82.19h0Zm10.1,2.38v3.45h-.88v-3.45l-2.45-4.77h.88l1.51,2.82.19.5.13.25.19.38c.19-.38.25-.56.56-1.13l1.32-2.82h.88l-2.32,4.77h0Zm6.84-4.95c1.82,0,3.01,1.69,3.01,4.26s-1.19,4.26-3.01,4.26-2.95-1.63-2.95-4.26,1.13-4.26,2.95-4.26h0Zm-1.57,1.69c-.38.69-.5,1.38-.5,2.57s.13,1.94.5,2.57c.38.69.94,1,1.57,1,.69,0,1.25-.31,1.63-1,.31-.69.5-1.38.5-2.57s-.19-1.88-.5-2.57c-.44-.63-.94-1-1.63-1-.63,0-1.19.38-1.57,1h0Zm12.35,3.51c0,.94-.06,1.44-.25,1.88-.31.94-1.25,1.44-2.32,1.44-1.19,0-2.13-.5-2.45-1.44-.19-.44-.19-.94-.19-1.88v-5.02h.82v5.52c0,.38.06.69.19,1,.19.69.75,1.07,1.51,1.07.94,0,1.44-.38,1.69-1.07.06-.31.13-.63.13-1v-5.52h.88v5.02h0Zm9.47-5.21c1.82,0,2.95,1.69,2.95,4.26s-1.13,4.26-2.95,4.26-2.95-1.63-2.95-4.26,1.13-4.26,2.95-4.26h0Zm-1.57,1.69c-.38.69-.56,1.38-.56,2.57s.19,1.94.56,2.57c.38.69.94,1,1.57,1s1.19-.31,1.57-1c.38-.69.5-1.38.5-2.57s-.13-1.88-.5-2.57c-.38-.63-.94-1-1.57-1s-1.25.38-1.57,1h0Zm8.65-1.51c.88,0,1.51.06,2.01.19.82.25,1.44,1.07,1.44,2.07s-.56,1.69-1.57,2.13l1.57,3.83h-.94l-1.51-3.76c-.38.06-.56.06-.82.06h-.82v3.7h-.88v-8.22h1.51Zm-.63,3.76h.88c.88,0,1.19-.06,1.51-.19.5-.19.82-.69.82-1.32s-.31-1.13-.69-1.32c-.44-.19-.56-.25-1.88-.25h-.63v3.07h0Zm11.04-1.38c-.19-.69-.25-.88-.5-1.19-.31-.44-.75-.63-1.25-.63-1.38,0-2.2,1.25-2.2,3.45,0,2.32.75,3.57,2.13,3.57,1.19,0,1.82-.88,1.82-2.32v-.25h-1.69v-.75h2.57v3.89h-.75v-.75c-.63.75-1.07.94-1.94.94-1.88,0-3.01-1.57-3.01-4.2s1.13-4.33,3.07-4.33c.75,0,1.38.31,1.88.88.38.38.5.69.69,1.51l-.82.19h0Zm8.78,5.83h-.88l-.75-2.63h-2.63l-.75,2.63h-.88l2.32-8.22h1.19l2.38,8.22h0Zm-3.01-7.71l-1.07,4.33h2.26l-1.19-4.33h0Zm10.72,7.71h-.88l-3.01-5.83c-.06-.13-.19-.38-.38-.69-.19-.5-.25-.63-.5-1.07v.88c0,.19,0,.38.06.69v6.02h-.88v-8.22h1.38l2.51,4.89c.13.19.25.5.5,1,.13.38.19.5.44,1l-.06-.63c-.06-.63-.06-1.13-.06-1.51v-4.77h.88v8.22h0Zm2.76-8.22h.82v8.22h-.82v-8.22h0Zm8.15.69l-3.7,6.77h3.7v.75h-4.77v-.69l3.76-6.84h-3.39v-.69h4.39v.69h0Zm6.96,0h-3.57v2.82h2.57v.75h-2.57v3.2h3.83v.75h-4.7v-8.22h4.45v.69h0Zm4.58-.69c1.25,0,2.01.19,2.63.75.82.69,1.19,1.76,1.19,3.32,0,1.44-.31,2.51-1.07,3.2-.63.69-1.44.94-2.82.94h-1.57v-8.22h1.63Zm-.82,7.4h.75c2.13.06,3.01-.94,3.01-3.39,0-1.25-.31-2.19-.82-2.7-.44-.38-1.13-.56-2.13-.56h-.82v6.65h0Z"/>
  <polygon class="cls-2" points="12.22 9.01 53.61 9.01 53.61 50.4 12.22 50.4 12.22 9.01 12.22 9.01"/>
  <polygon class="cls-1" points="22.69 36.98 28.59 20.74 31.41 20.74 25.51 36.98 22.69 36.98 22.69 36.98"/>
  <polygon class="cls-1" points="28.4 36.98 34.29 20.74 37.11 20.74 31.22 36.98 28.4 36.98 28.4 36.98"/>
  <polygon class="cls-1" points="36.93 36.98 34.1 36.98 40 20.74 42.82 20.74 36.93 36.98 36.93 36.98"/>
  <polygon class="cls-3" points="53.61 9.01 177.78 9.01 177.78 50.4 53.61 50.4 53.61 9.01 53.61 9.01"/>
  <path class="cls-1" d="m78.76,33.78c0,2.57-.82,3.26-3.39,3.26h-7.9c-2.57,0-3.39-.69-3.39-3.26v-.38h2.76v1.07h9.16v-3.2h-8.53c-2.57,0-3.39-.63-3.39-3.26v-1.51c0-2.63.82-3.26,3.39-3.26h7.71c2.45,0,3.39.63,3.39,3.01v.31h-2.76v-.94h-8.97v3.01h8.53c2.57,0,3.39.63,3.39,3.26v1.88h0Z"/>
  <path class="cls-1" d="m102.71,37.04h-2.95v-8.53c0-.25,0-.75.13-1.51-.31.63-.56,1.13-.82,1.44l-4.39,5.9h-2.13l-4.39-5.9c-.31-.44-.63-.88-.82-1.44.06.56.06,1,.06,1.51v8.53h-2.57v-13.8h2.57l6.46,8.34,6.27-8.34h2.57v13.8h0Z"/>
  <polygon class="cls-1" points="122.85 37.04 108.73 37.04 108.73 23.25 122.72 23.25 122.72 25.57 111.93 25.57 111.93 28.64 118.2 28.64 118.2 31.02 111.93 31.02 111.93 34.47 122.85 34.47 122.85 37.04 122.85 37.04"/>
  <path class="cls-1" d="m142.04,37.04l-1.82-3.51h-8.15l-1.88,3.51h-3.2l7.71-13.8h3.07l7.84,13.8h-3.57Zm-8.65-6.02h5.46l-2.7-5.14-2.76,5.14h0Z"/>
  <path class="cls-1" d="m163.42,35.98c-1.32.82-3.2,1.07-5.58,1.07h-8.03v-13.8h8.84c5.08,0,7.78,2.51,7.78,6.84,0,2.57-1.13,4.7-3.01,5.9h0Zm-4.77-10.29h-5.64v8.78h4.14c4.01,0,6.02-1.07,6.02-4.45,0-2.82-1.51-4.33-4.52-4.33h0Z"/>
</svg>