<?xml version="1.0" encoding="UTF-8"?>
<svg id="Layer_1" data-name="Layer 1" xmlns="http://www.w3.org/2000/svg" viewBox="0 0 190 70">
  <defs>
    <style>
      .cls-1, .cls-2 {
        fill: #999;
      }

      .cls-3, .cls-4 {
        fill: #ccc;
      }

      .cls-2, .cls-4 {
        fill-rule: evenodd;
      }
    </style>
  </defs>
  <polygon class="cls-4" points="37.8 53.65 .5 53.65 .5 16.35 37.8 16.35 37.8 53.65"/>
  <path class="cls-2" d="m11.97,19.75s.03-.01.05-.02c2.88-1.39,6.18.45,6.99,2.71.76-2.09,3.55-3.84,6.36-2.97.02,0,.03.01.05.02,3.25,1.05,4.31,5.09,2.96,7.21,2.27-.26,5.15,1.73,5.39,4.78,0,.02,0,.03,0,.06.23,3.33-2.98,5.78-5.43,5.46,1.37,1.65,1.65,4.69-.22,6.75l-.02.02c-2.63,2.81-6.46,1.82-8.37-1.11l.05,7.89h1.35s0,1.48,0,1.48h-4.31v-1.48s1.44,0,1.44,0v-8.05c-.04.2-.11.42-.21.64-1.08,2.41-5.63,3.35-8.04.62-.02-.02-.02-.02-.04-.04-1.8-2.07-1.51-5.05-.15-6.69-2.4.09-5.34-2.3-5.11-5.49,0-.02,0-.03,0-.06.22-2.84,2.72-4.75,4.9-4.8-1.2-1.99-.46-5.54,2.35-6.93h0Zm6.3,21.69v-14.2h1.53v8.2c.21,1.29,2-.37,3.02-1.64.07-.09,1.26-1.66,1.65-2.37l.32.15c-.72,1.63-2.41,5.99-5.01,6.79.2,1.31.79,3.16,1.75,4.15,1.42,1.46,3.42,1.63,4.97.77.32-.18.49-.34.71-.64,1.42-1.94.95-4.53-.83-5.48-.44-.12-1.61-.31-2.13,1.83-.17.1-.26.02-.29-.1-.33-1.45.27-2.41,1.41-2.9,0,0,.49-.16,1.03-.13-.71-1.06-.24-2.47.86-3.19.37-.24.42,0,.4.07-1.12,1.83-.28,2.41.3,2.77,1.62.9,4.28-.98,4.48-3.63-.28-2.63-2.59-4.33-4.63-3.63-.39.23-1.33.96-.13,2.8-.05.19-.17.21-.27.14-1.29-.75-1.57-1.85-1.14-3.02,0,0,.03-.07.09-.17-1.11.04-2.06-.86-2.3-2.02-.09-.43.15-.39.21-.35,1.28,1.72,2.13,1.16,2.68.75,1.44-1.17.68-4.34-1.7-5.51-2.55-.72-4.98.79-5.1,2.95.07.45.39,1.6,2.55,1.16.16.12.13.23.03.31-1.18.91-2.3.77-3.23-.06,0,0-.27-.3-.48-.72-.55,1.49-2.31,1.72-3.53.87-.36-.25-.16-.39-.08-.4,2.12.36,2.34-.63,2.46-1.31.24-1.84-2.5-3.61-5.03-2.81-2.34,1.24-3.06,4.01-1.65,5.65.36.28,1.38.88,2.65-.92.2-.03.25.08.23.2-.2,1.3-.93,1.98-1.96,2.14.09.14.14.24.14.24.43,1.17.14,2.27-1.14,3.02-.11.06-.22.05-.27-.14,1.21-1.85.26-2.57-.13-2.8-2.04-.7-4.35,1-4.63,3.63.2,2.65,2.86,4.53,4.48,3.63.58-.36,1.42-.94.3-2.77-.02-.08.04-.31.4-.07,1.1.72,1.57,2.15.85,3.2.44.03.79.15.79.15,1.13.52,1.72,1.49,1.35,2.93-.03.12-.12.2-.29.1-.47-2.15-1.65-1.99-2.09-1.87-1.92.97-2.33,3.81-.65,5.85,2.03,1.71,5.24,1.13,5.73-.66.15-.67.33-1.67-1.77-2.15-.07-.04-.2-.24.23-.33,1.26-.27,2.57.35,2.86,1.55h0Z"/>
  <path class="cls-4" d="m110.74,31.34l-.02,4.28h-5.15v-4.23s2.62-1.8,2.62-1.8l2.55,1.75h0Zm-13.34,1.48l-3.83,2.69v-5.61l3.83,2.92h0Zm-25.29-1.45l.02,4.2h-5.15s.01-4.2.01-4.2l2.56-1.7,2.55,1.7h0Zm-18.81,1.03v-4.94h5.07l-5.07,4.94h0Zm59.69-4.97l1.94-2.63-67.27.05-2.1,2.61h5.19v18l2.57-1.92-.05-7.08h5.1s0,8.96,0,8.96l2.59-1.86.02-7.93-1.66-1.79h-4.02s6.91-6.38,6.91-6.38l6.07-.02-3.81,3.05v14.96s2.48-1.97,2.48-1.97l.02-5.21h5.18l.03,7.14,2.53-1.91v-13l-3.8-3.06,7.26.02v15.03l6.48,2.92,3.77-2.36v-3.03s-3.83,2.7-3.83,2.7l-3.87-1.82.03-13.47h9.93l-2.76,1.73,1.18,1.87,1.87-1.13v15.53l2.6-1.96v-5.13l7.5-5.52-6.65-5.36h12.54s-4,2.98-4,2.98l.02,14.95,2.61-1.96v-5.14h5.15v7.13l2.55-2.09v-12.89s-3.69-2.99-3.69-2.99l3.39-.02h0Z"/>
  <polygon class="cls-4" points="119.23 36.09 118.15 38.24 122.28 38.24 123.23 36.09 119.23 36.09"/>
  <path class="cls-4" d="m172.97,42.18l-2.55-1.92v-12.83h5.07s0,12.81,0,12.81l-2.52,1.95h0Zm-13.19-9.53l-3.95,2.85v-5.83s3.95,2.98,3.95,2.98h0Zm-13.37-1.34l.04,4.28h-5.16s-.06-4.27-.06-4.27l2.65-1.69,2.53,1.68h0Zm-16.64-1.68l-2.73-2.18h5.47s-2.74,2.18-2.74,2.18h0Zm-6.51-4.85l-2.38,2.65h4.35l-2.75,2.7,1.27,1.29,2.59-2.38,2.05,1.84v14.51l2.62-1.94v-12.54s2.38-1.82,2.38-1.82l2.3,2.41,1.35-1.22-2.65-2.83h8.16s-3.9,3.06-3.9,3.06v14.9s2.54-1.95,2.54-1.95l.07-5.19h5.14l.02,7.22,2.5-2,.05-13-3.72-3.07,8.01.02-2.63,1.68.95,1.31,1.7-1.01v15.99s2.56-2.04,2.56-2.04l.03-5.08h5.02v7.19l2.59-2.08v-6.94h-4.61s5.3-3.87,5.3-3.87l-7.24-5.15h10.87s-2.79,1.6-2.79,1.6l.58,1.38,2.21-1.06v12.16s5.18,3.92,5.18,3.92l5.06-3.96v-14.06h3.5s2.51-2.61,2.51-2.61h-60.81Z"/>
  <path class="cls-3" d="m186.94,24.78c1.39,0,2.56-1.22,2.56-2.61s-1.16-2.61-2.56-2.61-2.61,1.16-2.61,2.61,1.16,2.61,2.61,2.61"/>
  <path class="cls-1" d="m185.73,23.73v-3.13h1.39c.28,0,.49.03.64.08.14.06.26.16.35.3.09.14.13.3.13.47,0,.22-.07.41-.22.56-.14.15-.36.25-.66.29.11.05.19.1.25.16.12.11.24.25.34.42l.54.85h-.52l-.41-.65c-.12-.19-.22-.33-.3-.43-.08-.1-.15-.17-.21-.21-.06-.04-.12-.07-.19-.08-.05,0-.12-.01-.23-.01h-.48v1.39h-.42Zm.42-1.75h.89c.19,0,.34-.02.44-.06.11-.04.19-.1.24-.19.06-.09.08-.18.08-.28,0-.15-.05-.27-.16-.37s-.28-.14-.51-.14h-.99v1.04h0Z"/>
</svg>