<?xml version="1.0" encoding="UTF-8"?>
<svg id="Layer_1" data-name="Layer 1" xmlns="http://www.w3.org/2000/svg" viewBox="0 0 190 70">
  <defs>
    <style>
      .cls-1 {
        fill: #e6e6e6;
      }

      .cls-2 {
        fill: #ccc;
        fill-rule: evenodd;
      }
    </style>
  </defs>
  <g id="a7fde409-d072-4522-9f1e-fac797bdf7b0">
    <g id="f339cddd-c290-4f8c-8251-f9076ebc929f">
      <path class="cls-2" d="m21.48,7.39c4.62.56,10.77,3.31,14.56,7.55-4.97-6.16-11.7-10.31-18.18-10.55C7.34,4,1.46,14.09,4.74,26.89c.46,1.78,1.06,3.53,1.81,5.21,1.12,2.75,2.59,5.35,4.36,7.73,1.23,1.66,2.58,3.23,4.04,4.69-1.02-1.08-1.97-2.22-2.86-3.41-8.59-11.6-7.5-24.43,2.87-28.15,4.52-1.62,10.38-.92,15.82.9-5.15-3.59-11.37-5.83-18.28-3.49-2.41.79-4.46,2.39-5.81,4.54,2.16-5.44,6.96-8.47,14.79-7.53"/>
      <path class="cls-1" d="m44.14,31.38h-.08c6.13,10.14,7.5,20.52,3.45,26.09-5.49,7.54-19.8,3.38-31.96-9.29C3.68,35.8-1.76,19.85,3.13,12.09c-.11.15-.23.29-.33.43-5.87,8.07-.08,25.58,12.92,39.15,13,13.57,28.3,18,34.16,9.94,4.64-6.37,1.99-18.66-5.75-30.21"/>
      <path class="cls-1" d="m41.27,26.38c1.53,1.87,2.02,4.03,1.06,4.82s-2.99-.08-4.53-1.95-2.03-4.02-1.07-4.81,2.99.07,4.54,1.94"/>
      <path class="cls-1" d="m65.41,29.8c.22.01.44.08.63.21.18.13.38.26.56.38.26-.36.5-.75.71-1.15,0-.25-.13-.49-.33-.64-.19-.17-.44-.27-.7-.28-.78.02-1.51.35-2.04.92-.59.5-.94,1.22-.96,2,0,.31.2.53.6.66.31.08.64.16.95.25-.33.18-.64.41-.91.67-.28.23-.46.57-.49.94v.11c1.08-1,2.49-1.57,3.96-1.59.36-.51.69-.98.97-1.43-2.15,0-3.41-.21-3.79-.62.24-.21.53-.36.85-.41"/>
      <path class="cls-1" d="m77.59,29.77c0-.56-.12-1.11-.34-1.62-.19-.5-.5-.95-.9-1.3l-.96,1.7c.26.25.48.54.65.87.19.29.31.63.36.97,0,.03,0,.05-.02.05h-3.67c-.32,0-.5-.09-.53-.26-.2-.95-.33-1.92-.38-2.89-.06-1-.13-1.99-.19-3-.22.24-.43.49-.61.76-.21.22-.38.48-.49.77l.57,6.44h6.05c.33,0,.49-.83.49-2.48"/>
      <path class="cls-1" d="m75.65,33.69c-.2-.22-.44-.41-.7-.55-.07,0-.29.18-.67.55s-.57.58-.57.65.19.25.56.54c.2.2.44.35.7.46.86-.48,1.28-.81,1.28-.99,0-.08-.2-.3-.6-.66"/>
      <path class="cls-1" d="m87.59,29.67c-.35.13-.7.27-1.05.41h-.11c.45-.65,1-1.22,1.62-1.71.04.12.06.25.05.38.03.38-.17.74-.51.92m.51,3.15h-.38c-.3,0-.59-.1-.82-.28-.25-.17-.45-.41-.57-.69.34,0,.69.08,1,.22.32.12.59.34.77.64v.11m13.2-7.22c-.52-.32-.82-.54-.87-.69-.06-.18-.09-.36-.1-.55l-.1-.08c-.47.58-.85,1.23-1.15,1.92.15.19.31.36.5.51.18.57.3,1.15.36,1.74.11.61.18,1.22.21,1.83,0,.06-.02.11-.05.16h-1.23c-.15.01-.29.01-.44,0-.14,0-.26-.12-.26-.26-.05-.38-.13-1.38-.23-2.95-.04-.99-.17-1.97-.38-2.94l-.07-.05-1.27,1.78.66,4.44h-2.01c-.48,0-1.15-.46-1.97-1.39-.58-.67-1.15-1.34-1.74-2l3.74-.77c.2-.62.36-1.2.47-1.77-.13,0-1.77.31-4.92.99-.31.79-.53,1.61-.68,2.45l2.57,2.48h-4.1c.19-.43.38-.86.55-1.29.19-.41.3-.86.34-1.31v-.94c-.51,0-1.07.29-1.71.86-.51.43-.95.95-1.29,1.53-.23.51-.38.89-.49,1.15h-.86c-.61.03-1.2-.23-1.58-.71-.33-.5-.66-1-.98-1.49-.19.26-.37.54-.54.82-.16.24-.29.49-.38.77.13.22.28.44.43.65.24.25.41.56.48.9,0,.38-.46.88-1.38,1.49s-1.59.91-2.06.91c-.37-.02-.73-.13-1.05-.33-.19-.09-.38-.21-.54-.34-.05,0-.08,0-.08.03v.21c.47.45,1.01.81,1.6,1.07.54.32,1.15.52,1.77.59.61,0,1.15-.36,1.65-1.07.35-.61.69-1.21,1.02-1.8l.09-.1c.2.11.41.18.64.2h1.21s.18.21.38.61c.2.41.44.79.71,1.15.23.34.6.56,1.01.6.91,0,1.6-.77,2.08-2.34h3.13l.67-1.11,1.19,1.11h2.07l.58-1.09c0,.21.02.42.03.63.05.31.13.46.26.46h3.36c.1-.04.18-.09.26-.16.15-.31.25-.65.29-.99.1-.35.15-.71.15-1.08l-.19-2.22,1.28-1.66c-.36-.17-.72-.36-1.05-.57"/>
      <path class="cls-1" d="m107.82,25.26c.41.3.87.53,1.35.69.07,0,.23-.16.51-.48.17-.19.34-.4.48-.62l-1.38-.74c-.59.46-.88.69-.87.69-.2,0-.61-.23-1.24-.69-.55.6-.88.97-.97,1.1.42.29.88.53,1.36.7.38-.36.65-.58.77-.65"/>
      <path class="cls-1" d="m115.23,33.75c-.2.22-.34.33-.42.33-.42-.16-.81-.4-1.15-.69-.32.35-.62.73-.89,1.12.39.31.81.58,1.25.8.33-.34.58-.59.74-.74l1.24.74c.37-.33.69-.72.94-1.15l-1.29-.8c-.15.11-.29.24-.41.38"/>
      <path class="cls-1" d="m108.45,29.53c.19-.17.4-.31.62-.42.27-.25.52-.52.74-.81l.3,1.45-1.67-.21m7.04-.93c.43.56.77,1.18,1.02,1.85h-4.21c-.43,0-.69-.13-.77-.38-.23-.76-.41-1.53-.52-2.32-.21-1.26-.38-2.09-.46-2.47l-.08-.05-.98,1.7c.03.17.09.34.16.49-.6.33-1.2.68-1.79,1.02-.38.23-.7.55-.93.94-.29.64-.51,1.3-.65,1.99l2.98.53c.14.03.32-.15.56-.55.13-.27.3-.53.49-.77.11.35.22.7.33,1.05.11.36.44.61.81.62h5.9c.18-.84.31-1.7.36-2.56,0-.79-.42-1.68-1.28-2.68l-.94,1.61"/>
      <path class="cls-1" d="m120.6,26.6l-.57,1.92c.47.14.89.4,1.21.77.48.46.73.84.73,1.15,0,.02,0,.04,0,.07h-3.23l-.16,1.8h3.97c.36,0,.54-.62.54-1.89,0-1.76-.83-3.02-2.49-3.77"/>
      <path class="cls-1" d="m127.29,30.45c-.4.04-.78-.15-.99-.49.01-.02.01-.04,0-.07,0-.08.06-.2.21-.34s.25-.23.33-.23c.16,0,.33.14.48.41.11.2.21.4.3.62-.1.06-.21.09-.33.09m18.74-4.86c-.53-.32-.82-.54-.88-.69-.06-.18-.09-.36-.09-.55l-.11-.08c-.47.58-.86,1.23-1.15,1.92.14.19.31.36.51.51.17.57.29,1.15.36,1.74.1.61.17,1.22.2,1.83,0,.06-.01.11-.03.16h-1.59c-.51,0-.77-.34-.77-1.03.01-.08.02-.16.02-.23,0-.08,0-.16-.02-.25,0-.23-.02-.47-.06-.69-.24.19-.46.41-.64.67-.21.21-.36.48-.44.77,0,.1.02.19.04.29.03.09.04.19.05.29,0,.07-.04.14-.08.2-.42-.04-.83-.04-1.25,0,.18-.71.27-1.43.27-2.16,0-.06-.02-.13-.04-.19-.26.26-.5.54-.71.84-.23.26-.39.58-.48.92.02.21-.03.42-.14.6h-1.46c.24-.6.41-1.23.49-1.87l-.03-.41c-.28.17-.53.39-.72.65-.32.36-.48.62-.48.77,0,.3-.07.6-.21.86h-2.42c.12-.19.24-.38.34-.57.12-.17.19-.38.21-.59-.02-.49-.29-.93-.72-1.18-.4-.28-.88-.43-1.37-.44-.62-.05-1.23.15-1.69.57-.35.49-.64,1.01-.86,1.57.36-.04.56-.06.59-.06.52,0,1.01.27,1.29.71h-3.06c-.29-1.89-.81-2.83-1.56-2.83-.48,0-.96.46-1.44,1.38-.36.61-.58,1.29-.64,2,0,.49.35.91.83,1,.08.03.54.13,1.42.28-.43.41-.92.76-1.44,1.03-.52.3-1.1.48-1.69.51-.24-.02-.47-.06-.7-.13-.24-.07-.48-.11-.73-.13-.05,0-.1.02-.15.05v.16c.38.39.85.67,1.36.84.51.21,1.05.33,1.6.34.56,0,1.15-.32,1.74-.97.47-.51.85-1.1,1.13-1.74h3.5c.24-.36.42-.64.53-.83.22.38.38.65.47.83h3.01c.13-.02.25-.09.33-.2.08-.09.17-.18.26-.25.08.14.13.3.15.46h1.95s.08-.04.18-.15.16-.15.2-.15.18.1.33.29h2.2l.33-.46c.1.2.18.36.21.46h3c.1-.04.19-.09.27-.16.14-.32.23-.65.29-.99.1-.34.15-.69.15-1.05l-.18-2.22,1.28-1.66c-.36-.17-.71-.36-1.05-.57"/>
      <path class="cls-1" d="m148.43,27.09l.77,5.3c.65-.79.98-1.78.95-2.8-.06-1.56-.21-3.11-.47-4.65-.51.66-.92,1.38-1.23,2.16"/>
      <path class="cls-1" d="m156.37,25.26c.41.3.87.53,1.35.69.06,0,.24-.16.51-.48.17-.19.33-.4.47-.62l-1.38-.74c-.59.46-.88.69-.87.69-.19,0-.6-.23-1.24-.69-.55.6-.87.97-.97,1.1.43.29.9.53,1.39.7.24-.23.5-.45.77-.65"/>
      <path class="cls-1" d="m156.99,29.53c.19-.17.4-.31.63-.42.27-.24.52-.52.74-.81l.3,1.45-1.67-.21m8.04-.95c-.65-.51-1.29-1.02-1.92-1.53,1.56-.48,2.73-.83,3.5-1.06.2-.66.36-1.26.48-1.8l-5.2,1.53c-.08.36-.18.72-.26,1.07-.11.35-.17.71-.18,1.07,0,.1.2.35.59.77.4.41.65.62.77.62.13,0,.24-.08.28-.2l1.84,1.42h-4.11c-.43,0-.69-.13-.77-.38-.22-.77-.4-1.55-.52-2.34-.21-1.26-.36-2.09-.46-2.47l-.08-.05-.99,1.7c.04.17.09.33.16.49-.6.33-1.2.68-1.8,1.02-.38.23-.69.56-.92.94-.29.64-.51,1.3-.65,1.99l2.98.53c.15.03.33-.15.57-.55.13-.28.3-.53.49-.77.11.35.21.7.33,1.05.11.36.43.61.8.62h5.98c.22-.63.4-1.28.53-1.94,0-.33-.48-.91-1.43-1.73"/>
      <path class="cls-1" d="m178.31,26.66l1.4.71c.43-.25.79-.63,1.01-1.08l-1.41-.79c-.15.14-.29.28-.45.41-.13.13-.27.24-.43.33-.18,0-.61-.24-1.25-.71-.38.33-.73.69-1.06,1.07.44.3.92.54,1.42.73.24-.24.5-.46.77-.67"/>
      <path class="cls-1" d="m177.76,25.37c.16.15.33.28.53.38.1,0,.28-.11.54-.35.17-.14.32-.3.46-.47-.29-.34-.63-.64-1-.89-.65.49-.96.8-.96.91,0,.04.13.19.43.44"/>
      <path class="cls-1" d="m185.03,25.6c-.52-.32-.82-.54-.87-.69-.06-.18-.1-.36-.1-.55l-.1-.08c-.48.58-.87,1.23-1.17,1.92.15.19.31.36.5.51.17.57.29,1.15.36,1.74.11.61.18,1.22.21,1.83,0,.06-.02.12-.05.16h-1.57c-.51,0-.77-.34-.77-1.03.02-.08.02-.16.02-.23,0-.08,0-.16-.02-.25,0-.23-.01-.47-.06-.69-.24.19-.46.41-.63.67-.21.21-.37.48-.44.77,0,.1.02.19.05.29.03.1.04.19.05.29,0,.07-.03.14-.08.2-.42-.04-.83-.04-1.25,0,.18-.7.27-1.43.28-2.15,0-.06-.02-.12-.05-.18-.26.25-.5.53-.71.82-.23.26-.4.57-.49.91.02.21-.03.42-.15.6h-1.45c.24-.6.41-1.23.49-1.87l-.03-.42c-.28.16-.53.38-.72.65-.33.36-.48.62-.48.77,0,.3-.07.6-.21.86h-1.61c-.61.03-1.2-.23-1.58-.71-.33-.5-.65-1-.98-1.49-.19.26-.37.54-.53.82-.16.24-.29.49-.38.77.13.23.28.45.44.66.24.25.4.56.48.9,0,.38-.46.88-1.37,1.49s-1.59.91-2.07.91c-.37-.02-.73-.13-1.05-.33-.2-.09-.38-.2-.55-.34-.05,0-.08.01-.08.03v.21c.47.45,1.01.81,1.6,1.07.55.32,1.15.52,1.78.59.6,0,1.15-.36,1.66-1.07.34-.61.68-1.21,1.02-1.8l.08-.1c.2.11.41.18.64.2h2.07c.13-.02.25-.09.33-.2.08-.09.16-.18.26-.25.08.14.13.29.15.46h1.95s.09-.04.18-.15.2-.15.2-.15c0,0,.19.1.33.29h2.2c.15-.21.26-.36.33-.46l.22.46h2.96c.1-.04.19-.09.26-.16.14-.31.24-.65.29-.99.1-.34.15-.69.15-1.05l-.2-2.22,1.29-1.66c-.36-.17-.72-.36-1.05-.57"/>
      <path class="cls-1" d="m188.66,24.94c-.51.66-.92,1.38-1.22,2.16l.74,5.3c.66-.78,1-1.78.97-2.8-.06-1.56-.22-3.11-.48-4.65"/>
      <path class="cls-1" d="m67.66,44.72c-.5-.24-1.03-.41-1.57-.52-.47-.08-.92-.24-1.34-.48-.14-.11-.22-.27-.21-.44,0-.18.08-.35.23-.45.29-.19.64-.28.99-.26.32-.03.65.06.92.24.23.21.37.49.41.8l1.45-.05c0-.61-.26-1.2-.72-1.6-.59-.44-1.32-.66-2.05-.61-.48-.01-.96.08-1.41.26-.36.15-.68.4-.89.73-.21.3-.32.67-.32,1.03,0,.56.24,1.09.67,1.46.49.36,1.05.6,1.65.71.61.15.99.25,1.15.31.2.06.38.16.52.31.1.12.15.28.15.43,0,.27-.13.53-.36.69-.65.41-1.48.4-2.11-.03-.29-.28-.47-.65-.52-1.05l-1.41.14c.04.71.35,1.37.87,1.85.6.46,1.35.68,2.1.64.53.02,1.06-.07,1.56-.26.4-.16.75-.44.98-.8.22-.34.34-.74.34-1.15.01-.4-.09-.8-.29-1.15-.19-.31-.47-.56-.79-.73"/>
      <path class="cls-1" d="m72.85,46.47c0,.23,0,.45-.05.68-.06.18-.17.35-.33.46-.2.16-.45.25-.71.25-.2,0-.4-.07-.54-.21-.14-.13-.22-.31-.22-.5,0-.2.1-.39.27-.49.24-.12.5-.2.77-.24.38-.08.66-.16.83-.21v.28m1.35.51l.03-1.61c.03-.42-.04-.85-.19-1.24-.15-.25-.37-.44-.64-.56-.44-.17-.91-.24-1.38-.22-.54-.03-1.07.11-1.53.38-.37.28-.63.67-.72,1.12l1.24.23c.06-.2.18-.38.34-.52.17-.11.38-.16.58-.15.26-.02.52.04.75.17.14.16.21.37.19.59v.13c-.43.16-.88.27-1.34.34-.38.06-.75.17-1.1.33-.24.12-.45.3-.59.53-.15.24-.22.51-.21.79-.01.42.15.82.46,1.11.35.29.81.44,1.26.41.29,0,.59-.06.86-.17.28-.13.54-.31.77-.52.01.05.03.11.05.16.05.18.1.31.13.38h1.39c-.11-.22-.2-.46-.25-.7-.05-.33-.08-.67-.07-1.01"/>
      <path class="cls-1" d="m78.94,45.68c.03.47,0,.95-.1,1.41-.07.2-.21.37-.38.49-.19.13-.41.2-.64.2-.18,0-.36-.04-.51-.15-.13-.09-.23-.23-.28-.38-.08-.45-.1-.91-.08-1.36v-2.43h-1.37v3.32c-.01.39.05.78.19,1.15.12.28.34.51.61.65.29.16.62.24.95.23.69,0,1.34-.35,1.73-.92v.77h1.28v-5.2h-1.38v2.23"/>
      <path class="cls-1" d="m84.83,47.34c-.2.26-.5.41-.83.41-.39,0-.75-.2-.94-.54-.18-.38-.26-.8-.23-1.22-.03-.42.09-.84.34-1.18.2-.25.5-.39.82-.38.32,0,.63.13.83.38.25.39.36.85.33,1.31.03.43-.09.86-.33,1.22m.31-3.25c-.37-.46-.92-.73-1.51-.73-.6-.02-1.18.24-1.57.69-.46.58-.68,1.3-.63,2.03-.05.73.18,1.46.64,2.03.37.46.94.73,1.53.73.31,0,.61-.08.87-.23.3-.16.57-.39.77-.67v.77h1.28v-7.23h-1.36v2.62"/>
      <rect class="cls-1" x="87.89" y="41.46" width="1.39" height="1.28"/>
      <rect class="cls-1" x="87.89" y="43.46" width="1.39" height="5.23"/>
      <polyline class="cls-1" points="94.96 45.51 98.59 45.51 98.59 44.28 94.96 44.28 94.96 42.69 98.85 42.69 98.85 41.46 93.51 41.46 93.51 48.69 98.99 48.69 98.99 47.47 94.96 47.47 94.96 45.51"/>
      <rect class="cls-1" x="100.22" y="41.46" width="1.39" height="7.23"/>
      <path class="cls-1" d="m104.06,45.65c-.02-.33.08-.66.29-.91.19-.22.47-.35.77-.33.28,0,.54.11.72.32.22.26.33.59.31.93h-2.08m2.79-1.53c-.46-.52-1.14-.8-1.83-.77-.65-.02-1.28.25-1.72.74-.48.57-.72,1.3-.68,2.04-.02.64.16,1.27.52,1.8.48.62,1.24.96,2.02.9.5.02,1-.11,1.43-.38.4-.28.7-.68.84-1.15l-1.38-.23c-.05.22-.16.42-.33.57-.16.12-.35.19-.55.18-.3,0-.6-.12-.8-.34-.23-.27-.35-.61-.33-.97h3.45c.02-1.07-.2-1.86-.65-2.37"/>
      <path class="cls-1" d="m111.53,47.49c-.18.15-.41.23-.64.22-.32.01-.63-.13-.84-.38-.24-.4-.35-.86-.31-1.32-.04-.42.07-.85.3-1.21.21-.24.51-.37.82-.36.48-.04.9.32.94.8l1.36-.24c-.12-.49-.4-.93-.8-1.24-.46-.29-.99-.43-1.53-.41-.69-.04-1.36.23-1.85.72-.48.56-.72,1.29-.68,2.02-.04.73.2,1.45.68,2,.47.49,1.14.75,1.82.72,1.19.11,2.25-.74,2.41-1.92l-1.36-.22c-.04.29-.16.57-.35.79"/>
      <path class="cls-1" d="m116.09,47.67c-.08,0-.17-.02-.24-.07-.06-.04-.1-.1-.12-.18-.03-.25-.05-.51-.03-.77v-2.12h.95v-1.08h-.95v-1.83l-1.39.8v1.03h-.62v1.1h.62v2.3c0,.33,0,.66.05.98.02.19.09.38.2.54.11.15.26.26.43.33.21.09.44.13.67.13.37,0,.74-.06,1.09-.21l-.1-1.08c-.18.07-.37.12-.56.13"/>
      <path class="cls-1" d="m119.41,43.51c-.25.19-.45.42-.6.69v-.74h-1.27v5.24h1.38v-1.61c-.02-.58.01-1.17.11-1.75.05-.22.15-.42.31-.58.14-.1.32-.16.5-.15.23.01.45.09.64.22l.43-1.21c-.27-.17-.59-.26-.91-.26-.21,0-.42.05-.6.16"/>
      <rect class="cls-1" x="121.51" y="43.46" width="1.39" height="5.23"/>
      <rect class="cls-1" x="121.51" y="41.46" width="1.39" height="1.28"/>
      <path class="cls-1" d="m127.22,47.49c-.18.15-.41.23-.64.22-.32.01-.63-.13-.84-.38-.24-.4-.35-.86-.31-1.32-.04-.43.07-.85.31-1.21.2-.24.51-.37.82-.36.23-.01.45.06.62.2.17.15.28.37.31.6l1.36-.24c-.12-.49-.4-.93-.8-1.24-.46-.29-.99-.43-1.53-.41-.69-.04-1.36.23-1.85.72-.9,1.19-.9,2.84,0,4.03.48.5,1.15.76,1.84.72,1.19.11,2.26-.73,2.42-1.92l-1.37-.22c-.03.29-.15.57-.35.79"/>
      <rect class="cls-1" x="129.92" y="43.46" width="1.38" height="5.23"/>
      <rect class="cls-1" x="129.92" y="41.46" width="1.38" height="1.28"/>
      <path class="cls-1" d="m134.58,47.67c-.08,0-.17-.02-.24-.07-.06-.04-.11-.1-.13-.18-.01-.26-.01-.51,0-.77v-2.12h.94v-1.08h-.98v-1.83l-1.39.8v1.03h-.62v1.1h.62v2.3c0,.33.01.66.05.98.03.19.1.37.2.54.11.15.27.26.44.33.21.09.44.13.67.13.37,0,.74-.06,1.08-.21l-.1-1.08c-.18.07-.36.11-.56.13"/>
      <path class="cls-1" d="m138.12,47.18l-1.25-3.72h-1.45l1.97,5.26c-.07.27-.19.51-.36.73-.18.2-.44.31-.7.28-.2,0-.39-.02-.58-.06l.13,1.08c.25.05.51.08.77.08.24,0,.47-.02.7-.08.19-.05.37-.13.53-.24.15-.1.28-.23.38-.38.14-.22.26-.46.34-.7l.34-.93,1.83-5.04h-1.43l-1.22,3.72"/>
      <path class="cls-1" d="m148.52,47.2c-.28.25-.63.38-1,.38-.49.02-.96-.2-1.28-.58-.33-.38-.5-1.03-.5-1.94s.17-1.49.5-1.87c.33-.38.8-.59,1.3-.57.36-.01.72.1,1,.33.28.22.47.53.54.88l1.44-.35c-.12-.5-.38-.95-.74-1.32-.59-.53-1.37-.8-2.16-.77-.92-.04-1.81.33-2.44,1-.62.66-.94,1.6-.94,2.8-.05.98.28,1.94.93,2.68,1.16,1.13,2.95,1.29,4.29.38.55-.45.93-1.08,1.08-1.77l-1.42-.45c-.07.44-.28.85-.6,1.17"/>
      <path class="cls-1" d="m155.05,47.29c-.43.5-1.19.56-1.7.13-.05-.04-.09-.08-.13-.13-.5-.72-.5-1.68,0-2.4.43-.5,1.18-.57,1.68-.14.05.04.1.09.14.14.5.72.5,1.68,0,2.4m-.92-3.94c-.49,0-.97.11-1.39.34-.41.22-.75.57-.97.99-.22.41-.34.87-.34,1.34-.02.53.1,1.06.34,1.53.22.41.57.75.99.95.43.21.9.33,1.38.33.72.02,1.41-.26,1.92-.77,1.03-1.1,1.03-2.82,0-3.92-.52-.51-1.22-.79-1.95-.77"/>
      <path class="cls-1" d="m164.78,43.59c-.3-.16-.64-.24-.98-.23-.3,0-.59.07-.85.21-.29.15-.54.36-.75.62-.14-.26-.35-.47-.61-.62-.27-.14-.57-.21-.87-.21-.64,0-1.24.31-1.63.82v-.72h-1.28v5.24h1.38v-2.55c-.01-.36.02-.73.11-1.08.07-.2.21-.38.38-.5.17-.11.38-.17.58-.17.15,0,.29.03.42.11.11.08.19.2.22.33.07.32.1.65.08.98v2.87h1.39v-2.5c-.02-.36.02-.73.11-1.08.06-.21.2-.39.38-.52.16-.12.35-.18.54-.18.24-.02.47.1.6.29.12.32.16.67.14,1.01v2.99h1.39v-3.32c.02-.36-.03-.73-.15-1.08-.12-.29-.33-.53-.59-.69"/>
      <path class="cls-1" d="m170.23,47.34c-.19.25-.5.39-.81.38-.33,0-.65-.16-.85-.42-.26-.38-.39-.85-.35-1.31-.02-.41.1-.82.34-1.15.21-.25.52-.39.84-.38.32,0,.62.13.82.38.25.36.36.79.33,1.23.04.45-.07.9-.32,1.28m-.44-3.99c-.33,0-.66.08-.95.24-.27.15-.51.37-.68.64v-.77h-1.29v7.23h1.38v-2.64c.21.24.46.44.74.59.25.12.52.18.8.17.59,0,1.16-.27,1.53-.73.46-.58.69-1.3.64-2.04.04-.72-.18-1.43-.64-1.99-.38-.46-.94-.72-1.53-.72"/>
      <path class="cls-1" d="m175.93,46.47c0,.23-.01.45-.06.68-.05.18-.17.35-.33.46-.2.16-.45.25-.71.25-.2,0-.4-.07-.54-.21-.14-.13-.22-.31-.22-.5,0-.2.1-.39.26-.49.24-.12.5-.2.77-.24.38-.08.65-.16.84-.21v.28m1.34.51v-1.61c.03-.42-.03-.85-.18-1.24-.15-.25-.38-.44-.64-.56-.44-.17-.91-.24-1.38-.22-.54-.03-1.07.11-1.53.38-.37.28-.62.67-.73,1.12l1.24.23c.06-.2.17-.38.33-.52.18-.1.38-.15.58-.15.26-.03.52.03.74.17.15.15.23.37.2.59v.13c-.44.16-.89.27-1.34.34-.38.06-.74.17-1.09.33-.25.11-.45.3-.59.53-.37.62-.27,1.41.25,1.92.35.3.8.46,1.26.44.3,0,.59-.05.86-.17.28-.13.54-.31.77-.52,0,.03.03.08.05.16.04.13.08.26.14.38h1.37c-.11-.22-.19-.46-.24-.7-.06-.33-.08-.67-.07-1.01"/>
      <path class="cls-1" d="m183.05,43.93c-.16-.18-.36-.32-.58-.41-.26-.11-.54-.17-.83-.16-.68,0-1.32.32-1.72.87v-.77h-1.28v5.24h1.38v-2.37c-.02-.4.02-.81.11-1.2.06-.21.2-.4.38-.52.19-.13.41-.2.64-.2.35-.02.66.2.77.53.07.36.1.73.08,1.1v2.68h1.38v-3.26c0-.31-.02-.62-.08-.93-.05-.21-.14-.41-.27-.59"/>
      <path class="cls-1" d="m188.07,43.46l-1.22,3.72-1.24-3.72h-1.46l1.97,5.26c-.06.26-.18.51-.35.73-.18.2-.44.31-.7.28-.2,0-.39-.02-.58-.06l.12,1.08c.25.05.51.08.77.08.24,0,.47-.02.7-.08.19-.05.36-.13.52-.24.15-.1.28-.23.38-.38.14-.22.26-.46.35-.7l.34-.93,1.84-5.03h-1.44"/>
    </g>
  </g>
</svg>