<?xml version="1.0" encoding="UTF-8"?>
<svg id="Layer_1" data-name="Layer 1" xmlns="http://www.w3.org/2000/svg" xmlns:xlink="http://www.w3.org/1999/xlink" viewBox="0 0 190 70">
  <defs>
    <style>
      .cls-1 {
        clip-path: url(#clippath-2);
      }

      .cls-2 {
        clip-path: url(#clippath-1);
      }

      .cls-3 {
        fill: #e6e6e6;
      }

      .cls-4 {
        clip-path: url(#clippath);
      }

      .cls-5 {
        fill: #ccc;
      }

      .cls-6 {
        fill: #f2f2f2;
      }
    </style>
    <clipPath id="clippath">
      <polygon class="cls-6" points="148.7 25.91 163.41 34.35 163.41 17.41 148.7 25.91"/>
    </clipPath>
    <clipPath id="clippath-1">
      <polygon class="cls-5" points="148.7 25.91 163.41 17.41 148.7 8.97 148.7 25.91"/>
    </clipPath>
    <clipPath id="clippath-2">
      <polygon class="cls-5" points="148.7 42.85 163.41 34.35 148.7 25.91 148.7 42.85"/>
    </clipPath>
  </defs>
  <g id="g14">
    <path id="path16" class="cls-3" d="m134.07,34.36l14.65,8.44v-16.94l-14.65,8.5Z"/>
  </g>
  <g id="g18">
    <path id="path20" class="cls-6" d="m134.07.5v16.94l14.65-8.5-14.65-8.44Z"/>
  </g>
  <g id="g22">
    <path id="path24" class="cls-3" d="m148.73,8.95l-14.65,8.5,14.65,8.44V8.95Z"/>
  </g>
  <g id="g26">
    <g>
      <polygon class="cls-6" points="148.7 25.91 163.41 34.35 163.41 17.41 148.7 25.91"/>
      <g class="cls-4">
        <g id="g28">
          <g id="g34">
            <g id="g36">
              <path id="path50" class="cls-6" d="m148.7,25.91l14.65,8.44v-16.94l-14.65,8.5Z"/>
            </g>
          </g>
        </g>
      </g>
    </g>
  </g>
  <g id="g52">
    <g>
      <polygon class="cls-5" points="148.7 25.91 163.41 17.41 148.7 8.97 148.7 25.91"/>
      <g class="cls-2">
        <g id="g54">
          <g id="g60">
            <g id="g62">
              <path id="path74" class="cls-5" d="m148.7,25.91l14.65-8.44-14.65-8.5v16.94Z"/>
            </g>
          </g>
        </g>
      </g>
    </g>
  </g>
  <g id="g76">
    <g>
      <polygon class="cls-5" points="148.7 42.85 163.41 34.35 148.7 25.91 148.7 42.85"/>
      <g class="cls-1">
        <g id="g78">
          <g id="g84">
            <g id="g86">
              <path id="path98" class="cls-5" d="m148.7,42.85l14.65-8.44-14.65-8.44v16.87Z"/>
            </g>
          </g>
        </g>
      </g>
    </g>
  </g>
  <g id="g100">
    <g id="g102">
      <g id="g4224">
        <g id="g108">
          <path id="path110" class="cls-3" d="m51.24,57.85c.2-2.63,2.02-4.45,4.32-4.45,2.56,0,4.05,1.82,4.25,4.45h-8.57Zm4.25-8.64c-5.94,0-9.58,4.32-9.58,10.19.07,6.41,4.59,10.06,9.92,10.06,2.5,0,4.79-.47,6.48-1.42.54-.34.61-.81.61-1.42v-2.63c-1.75.81-3.64,1.35-5.4,1.35-2.9,0-5.6-1.28-6.14-4.25h13.63c.07-.61.07-.94.07-1.35-.07-5.87-3.17-10.53-9.58-10.53"/>
        </g>
        <g id="g112">
          <path id="path114" class="cls-3" d="m105.39,65.13c-3.04,0-5.47-2.63-5.47-5.87s2.29-5.6,5.4-5.6,5.47,2.43,5.47,5.8-2.23,5.67-5.4,5.67m0-15.93c-5.94,0-10.46,4.45-10.46,10.19s4.45,10.06,10.39,10.06,10.66-4.39,10.66-10.19c-.07-5.74-4.66-10.06-10.6-10.06"/>
        </g>
        <g id="g116">
          <path id="path118" class="cls-3" d="m141.42,49.24c-2.56,0-4.86,1.15-6.14,2.83-1.35-1.69-3.58-2.83-6.21-2.83-1.96,0-4.12.94-5.06,2.36v-2.43c-.88.07-2.97.34-4.18,1.55-.54.54-.67,1.08-.67,1.82v16.54h4.93v-12.49c0-1.69,1.69-2.97,3.78-2.97.94,0,1.82.2,2.43.61.74.54,1.28,1.28,1.28,2.56v12.22h4.86v-12.49c0-1.69,1.69-2.97,3.78-2.97.94,0,1.82.2,2.43.61.81.54,1.28,1.28,1.28,2.56v12.22h4.99v-13.97c-.2-3.17-3.37-5.74-7.49-5.74"/>
        </g>
        <g id="g120">
          <path id="path122" class="cls-3" d="m86.05,53.98c1.82,0,3.17.61,4.66,1.82l3.17-3.37c-2.02-2.02-4.32-3.17-7.76-3.17-6.01,0-10.33,4.59-10.33,9.99,0,6.61,4.66,10.26,10.06,10.26,2.5,0,4.79-.47,6.41-1.42.54-.34.61-.81.61-1.35v-2.7c-1.75.88-3.64,1.35-5.4,1.35-3.51,0-6.28-1.82-6.28-6.01.07-3.1,2.09-5.4,4.86-5.4"/>
        </g>
        <g id="g124">
          <path id="path126" class="cls-3" d="m67.85,46.12v22.88h4.99v-26.79c-.54.13-2.97.74-4.25,2.02-.54.54-.74,1.28-.74,1.89"/>
        </g>
        <g id="g128">
          <path id="path130" class="cls-3" d="m150.63,49.74h-.88v-.34h2.16v.34h-.88v2.43h-.4v-2.43Z"/>
        </g>
        <g id="g132">
          <path id="path134" class="cls-3" d="m152.28,49.4h.67l.88,2.29.88-2.29h.67v2.77h-.4v-2.43h0l-1.01,2.43h-.34l-.94-2.43h0v2.43h-.4v-2.77Z"/>
        </g>
        <g id="g136">
          <path id="path138" class="cls-3" d="m36.78,53.98c1.82,0,3.17.54,4.66,1.82l3.17-3.37c-2.02-2.02-4.32-3.17-7.76-3.17-6.01,0-10.26,4.59-10.26,9.99,0,6.61,4.66,10.26,10.06,10.26,2.5,0,4.79-.47,6.41-1.42.54-.34.61-.81.61-1.42v-2.7c-1.75.88-3.64,1.35-5.4,1.35-3.51,0-6.28-1.82-6.28-6.01,0-3.04,2.02-5.33,4.79-5.33"/>
        </g>
      </g>
    </g>
  </g>
</svg>