<?xml version="1.0" encoding="UTF-8"?>
<svg id="Layer_1" data-name="Layer 1" xmlns="http://www.w3.org/2000/svg" viewBox="0 0 190 70">
  <defs>
    <style>
      .cls-1 {
        fill: #f2f2f2;
      }
    </style>
  </defs>
  <path class="cls-1" d="m57.52,25.98c-1.35-6.42-3.98-9.64-7.88-9.64-3.01,0-4.82,2.07-4.82,5.02,0,4.02,3.73,5.31,6.95,6.45,5.08,1.82,9.21,3.99,9.21,9.91s-4.01,10.18-9.77,10.18c-2.95-.12-5.78-1.22-8.03-3.14l-1.07,2.33h-1.77v-11.95h1.87c.45,2.43,1.31,4.76,2.54,6.91,1.61,2.5,3.7,3.75,6.32,3.75,3.53,0,5.53-2.4,5.53-5.82,0-4.48-3.45-5.76-7.18-7.02-5-1.68-8.83-3.83-8.83-9.59,0-5.22,3.59-9.09,8.89-9.09,2.63.08,5.16,1.04,7.18,2.73l.86-2h1.73v10.98h-1.7Zm14.15,21.4l-6.71-17.56c-1.03-2.68-1.4-3.1-2.77-3.1h-.77v-1.84h10.74v1.87h-1.63c-.86,0-1.19.32-1.19.97.03.38.13.76.28,1.11l4.59,11.7,3.87-10.79c.2-.56.33-1.14.37-1.73,0-.86-.45-1.3-1.47-1.3h-1.68v-1.83h8.39v1.86h-.79c-.98,0-1.37.5-1.98,2.23l-7.43,19.94c-1.8,4.82-3.29,6.83-6.64,6.83-2.54,0-4.84-1.63-4.84-4.32-.1-1.6,1.11-2.98,2.71-3.08.08,0,.17,0,.25,0,1.48-.09,2.75,1.03,2.84,2.51,0,.05,0,.1,0,.15.02,1.12-.64,2.15-1.68,2.59.28.1.57.14.86.14,1.84,0,2.87-1.26,4.17-4.97l.5-1.37Zm25.65-15.09c-.96-4.08-2.84-6.11-5.64-6.11-1.59-.17-3.02.99-3.19,2.59-.02.16-.02.33,0,.49,0,2.38,2.8,3.1,4.62,3.7,3.85,1.26,7.27,2.94,7.27,7.46s-3.3,7.2-7.62,7.2c-2.28,0-4.5-.79-6.25-2.25l-.59,1.8h-1.63v-8.59h1.63c1.03,3.33,2.71,7.13,6.81,7.13,1.87.08,3.46-1.37,3.54-3.24,0-.12,0-.25,0-.37,0-2.82-2.87-3.77-5.09-4.54-3.45-1.22-6.67-2.8-6.67-6.91s3.1-6.2,6.83-6.2c2.03.05,4,.73,5.64,1.93l.47-1.44h1.63v7.38l-1.76-.03Zm19.25,9.34c0,3.8-2.18,5.99-5.97,5.99s-5.98-2.19-5.98-5.99v-14.55h-3.45v-1.93c1.72-.28,3.3-1.13,4.49-2.4.97-1.17,1.56-3.39,1.89-6.16h1.83v8.29h6.46v2.19h-6.46v14.84c0,2.51,1.03,3.28,2.15,3.28,1.63,0,2.77-1.18,2.77-3.96v-2.22h2.25l.03,2.62Zm7.11-5.53c.16,3.71.32,9.5,5.14,9.5,3.15,0,4.73-2.59,5.85-5.14l1.91,1.01c-1.81,3.68-4.06,6.36-8.51,6.36-6.8,0-9.59-5.83-9.59-11.79s2.8-11.8,9.16-11.8c6.86,0,8.97,6.57,9.12,11.88l-13.09-.03Zm7.89-2.06c-.09-5.36-1.4-7.88-3.83-7.88s-3.85,2.73-4.01,7.88h7.83Zm37.13-3.21v12.14c0,1.73.64,2.33,2.33,2.33h.64v1.79h-7.77v-15.82c0-3.13-.93-4.4-2.94-4.4-2.51,0-3.68,2.88-3.68,6.91v9.2c0,1.68.64,2.33,2.32,2.33h.78v1.79h-7.88v-15.82c0-3.13-.97-4.4-2.96-4.4-2.59,0-3.68,2.88-3.68,6.91v9.2c0,1.68.64,2.33,2.33,2.33h.77v1.79h-11.04v-1.79h.86c1.68,0,2.33-.65,2.33-2.33v-14.16c0-1.68-.65-2.33-2.33-2.33h-.65v-1.84h7.46v2.5c1.2-1.74,3.18-2.78,5.29-2.78,2.45-.13,4.73,1.23,5.78,3.45,1.1-2.08,3.26-3.39,5.61-3.41,4.12,0,6.45,2.36,6.45,6.44h-.03Zm17.75,1.44c-.97-4.08-2.85-6.1-5.65-6.1-1.59-.17-3.01.99-3.18,2.58-.02.17-.02.33,0,.5,0,2.37,2.8,3.1,4.61,3.7,3.86,1.26,7.27,2.94,7.27,7.46s-3.33,7.2-7.64,7.2c-2.27-.01-4.46-.81-6.2-2.25l-.58,1.8h-1.65v-8.6h1.63c1.03,3.33,2.7,7.13,6.8,7.13,1.87.09,3.45-1.36,3.54-3.23,0-.13,0-.26,0-.39,0-2.82-2.86-3.77-5.08-4.54-3.45-1.22-6.67-2.8-6.67-6.91s3.1-6.2,6.83-6.2c2.03.06,4,.73,5.64,1.93l.46-1.44h1.63v7.38l-1.76-.03ZM6.92,36.2H.5v-6.38h6.42v6.38ZM.5,15v10.92h1.93v-.33c0-5.14,2.89-8.35,8.36-8.35h.32v23.13c0,3.21-1.29,4.49-4.5,4.49h-.97v2.22h16.71v-2.22h-.97c-3.21,0-4.5-1.28-4.5-4.49v-23.13h.33c5.46,0,8.35,3.21,8.35,8.35v.33h1.93v-10.92H.5Zm20.59,21.2h6.42v-6.38h-6.42v6.38Z"/>
</svg>