<?xml version="1.0" encoding="UTF-8"?>
<svg id="Layer_1" data-name="Layer 1" xmlns="http://www.w3.org/2000/svg" viewBox="0 0 73 70">
  <defs>
    <style>
      .cls-1 {
        fill: #ccc;
      }
    </style>
  </defs>
  <path class="cls-1" d="m61.3,12.8s2.21,2.86,1.88,7.57c-.33,4.74-3.11,6.19,3.04,12.96,0,0-1.96-3.15-.51-8.33,1.45-5.18.07-9.27-4.42-12.2"/>
  <path class="cls-1" d="m56.27,9.47s2.39,3.73,2.21,6.95c-.18,3.22-.72,4.6-.94,5.76-.51,2.43.33,4.49.33,4.49,0,0-1.38.18-3.48-.87-2.1-1.09-2.72-2.68-2.72-2.68,0,0-1.09,2.32,0,4.45,1.09,2.14,4.6,5.5,4.49,6.45,0,0-1.38,3.15-5.58,4.16-4.2,1.01-5.1-.94-5.1-.94,0,0,2.35,6.26,6.84,5.07,4.49-1.19,4.42-5.07,4.24-8.29,0,0,.83-1.85.58-3.15,0,0,1.63,0,2.79-1.38,1.23-1.48.69-1.77,1.09-4.42.4-2.64,2.35-4.92,0-10.17-1.77-3.87-4.74-5.43-4.74-5.43"/>
  <path class="cls-1" d="m45.84,23.09s-.51,3.73-.36,4.82,1.56,2.68,2.06,3.04c.51.36,1.88,1.99,2.21,2.72,0,0,.8-1.12.8-2.82,0-.72,0-1.56-.43-2.46-1.05-2.03-.76-1.12-4.27-5.29"/>
  <path class="cls-1" d="m49.72,33.62s-2.32-1.48-4.27-1.7c-1.95-.22-5.94,1.88-6.74,1.99,0,0-.14-2.5.72-4.42.9-2.03,2.68-6.66.83-12.24,0,0-1.56-3.95-4.85-5.98,0,0,2.61,4.38,2.1,9.67s-3.04,6.84-.22,12.09c2.57,4.78,5.98,3.55,5.98,3.55,0,0,1.27-.36,2.21-1.05,1.56-1.16,2.75-1.41,4.24-1.92"/>
  <path class="cls-1" d="m22.41,30.22s-.4-3.33,1.74-5.25c1.99-1.78,3.48-1.85,5.36-3.91,1.88-2.06,1.99-2.82,1.99-2.82,0,0,.69,3.19-.22,5.25-.91,2.06-4.2,5.29-4.2,5.29l-4.2,3.59s-.29-1.41-.47-2.14"/>
  <path class="cls-1" d="m17.13,25.95s.58.8,2.68,1.88c2.1,1.12,2.86,3.04,2.93,4.96.07,1.92-.58,3.91-.58,3.91,0,0-1.05-1.59-2.53-2.68-1.74-1.27-3.19-3.4-2.86-6.12.11-1.23.36-1.95.36-1.95"/>
  <path class="cls-1" d="m22.16,36.67s-2.86,4.02-7.75,3.91c-4.89-.11-6.59-4.63-6.59-4.63,0,0-1.23-2.39-2.53-3.04,0,0,1.27,1.38,1.63,5.22.36,3.84,2.43,8.15,7.71,8.4,5.29.25,8.07-7.28,7.53-9.85"/>
  <path class="cls-1" d="m45.15,43.65s.58-1.3.62-2.57l4.71,2.79-2.1,4.85-3.91-1.81-.9,1.81-4.53-2.03s1.38-1.34,2.06-5.65l4.05,2.61Z"/>
  <path class="cls-1" d="m21.65,16.03s-.07,3.08-1.81,5.61l4.38,1.92,2.21-4.71-4.78-2.82Z"/>
  <path class="cls-1" d="m22.12,36.74s4.96.72,8.4-2.5c2.97-2.79,3.29-7.17,3.29-7.17,0,0,.54-3.04,2.43-4.96,0,0-2.43,1.27-5.36,1.45-2.93.18-7.17,2.03-8.11,6.41,0,0-.14.69-.11,2.9,0,2.06-.54,3.87-.54,3.87"/>
  <path class="cls-1" d="m8.44,56.73c-1.01.14-1.59-.43-1.67-.91-.07-.47.29-1.16.94-1.23.33-.04.69-.04.87-.04v-.76c-.18,0-.54,0-.87.04-1.45.22-1.96,1.41-1.85,2.17.07.43.47.94.83,1.05-.29,0-.76.04-1.23.11l.11.72,3.95-.54-.11-.72-.98.11Z"/>
  <rect class="cls-1" x="11.08" y="50.53" width=".94" height="7.28"/>
  <path class="cls-1" d="m21.15,51.87c.33,0,.58-.25.58-.54,0-.33-.25-.58-.58-.58s-.54.25-.54.58c0,.29.25.54.54.54"/>
  <path class="cls-1" d="m26.61,51.87c.33,0,.58-.25.58-.54,0-.33-.25-.58-.58-.58s-.54.25-.54.58c0,.29.22.54.54.54"/>
  <path class="cls-1" d="m22.23,57.09h-3.69c.18-1.66,1.19-3.44,2.57-3.44.91,0,1.19.76,1.19,1.88,0,.51,0,1.05-.07,1.56m9.41,0h-2.43c-.36-.51-.47-1.01-.47-1.01-.07-.29-.11-.47-.14-.65-.04-.22-.07-.43-.11-.65,0-.22-.04-.43-.11-.65-.07-.22-.14-.4-.29-.58-.15-.18-.33-.33-.51-.43-.22-.11-.47-.18-.8-.18-.14,0-.25,0-.4.04-.14.04-.29.04-.43.07-.14.04-.25.07-.4.11-.11.04-.22.07-.29.11l.22.8c.18-.07.36-.14.58-.18.22-.04.36-.07.51-.07.33,0,.58.07.76.25.18.18.33.51.36.94.07.4.14.72.18.94.07.36.33.91.47,1.19h-5.07c.04-.54.07-1.12.07-1.67,0-1.59-.65-2.57-2.03-2.57-1.16,0-2.32.87-2.82,2.35.07-.58.11-1.3.11-1.85v-.4h-.94v4.09h-2.46v-4.09h-.94v5c0,1.34-.51,1.77-1.38,1.77-.4,0-.72-.07-1.05-.18l-.11.8c.33.07.69.14,1.09.14,1.85,0,2.39-1.12,2.39-2.61v-.04h17.38v-7.28h-.94v6.48Z"/>
  <rect class="cls-1" x="34.54" y="50.53" width=".94" height="7.28"/>
  <path class="cls-1" d="m48.59,57.09h-3.69c.18-1.67,1.19-3.44,2.57-3.44.9,0,1.19.76,1.19,1.88,0,.51,0,1.05-.07,1.56m-.94-4.24c-1.16,0-2.32.87-2.82,2.35.07-.58.11-1.3.11-1.85v-.4h-.94v4.38c0,1.59-.69,2.1-1.7,2.1-.83,0-1.7-.47-1.7-2.21,0-.69.11-1.38.29-2.06l-.98.18c-.18.62-.25,1.3-.25,1.96,0,2.14,1.16,2.9,2.57,2.9,1.52,0,2.57-.72,2.68-2.39h4.63c.07-.8.15-1.63.15-2.43-.04-1.56-.69-2.53-2.03-2.53"/>
  <path class="cls-1" d="m47.51,51.87c.33,0,.58-.25.58-.54,0-.33-.25-.58-.58-.58s-.54.25-.54.58c0,.29.25.54.54.54"/>
  <path class="cls-1" d="m54.24,58.83c-.33,0-.54.25-.54.54,0,.33.25.54.54.54s.54-.25.54-.54-.25-.54-.54-.54"/>
  <polygon class="cls-1" points="55.44 57.09 52.4 57.09 52.4 50.53 51.42 50.53 51.42 57.85 56.41 57.85 56.41 53 55.44 53 55.44 57.09"/>
  <path class="cls-1" d="m55.76,58.83c-.33,0-.54.25-.54.54,0,.33.25.54.54.54s.54-.25.54-.54-.22-.54-.54-.54"/>
  <path class="cls-1" d="m62.46,57.09h-2.46v-4.09h-.94v5c0,1.34-.51,1.77-1.38,1.77-.4,0-.72-.07-1.05-.18l-.11.8c.33.07.69.14,1.09.14,1.85,0,2.39-1.12,2.39-2.61v-.04h3.37v-7.28h-.94v6.48h.04Z"/>
  <rect class="cls-1" x="65.36" y="50.53" width=".94" height="7.28"/>
</svg>