<?xml version="1.0" encoding="UTF-8"?>
<svg id="Layer_1" data-name="Layer 1" xmlns="http://www.w3.org/2000/svg" viewBox="0 0 190 70">
  <defs>
    <style>
      .cls-1 {
        fill: #ccc;
        fill-rule: evenodd;
      }
    </style>
  </defs>
  <path class="cls-1" d="m7.22,34.78v-7.73h3.83v4.49c0,.95.33,1.4,1.4,1.4h3.45c1.07,0,1.4-.45,1.4-1.4v-4.49h3.83v15.94h-3.83v-4.96c0-.95-.33-1.4-1.4-1.4h-3.45c-1.07,0-1.4.45-1.4,1.4v4.96h-3.83v-8.2h0Z"/>
  <path class="cls-1" d="m25.29,24.44c2.08-.95,1.78-4.94,1.78-4.94-3.33-1.84-5-2.02-5-2.02v2.44c0,1.55-1.49,2.37-2.91,2.08-1.06-.22-2.26-.71-2.26-2.44v-3.1c-1.82-.18-3.64-.17-5.45,0l-.02,3.09c0,1.72-1.2,2.22-2.26,2.44-1.43.3-2.91-.53-2.91-2.08v-2.44s-1.66.18-4.99,2.02c0,0-.3,3.98,1.78,4.94,0,0-2.56,2.68-2.56,10.29,0,12.19,4.16,14.51,13.67,14.51s13.68-2.32,13.68-14.51c0-7.61-2.56-10.29-2.56-10.29h0Zm-1.84,10.87c0,8.86-1.9,9.81-9.28,9.81s-9.28-.95-9.28-9.81v-.58c0-8.86,1.9-9.81,9.28-9.81s9.28.95,9.28,9.81v.58h0Z"/>
  <polygon class="cls-1" points="51.06 47 55.06 47 55.02 47 55.02 23.94 55.06 23.94 51.06 23.94 51.06 33.09 51.06 33.05 40.04 33.05 40.04 33.05 40.04 23.98 40.04 23.94 36.08 23.94 36.08 47 40.04 47 40.04 47.01 40.04 36.43 51.06 36.43 51.06 47.01 51.06 47 51.06 47"/>
  <path class="cls-1" d="m73.13,30.26v16.74h.04-3.49l-.07-1.58c-1.87,1.69-3.46,2.02-5.15,2.02s-5.74-.81-5.74-5.18v-12.01h.23s3.29,0,3.29,0v10.54c0,2.94,1.51,3.71,3.2,3.71s4.16-.92,4.16-4.37v-9.88h3.53Z"/>
  <path class="cls-1" d="m154.45,30.08v3.24-.04c-3.67-.55-5.29,1.87-5.29,4.81v8.92h-3.53v-16.71l.04-.04h3.27l.29,2.2c1.03-1.84,2.72-2.61,5.21-2.39h0Z"/>
  <polygon class="cls-1" points="119.45 42.45 115.27 30.26 111.81 30.26 117.58 47 121.44 47 127.17 30.26 123.64 30.26 119.45 42.45 119.45 42.45"/>
  <path class="cls-1" d="m90.07,34.96c0-2.31-1.65-5.36-7.01-5.36s-7.2,2.83-7.2,5.21,1.65,4.48,5.25,4.96c4.21.56,5.8.85,5.8,2.57,0,1.32-.81,2.46-3.82,2.46-2.75,0-3.96-1.69-3.96-3.49l-.04-.04h-3.56c0,3.08,2.08,6.24,7.44,6.24s7.54-2.53,7.54-5.5c0-3.16-2.39-4.51-5.99-4.96-3.6-.44-5.03-.88-5.03-2.46,0-1.32,1.1-2.28,3.44-2.28,2.87,0,3.75,1.4,3.75,2.65h.04s3.34,0,3.34,0h0Z"/>
  <path class="cls-1" d="m105.61,30.26h.04s-.06,1.82-.06,1.82c-1.06-1.38-2.91-2.33-5.07-2.33-4.28,0-7.66,3.2-7.66,9.04,0,5.4,3.02,8.66,7.34,8.66,2.26,0,4.2-.97,5.36-2.55l.03-.02v8.79h3.53v-23.4h-3.5Zm-4.93,14.43c-3.2,0-4.42-2.94-4.42-6.02s1.29-6.13,4.64-6.13,4.79,2.79,4.79,5.73c0,3.52-1.81,6.43-5.01,6.43h0Z"/>
  <path class="cls-1" d="m142.44,43.3v-9.77c0-2.53-2.24-3.96-6.17-3.96s-7.57,1.39-7.57,5.98h3.49c0-2.2,1.03-3.36,3.75-3.36s3.27,1.43,3.27,2.53c0,3.71-11.36.73-11.36,7.85,0,3.78,3.82,4.99,6.02,4.99s4.62-.83,5.55-1.98l.29,1.37s3.65.01,3.66.01v-.45c-.6,0-.94-2.29-.94-3.2h0Zm-3.23-2.86c0,3.56-1.88,4.33-4.74,4.33-2.68,0-2.98-1.98-2.98-2.57,0-3.08,7.72-3.04,7.72-3.77v2.02h0Z"/>
  <path class="cls-1" d="m156.59,47.01v-16.74h-.04,3.49l.07,2.05c1.04-1.48,2.22-2.49,5.14-2.49,1.69,0,5.73.81,5.73,5.18v12.01h-3.52v-10.54c0-2.94-1.5-3.71-3.19-3.71-1.46,0-4.15,1.38-4.15,4.84v9.41h-3.53Z"/>
  <path class="cls-1" d="m188.56,43.3v-9.77c0-2.53-2.24-3.96-6.17-3.96s-7.57,1.39-7.57,5.98h3.49c0-2.2,1.03-3.36,3.75-3.36s3.27,1.43,3.27,2.53c0,3.71-11.36.73-11.36,7.85,0,3.78,3.82,4.99,6.02,4.99s4.62-.83,5.55-1.98l.29,1.37h3.66s0-.44,0-.44c-.61,0-.94-2.29-.94-3.2h0Zm-3.23-2.86c0,3.56-1.88,4.33-4.74,4.33-2.68,0-2.98-1.98-2.98-2.57,0-3.08,7.72-3.04,7.72-3.77v2.02h0Z"/>
</svg>