<?xml version="1.0" encoding="UTF-8"?>
<svg id="Layer_1" data-name="Layer 1" xmlns="http://www.w3.org/2000/svg" viewBox="0 0 190 70">
  <defs>
    <style>
      .cls-1 {
        fill: #999;
      }

      .cls-1, .cls-2 {
        fill-rule: evenodd;
      }

      .cls-2 {
        fill: #ccc;
      }
    </style>
  </defs>
  <path class="cls-2" d="m88.28,39.52h-14.83s-5.11-.04-5.11,4.93v8.94s-.25,5.04,5.07,5.04h14.83v-5.04h-13.27s-1.53.07-1.53-1.67v-5.78s-.07-1.49,1.56-1.49h13.27v-4.93h0Z"/>
  <path class="cls-2" d="m110.48,39.52h-15.89s-5.07-.04-5.07,4.93v8.94s-.28,5.04,5.07,5.04h15.86v-5.04h-14.33s-1.53.07-1.53-1.67v-5.78s-.07-1.49,1.56-1.49h14.33v-4.93h0Z"/>
  <polygon class="cls-2" points="98.07 51.12 110.45 51.12 110.45 47.11 98.07 47.11 98.07 51.12 98.07 51.12"/>
  <path class="cls-2" d="m158.73,39.52h-15.89s-5.07-.04-5.07,4.93v8.94s-.28,5.04,5.07,5.04h15.89v-5.04h-14.33s-1.56.07-1.56-1.67v-5.78s-.04-1.49,1.56-1.49h14.33v-4.93h0Z"/>
  <polygon class="cls-2" points="146.35 51.12 158.69 51.12 158.69 47.11 146.35 47.11 146.35 51.12 146.35 51.12"/>
  <path class="cls-2" d="m131.09,39.52h-19.01v18.91h5.04v-13.91h4.47v13.91h5.04v-13.91h4.47v13.91h5v-14.01s.28-4.9-5-4.9h0Z"/>
  <polygon class="cls-2" points="184.27 39.52 178.91 39.52 178.91 42.22 172.17 46.01 165.43 42.22 165.43 39.52 160.08 39.52 160.08 44.42 167.17 48.96 160.08 53.53 160.08 58.43 165.43 58.43 165.43 55.73 172.17 51.94 178.91 55.73 178.91 58.43 184.27 58.43 184.27 53.53 177.17 48.96 184.27 44.42 184.27 39.52 184.27 39.52"/>
  <polygon class="cls-1" points="22.83 58.36 62.28 11.57 45.14 11.57 5.73 58.36 22.83 58.36 22.83 58.36"/>
  <polygon class="cls-2" points="48.41 58.36 87.82 11.57 70.72 11.57 31.31 58.36 48.41 58.36 48.41 58.36"/>
</svg>