<?xml version="1.0" encoding="UTF-8"?>
<svg id="Layer_1" data-name="Layer 1" xmlns="http://www.w3.org/2000/svg" viewBox="0 0 190 70">
  <defs>
    <style>
      .cls-1 {
        fill: #e6e6e6;
      }

      .cls-2 {
        fill: #ccc;
      }
    </style>
  </defs>
  <g id="Layer_2" data-name="Layer 2">
    <g id="Layer_1-2" data-name="Layer 1-2">
      <path class="cls-1" d="m19.76,53.06c-9.98,0-18.08-8.07-18.09-18.05s8.07-18.08,18.05-18.09c9.98,0,18.08,8.07,18.09,18.05,0,0,0,.02,0,.03,0,9.97-8.08,18.05-18.05,18.06m0-37.32C9.12,15.74.5,24.36.5,35s8.62,19.26,19.26,19.26,19.26-8.62,19.26-19.26S30.4,15.74,19.76,15.74"/>
      <path class="cls-1" d="m3.16,34.87c6.55,2.07,12.77,8.51,14.65,16.67-8.42-1-14.74-8.19-14.65-16.67"/>
      <path class="cls-1" d="m36.26,34.87c-6.57,2.07-12.85,8.51-14.65,16.67,8.43-1,14.74-8.19,14.65-16.67"/>
      <path class="cls-1" d="m19.76,51.54c-7.03-10.82-5.52-25.64,0-33.63,5.24,7.99,6.88,22.81,0,33.63"/>
      <polygon class="cls-2" points="44.21 17.99 48.45 17.99 48.45 23.78 56.23 23.78 56.23 17.99 60.47 17.99 60.47 33.07 56.23 33.07 56.23 26.57 48.45 26.57 48.45 33.07 44.21 33.07 44.21 17.99"/>
      <polygon class="cls-2" points="63.87 17.99 78.27 17.99 78.27 20.78 68.11 20.78 68.11 24.01 77.44 24.01 77.44 26.59 68.11 26.59 68.11 30.29 78.49 30.29 78.49 33.07 63.87 33.07 63.87 17.99"/>
      <path class="cls-2" d="m81.03,17.99h10.38c3.45,0,5.64,1.88,5.64,4.19,0,1.78-.89,3.11-3.05,3.78v.04c2.08.45,2.67,1.99,2.81,3.53.08.95,0,2.75.84,3.57h-4.19c-.49-.95-.46-2.4-.68-3.61-.29-1.58-1.08-2.29-3.21-2.29h-4.24v5.86h-4.19l-.12-15.07Zm4.19,6.82h4.64c1.92,0,2.91-.64,2.91-2.16s-1-2.09-2.91-2.09h-4.64v4.25Z"/>
      <path class="cls-2" d="m100.15,17.99h9.07c3.67,0,6.15.93,6.15,3.73,0,1.5-.91,2.51-2.61,3.15,2.37.53,3.53,1.94,3.53,3.83,0,3.06-3.35,4.37-6.8,4.37h-9.34v-15.08Zm8.55,6.12c1.52,0,2.59-.53,2.59-1.8,0-1.42-1.4-1.72-2.91-1.72h-3.97v3.53h4.29Zm.24,6.4c1.67,0,3.13-.42,3.13-1.98s-1.21-2.15-3.05-2.15h-4.61v4.14h4.53Z"/>
      <path class="cls-2" d="m123.59,17.99h4.34l7.2,15.07h-4.4l-1.46-3.35h-7.19l-1.52,3.35h-4.29l7.31-15.07Zm4.58,9.25l-2.43-5.53h-.05l-2.51,5.53h4.99Z"/>
      <polygon class="cls-2" points="136.45 17.99 140.68 17.99 140.68 30.29 150.07 30.29 150.07 33.07 136.45 33.07 136.45 17.99"/>
      <rect class="cls-2" x="151.58" y="17.99" width="4.24" height="15.08"/>
      <polygon class="cls-2" points="159.21 17.99 172.75 17.99 172.75 20.78 163.45 20.78 163.45 24.27 171.51 24.27 171.51 26.84 163.45 26.84 163.45 33.07 159.21 33.07 159.21 17.99"/>
      <polygon class="cls-2" points="174.88 17.99 189.28 17.99 189.28 20.78 179.12 20.78 179.12 24.01 188.45 24.01 188.45 26.59 179.12 26.59 179.12 30.29 189.5 30.29 189.5 33.07 174.88 33.07 174.88 17.99"/>
      <polygon class="cls-1" points="44.21 36.55 48.41 36.55 56.45 46.66 56.51 46.66 56.51 36.55 60.47 36.55 60.47 51.63 56.23 51.63 48.23 41.53 48.17 41.53 48.17 51.63 44.21 51.63 44.21 36.55"/>
      <path class="cls-1" d="m80.3,45.93c0,4.08-3.07,6.06-8.23,6.06s-8.2-1.92-8.2-6.06v-9.38h4.24v9.38c0,1.67.54,3.27,3.96,3.27,3.02,0,3.99-1.01,3.99-3.27v-9.38h4.24v9.38Z"/>
      <polygon class="cls-1" points="88.13 39.34 82.36 39.34 82.36 36.55 98.14 36.55 98.14 39.34 92.37 39.34 92.37 51.63 88.13 51.63 88.13 39.34"/>
      <path class="cls-1" d="m100.25,36.55h10.38c3.45,0,5.64,1.88,5.64,4.19,0,1.78-.89,3.11-3.05,3.78v.05c2.08.44,2.67,1.98,2.81,3.53.08.95,0,2.75.84,3.57h-4.24c-.49-.95-.46-2.41-.68-3.61-.29-1.58-1.07-2.29-3.21-2.29h-4.19v5.86h-4.24l-.07-15.07Zm4.24,6.82h4.64c1.91,0,2.91-.64,2.91-2.16s-1-2.09-2.91-2.09h-4.64v4.25Z"/>
      <rect class="cls-1" x="120.26" y="36.55" width="4.24" height="15.08"/>
      <polygon class="cls-1" points="132.74 39.34 126.97 39.34 126.97 36.55 142.75 36.55 142.75 39.34 136.98 39.34 136.98 51.63 132.74 51.63 132.74 39.34"/>
      <rect class="cls-1" x="145.23" y="36.55" width="4.24" height="15.08"/>
      <path class="cls-1" d="m161.27,36.19c5.93,0,9.46,3.48,9.46,7.96s-3.53,7.84-9.46,7.84-9.47-3.48-9.47-7.84,3.53-7.96,9.47-7.96m0,13.05c3.8,0,5.23-2.51,5.23-5.02s-1.43-5.17-5.23-5.17-5.23,2.51-5.23,5.17,1.43,5.02,5.23,5.02"/>
      <polygon class="cls-1" points="173.23 36.55 177.44 36.55 185.47 46.66 185.53 46.66 185.53 36.55 189.49 36.55 189.49 51.63 185.26 51.63 177.25 41.53 177.19 41.53 177.19 51.63 173.23 51.63 173.23 36.55"/>
    </g>
  </g>
</svg>