<?xml version="1.0" encoding="UTF-8"?>
<svg id="Layer_1" data-name="Layer 1" xmlns="http://www.w3.org/2000/svg" viewBox="0 0 99 70">
  <defs>
    <style>
      .cls-1 {
        fill: #b3b3b3;
      }
    </style>
  </defs>
  <path class="cls-1" d="m78.35,54.37v-3.76c.05,0,.11,0,.18,0,.46,0,.73-.03.8-.03l.1.11c0,.28-.64-.19-.64.74v2.03c0,.87.61.62.61.84l-.12.1c-.23,0-.49-.03-.85-.03h-.08Zm0-4.81v-.7h0c.18,0,.34.16.34.35s-.16.35-.34.35h0Zm0-9.06v-2.41l.37.57.07.11c.16.3,1.56,2.35,2.48,3.41.25.3,1.01.96,1.96.96.42,0,.62-.09.81-.16.26-.12.46-.25.56-.3l.05.16c-.35.27-.58.4-.91.53-.29.12-.9.26-1.59.26-.63,0-1.5-.15-2.32-1.16-.51-.62-1.07-1.41-1.48-1.98h0Zm0-3.42v-.71c.21-.35.35-.8.35-1.36,0-.48-.11-1.03-.35-1.53v-1.6c.95.34,1.61,1.12,1.61,2.38,0,1.18-.73,2.19-1.61,2.82h0Zm0-12.5v-.33h4.38c.15-.18.16-.5.16-1.06v-9.04c0-.88,0-1.39-.89-1.34v-.12h3.16v.12c-.17-.01-.89-.03-.89.63l-.02.61v9.13c0,.94,0,1.3.91,1.29v.12h-6.81Zm14.89-11.78c-.17-.01-.89-.03-.89.63l-.02.61v9.14c0,.94,0,1.31.91,1.29v.11h-3.16v-.11c.86-.03.89-.25.89-1.28v-9.04c0-.88,0-1.39-.89-1.34v-.12h3.16v.12h0Zm-8.16,30.61c.81,0,.89-.33.89-.93v-9.75c0-.89-.25-.97-.91-.99v-.12h3.18v.12c-.91-.02-.91.41-.91,1.07v8.36c0,1.47.67,1.95,2.28,1.95h1.45c1.63,0,1.99-.86,2.07-2.46h.12v2.87h-8.17v-.12Zm-6.73-19.16v.33h-1.22v-.33h1.22Zm0,7.63v1.6c-.14-.28-.32-.55-.55-.78-.19-.19-.41-.35-.67-.47v-.57c.42.02.75.08,1.11.19.04.01.07.02.1.04h0Zm0,4.48v.71c-.15.11-.31.21-.47.29l.47.72v2.41c-.31-.44-.52-.76-.54-.78l-.03-.08-.65-1v-1.3c.14-.04.27-.09.37-.14.3-.17.61-.44.85-.83h0Zm0,12.5v.7c-.19,0-.35-.16-.35-.35s.15-.34.35-.35h0Zm0,1.75v3.76h-1.22v-.29h.56c.15-.01.49.07.49-.76v-2.23c0-.24-.18-.24-.42-.24-.22,0-.43.03-.63.09v-.33c.17-.02.34-.03.51-.03.31,0,.45.02.7.03h0Zm-1.22,2.97c.1.01.21.02.32.02.08,0,.53-.04.53-.18l-.07-.07c-.06,0-.23.04-.51.04-.09,0-.18,0-.26-.02v.21h0Zm0-4.02v-.7h0c.19,0,.35.16.35.35s-.16.35-.35.35h0Zm0-25.32v.33h-8.02v-.33h4.79c.15-.18.16-.5.16-1.06v-9.04c0-.88,0-1.39-.89-1.34v-.12h3.16v.12c-.17-.01-.89-.03-.89.63l-.02.61v9.13c0,.53,0,.88.16,1.08h1.53Zm0,7.4v.57c-.39-.18-.89-.28-1.58-.28h-.97v5.58h1.24c.32,0,.88-.06,1.31-.19v1.3l-.54-.83-.44.02-.61.02h-.95v4.55c0,.94.28,1.01.84,1.03v.12h-3.06v-.12c.75-.03.86-.21.86-1.12v-9.47c0-.99-.3-1.06-.86-1.07v-.12h3.36c.6,0,1.04,0,1.41.02h0Zm0,17.21v.7c-.19,0-.35-.16-.35-.35s.16-.35.35-.35h0Zm0,1.75v.33c-.58.18-.99.64-.99,1.35,0,.62.36.99.99,1.07v.21c-1.37-.14-1.57-1.19-1.57-1.48,0-.97.75-1.37,1.57-1.48h0Zm0,3.46h-5.86c.08-.33.13-.68.13-1.07,0-1.29-1.07-2.26-2.28-2.46v.3c1.01.34,1.7,1.23,1.7,2.58,0,.23-.02.44-.06.63h-1.64v.29h8.02v-.29h0Zm-8.02-10.55v-.31c.02-.05.03-.09.03-.11,0-.05,0-.11-.03-.18v-3.67l1.09,2.71.05.13.07.19c.17.44.47,1.12,1.21,1.12v.12h-2.41Zm0-19.28v.33h-3.7v-.33h3.7Zm0,15.01v3.67c-.04-.15-.11-.33-.16-.46l-.08-.18-1.71-4.24h-1.74v-.33h1.6l-1.6-4.04v-1.31l.36-.91h.2l3.14,7.81h0Zm0,3.96v.31h-.36v-.12c.23,0,.32-.1.36-.19h0Zm0,7.34v.3c-.29-.1-.6-.15-.93-.15-.74,0-.77.13-.77.49v2.5c0,.22.13.32.27.37h1.43v.29h-3.7v-.29h1.1c.14-.06.29-.19.29-.57v-4c0-.57-.63-.41-.63-.59l.07-.08c.29,0,.57.03.86.03.24,0,.48-.03.72-.03l.15.08c0,.19-.56,0-.56.59v1.04c.38-.01.77-.02,1.24-.02.15,0,.31.01.46.04h0Zm-3.7-28.25v-.67c.42-.7.66-1.5.66-2.36,0-1.01-.25-1.9-.66-2.69v-2.39c.9.95,1.4,2.23,1.4,3.62s-.32,2.63-.94,3.73h-.01s-.21.36-.21.36l-.24.4Zm0-8.11v2.39c-1.02-1.93-3.02-3.13-4.66-3.41v-.68c.13,0,.27-.01.41-.01,1.8,0,3.27.66,4.26,1.71h0Zm0,7.44v.67l-1.18,1.93h1.18v.33h-1.38l-.52.86-.03.08c-.03.05-1.12,1.67-2.01,2.77-.24.29-.48.51-.72.68v-1.88c.8-1.04,1.64-2.28,1.76-2.51l.18-.27c-.59.22-1.24.37-1.94.42v-.62c.12,0,.24.02.36.02,1.73,0,3.41-.99,4.31-2.49h0Zm0,10.72v1.31h0s-1.59,4.04-1.59,4.04h1.6v.33h-1.71l-1.8,4.5-.08.21c-.08.18-.1.27-.1.38,0,.28.27.26.39.26v.12h-1.37v-.19c.4-.16.55-.55.73-1l3.94-9.97h0Zm0,21.72v.29h-4.66v-.29h4.66Zm-4.66-41.57v.68c-.24-.04-.48-.06-.7-.06-2.17,0-4.63,1.81-4.63,4.65,0,3.19,2.5,6.11,5.33,6.34v.62c-.21.02-.42.02-.63.02-2.52,0-4.37-1.39-5.16-3.29v-4.6c.8-2.19,2.7-4.2,5.8-4.36h0Zm0,14.57v1.88c-.59.4-1.16.48-1.6.48-.69,0-1.3-.15-1.59-.26-.33-.13-.56-.26-.91-.53l.05-.17c.1.05.3.18.56.3.18.08.38.17.81.17.96,0,1.71-.66,1.96-.96.22-.26.47-.57.73-.9h0Zm0,16.25v.19h-.39v-.12c.15,0,.28-.03.39-.07h0Zm0,10.75v.29h-.64v.96c0,1.22-.67,2.17-1.51,2.17-.24,0-.3-.06-.3-.28l.17-.44c.12,0,.27.31.48.31.33,0,.54-.45.54-1.14v-4.61c0-.78-.75-.55-.75-.76l.11-.09c.33,0,.49.03.84.03s.54-.03.72-.03l.15.11c0,.17-.46-.05-.46.56v2.91h.64Zm-5.8-10.55v-.44c.21.03.47.04.77.04h2.1c1.43,0,1.88,0,2.04-1.24h.12v1.64h-5.02Zm0-5.82v-.33h2.75c.46,0,.79,0,.84-.39h.12v1.12h-.12c-.08-.39-.36-.39-.74-.39h-2.85Zm0-5.67v-.4h4.36v1.64h-.12q-.35-1.24-1.22-1.24h-3.03Zm0-16.55h.31s.13-.68.13-.68c-.12.09-.23.18-.44.24v.44Zm0-.44v.44h-3.3c-.43-.01-.79-.02-.87-.14-.08-.13-.09-.38-.09-.53v-.26s.08,0,.08,0c.31.64.88.57,1.45.57-.52-.35-.85-.89-.85-1.32,0-.85.96-1.11,1.96-1.11.4,0,1.03.06,1.39.2l.04.62c-.31-.26-.74-.51-1.38-.51-.69,0-1.17.24-1.17.66,0,.63.5,1.14,1.29,1.47h.72c.34,0,.57-.03.73-.07h0Zm0,1.83v4.6c-.28-.68-.44-1.42-.44-2.19s.14-1.6.44-2.4h0Zm0,14.76v.4h-.87v5.34h.87v.33h-.87v3.67c0,1.26.24,1.62.87,1.71v.44h-3.08v-.12c.46-.03.84-.05.84-.84v-9.61c0-.87-.03-1.19-.84-1.19v-.13h3.08Zm-4.69,20.19v-.33c.37-.03.97-.24.97-1.11,0-.73-.43-1.09-.97-1.22v-.32c.53.02,1.56.19,1.56,1.36,0,.62-.44,1.14-.99,1.36l1.31,1.99c.56.86.95.57.95.76l-.52.1c-.57,0-.87-.41-1.17-.85l-.87-1.37c-.13-.2-.18-.31-.27-.36h0Zm0-15.74v-2.93c.21.38.33.87.33,1.47s-.12,1.06-.33,1.46Zm0-2.93v2.93c-.6,1.13-1.95,1.56-3.52,1.54v-.12c1.39,0,2.54-.87,2.54-2.51,0-1.03-.4-2.04-1.23-2.57-.37-.23-.84-.39-1.96-.39h-.84v10.19c0,1.01.08,1.18.93,1.19v.12h-2.5v-.29c.13-.11.21-.29.21-.59v-9.86c0-.4,0-.71-.21-.88v-.28h2.75c.93,0,3.04,0,3.85,1.52h0Zm0,15.68v.32c-.17-.04-.35-.06-.53-.06-.28,0-.44-.02-.44.29v2c0,.15.48.11.85.11.04,0,.08,0,.12,0v.33c-.11-.06-.3-.06-.77-.06-.25,0-.2.14-.2.22v1.66c0,.68.81.43.81.7l-.13.07c-.07,0-.26-.03-.9-.03-.3,0-.6.03-.89.03l-.08-.09c0-.2.57-.09.57-.68v-4c0-.75-.67-.43-.67-.7l.16-.09c.14,0,.1.03.5.03.45,0,.9-.03,1.3-.03.03,0,.14,0,.3,0h0Zm-6.6,3.39v-.35h.75c.17,0,.17-.06.13-.15l-.77-1.89h-.11v-.76c.14-.31.18-.36.24-.36l.16.3,1.63,4.04c.11.29.21.63.39.9.23.36.69.19.69.39l-.11.07c-.32,0-.64-.03-.96-.03-.21,0-.42.03-.64.03l-.17-.08c0-.19.47-.11.47-.41,0-.17-.17-.53-.24-.75l-.25-.64c-.08-.18-.13-.3-.34-.3h-.87Zm0-27.65v-.33h2.14c.15-.18.16-.5.16-1.06v-9.04c0-.88,0-1.39-.89-1.34v-.12h3.16v.12c-.17-.01-.89-.03-.89.63v.61s-.01,9.13-.01,9.13c0,.94,0,1.3.91,1.29v.12h-4.57Zm0-.33v.33h-7.73l-.52.86-.03.08c-.03.05-1.12,1.67-2.01,2.77-.24.29-.48.51-.72.68v-1.88c.8-1.04,1.63-2.28,1.76-2.5l.18-.27c-.59.22-1.24.37-1.94.42v-.61c.12,0,.24.01.35.01,2.53,0,4.97-2.14,4.97-4.85,0-3.49-3.02-5.7-5.33-6.09v-.68c.13,0,.27-.01.41-.01,3.44,0,5.66,2.4,5.66,5.32,0,1.34-.33,2.63-.94,3.73h-.02s-.21.36-.21.36l-1.42,2.33h7.53Zm0,7.38v.28c-.12-.1-.32-.16-.63-.16v-.12h.63Zm0,11.61v.29h-.63v-.12c.22,0,.46-.03.63-.17h0Zm0,5.84v.76h-.02l-.88,1.91.1.14h.8v.35h-.85c-.15,0-.29,0-.36.16l-.5,1.1-.05.27c0,.55.55.32.55.52,0,.14-.11.12-.22.12-.22,0-.43-.03-.65-.03s-.42.03-.63.03l-.07-.09c0-.16.37-.03.57-.48l1.87-4c.16-.35.27-.59.34-.76h0Zm-11.02,5.3v-.61c.03.06.07.12.1.18.23.36.68.19.68.39l-.11.07c-.22,0-.45-.02-.68-.02h0Zm0-10.85v-.48c.24.07.56.07.95.07h2.09c1.43,0,1.88,0,2.05-1.24h.11v1.64h-5.2Zm0-5.82v-.33h2.93c.46,0,.79,0,.84-.39h.11v1.12h-.11c-.08-.39-.36-.39-.74-.39h-3.03Zm0-5.67v-.4h4.54v1.64h-.11q-.35-1.24-1.22-1.24h-3.21Zm4.2,17.6l-.08-.36h-1.27c-.49,0-.5.12-.64.55l-.13.18-.08-.1.09-.76c.01-.1,0-.31.14-.31.61,0,1.21.03,2.22.03,1.42,0,2.14-.03,2.3-.03.18,0,.22.05.22.23l.04.63-.08.18c-.29,0,.13-.6-.66-.6h-1.12c-.35,0-.31-.03-.31.39v4.01c0,.66.63.4.63.64l-.07.1c-.19,0-.4-.03-.63-.03-.88,0-1.03.03-1.07.03l-.09-.11c0-.19.62-.11.62-.58v-4.09Zm-4.2-37.12v.68c-.24-.04-.48-.06-.7-.06-.54,0-1.09.11-1.62.32v-.41c.68-.3,1.45-.49,2.32-.53h0Zm0,11.61v.61c-.21.02-.42.02-.63.02-.6,0-1.17-.08-1.69-.23v-1.23c.71.46,1.5.75,2.32.82h0Zm0,2.96v1.88c-.59.4-1.16.48-1.6.48-.25,0-.5-.02-.72-.05v-.47c.78-.14,1.38-.67,1.59-.93.22-.26.48-.57.73-.91h0Zm0,4.55v.4h-.69v5.34h.69v.33h-.69v3.67c0,1.14.19,1.54.69,1.68v.48h-2.32v-.24c.16-.1.26-.31.26-.72v-9.61c0-.58-.01-.92-.26-1.07v-.25h2.32Zm0,22.13v.61c-.09,0-.19,0-.28,0-.21,0-.42.03-.64.03l-.17-.08c0-.19.47-.11.47-.41,0-.17-.16-.53-.24-.75l-.25-.64c-.08-.18-.12-.3-.34-.3h-.87v-.35h.75c.17,0,.16-.06.13-.15l-.77-1.89h-.11v-.75c.14-.31.18-.37.24-.37l.17.3,1.63,4.04c.09.23.17.49.29.72Zm-2.32-40.72v.41c-1.61.64-3,2.19-3,4.33,0,2.27,1.26,4.39,3,5.52v1.23c-1.8-.51-3.07-1.82-3.62-3.44v-3.79c.51-1.74,1.71-3.42,3.62-4.25h0Zm0,15.87v.47c-.38-.05-.69-.14-.88-.21-.33-.13-.56-.26-.9-.53l.05-.17c.1.05.29.18.55.3.19.08.38.17.81.17.13,0,.25-.01.37-.03h0Zm0,2.72v.25c-.12-.08-.31-.11-.58-.11v-.13h.58Zm0,11.65v.24h-.58v-.12c.22-.02.43-.03.58-.13h0Zm0,5.79v.75h-.01l-.89,1.91.1.14h.8v.35h-.85c-.15,0-.29,0-.37.16l-.5,1.1-.06.27c0,.55.56.32.56.52,0,.14-.11.12-.21.12-.22,0-.43-.03-.66-.03-.2,0-.42.03-.62.03l-.07-.09c0-.16.36-.03.57-.48l1.87-4c.16-.35.27-.59.34-.75h0Zm-3.62-5.55v-11.9h1.64v.12c-.84.02-.84.3-.84,1.26v9.13c0,.86,0,1.27.84,1.27v.12h-1.64Zm0-28.05h.17s.12-.68.12-.68c-.09.07-.17.14-.29.19v.49Zm0-.49v.49h-3.3v-.37c.14,0,.29,0,.44,0-.17-.11-.32-.25-.44-.39v-1.7c.37-.26.95-.35,1.55-.35.4,0,1.03.06,1.4.2l.04.62c-.3-.26-.74-.51-1.38-.51-.69,0-1.18.24-1.17.66,0,.63.5,1.14,1.29,1.47h.71c.46,0,.7-.05.87-.13h0Zm0,2.31v3.79c-.19-.57-.29-1.19-.29-1.82s.1-1.31.29-1.97h0Zm0,14.33v11.9h-1.39v-.12c.68-.03.82-.11.82-1.29v-4.53h-2.73v-.33h2.73v-4.26c0-.88,0-1.26-.82-1.26v-.12h1.39Zm-3.3,23.28v-.7c.07,0,.15,0,.22,0,1.14,0,2.06-.92,2.06-2.37,0-1.36-.87-2.69-2.28-2.81v-.27h.02c1.59,0,2.83,1.15,2.83,2.78s-1.01,2.69-2.5,2.88v.02c.12,0,.18-.02,1.32.74.31.21.51.24.7.24.22,0,.45-.17.51-.17l.08.1c0,.14-.4.44-1.16.44-.47,0-1.14-.46-1.79-.87Zm-7.26-22.26h-.12c.05-.16.03-.25.03-.35,0-.31-.33-.3-.56-.3h-3.1v10.19c0,.94.09,1.22.94,1.21v.12h-3.21v-.12c.74-.06.9-.15.9-1.04v-10.36h-.93v-.38h5.51c.48,0,.8.03.96-.41h.12l-.56,1.44h0Zm7.26-19.63v1.7c-.26-.3-.41-.64-.41-.93,0-.34.16-.59.41-.77h0Zm0,2.09c-.41-.01-.78-.09-1.02-.57h-.07s0,.26,0,.26c0,.15,0,.4.09.53.08.12.44.13.87.14h.14s0-.36,0-.36h0Zm0,22.14v.33h-3.77v4.58c0,.79,0,1.26.86,1.24v.12h-3.06v-.12c.31.02.84,0,.84-.81v-9.58c0-1.06-.03-1.23-.84-1.28v-.12h3.06v.12c-.38.02-.86.02-.86.86v4.65h3.77Zm0,11.51v.27c-.07,0-.14,0-.22,0-1.31,0-2.06,1.09-2.06,2.33,0,1.39.86,2.73,2.28,2.85v.7c-.5-.31-.99-.59-1.36-.59-.71,0-.58.8-.77.8l-.14-.16c0-.41.33-.81.63-.94-.76-.46-1.2-1.35-1.2-2.43,0-1.63,1.26-2.81,2.85-2.82h0Zm-13.29-25.95v-2.98c.82,2.42,3,4.29,5.34,4.29,2.54,0,4.97-2.13,4.97-4.85,0-3.85-3.69-6.15-6.03-6.15-1.68,0-3.53,1.08-4.28,2.89v-.75c1.08-1.58,2.86-2.77,5.38-2.77,3.44,0,5.67,2.4,5.67,5.32,0,3.66-2.4,6.93-6.7,6.93-1.87,0-3.37-.77-4.35-1.94h0Zm0-8.93c.21-.13.35-.37.35-.63s-.14-.5-.35-.63v1.27Zm0,18.13h-2.03c-.53,0-.72,0-.72.31,0,.09.02.15.07.33h-.12l-.56-1.44h.12c.1.2.2.31.31.36.13.05.31.05.57.05h2.36v.38h0Zm0-19.39v1.27c-.12.07-.25.12-.4.12-.41,0-.75-.34-.75-.75s.34-.75.75-.75c.15,0,.29.04.4.12h0Zm0,2.65v.75c-.22.53-.35,1.12-.35,1.76,0,.71.12,1.4.35,2.06v2.98c-.81-.97-1.25-2.22-1.25-3.55s.41-2.77,1.25-4h0Zm-1.87-2.02c0,.41-.34.75-.75.75s-.75-.34-.75-.75.33-.75.75-.75.75.33.75.75Z"/>
</svg>