<?xml version="1.0" encoding="UTF-8"?>
<svg xmlns="http://www.w3.org/2000/svg" viewBox="0 0 190 70">
  <defs>
    <style>
      .cls-1 {
        fill: #0071bb;
      }

      .cls-1, .cls-2, .cls-3 {
        mix-blend-mode: multiply;
      }

      .cls-4 {
        fill: #fff;
      }

      .cls-5 {
        isolation: isolate;
      }

      .cls-2 {
        fill: #ec1c24;
      }

      .cls-3 {
        fill: gray;
      }

      .cls-6 {
        fill: #999;
      }

      .cls-7 {
        fill: #ccc;
      }

      .cls-8 {
        fill: #b3b3b3;
      }
    </style>
  </defs>
  <g class="cls-5">
    <g id="Layer_1" data-name="Layer 1">
      <g>
        <g>
          <path class="cls-7" d="m49.65,10.12c-.64-.02-1.23.13-1.23.43,0,.43,1.29.53,1.29,1.52v11.24h1.24l-.78,1.56h-2.61v-12.6c0-.96-1.39-.96-1.39-1.85,0-1.16,1.72-1.79,3.12-1.82.85-.02,2.23.2,3.04.73v1.97c-.86-.86-2.05-1.16-2.66-1.18Z"/>
          <path class="cls-7" d="m56.29,25c-2.88,0-4.52-1.29-4.31-3.64h2.34c-.22,1.39.62,2.05,1.99,2.05,1.24,0,1.94-.53,1.94-1.37,0-1.01-.94-1.54-2.37-1.74-1.63-.23-3.62-1.01-3.62-2.76s1.48-2.9,3.89-2.9,4.14,1.06,4.09,3.11h-2.2c0-.94-.7-1.52-1.83-1.54-.94-.02-1.72.48-1.72,1.19,0,.94,1.15,1.19,2.53,1.41,2.02.34,3.44,1.17,3.44,2.98,0,2.12-1.43,3.21-4.17,3.21Z"/>
          <path class="cls-7" d="m66.78,24.87h-2.99l-2.34-9.52,2.13-.58,2.07,8.56h.59c1.48,0,1.94-1.04,1.94-3.71,0-2.4-.51-3.31-2.24-3.31h-1.21l1.18-1.54h1.07c2.66,0,3.37,1.67,3.37,4.8,0,3.94-1.11,5.3-3.58,5.3Z"/>
          <path class="cls-7" d="m79.25,25c-1.04,0-1.64-.4-2.07-.83-.42.43-1.02.83-2.07.83-1.67,0-2.87-.68-2.87-2.58v-7.65h2.14v7.73c0,.66.41.94.89.94s.89-.28.89-.94v-7.73h2.05v7.73c0,.66.4.94.89.94s.89-.28.89-.94v-7.73h2.15v7.65c0,1.89-1.21,2.58-2.88,2.58Z"/>
          <path class="cls-7" d="m88.13,25c-2.47,0-4.22-1.16-4.22-3.16v-.71c0-1.04.78-1.82,1.74-1.99-.97-.15-1.72-.86-1.74-1.85-.03-1.41,1.23-2.52,3.03-2.52h.84l.91,1.62h-1.3c-.91,0-1.37.33-1.34.96.03.81.99.99,1.83.96l1.26-.05v1.64h-1.24c-1.1,0-1.85.51-1.85,1.27v.6c0,1.06.78,1.67,2.07,1.67s2.1-.63,2.1-1.67v-7h2.15v7.07c0,2-1.77,3.16-4.25,3.16Z"/>
          <path class="cls-7" d="m99.21,24.87v-6.84c0-1.09-.45-1.82-1.59-1.82-.99,0-1.59.66-1.59,1.54h-2.23c0-1.74,1.56-3.11,3.8-3.11,2.39,0,3.74,1.16,3.74,3.19v7.04h-2.12Z"/>
          <path class="cls-7" d="m107.38,25c-2.45,0-4.17-1.14-4.17-3.16v-7.07h2.14v7c0,1.04.76,1.67,2.02,1.67s2.05-.63,2.05-1.67v-7h2.15v7.07c0,2.02-1.74,3.16-4.19,3.16Z"/>
          <path class="cls-7" d="m118.41,24.87v-6.84c0-1.09-.46-1.82-1.59-1.82-1,0-1.59.66-1.59,1.54h-2.23c0-1.74,1.56-3.11,3.79-3.11,2.4,0,3.74,1.16,3.74,3.19v7.04h-2.12Z"/>
          <path class="cls-7" d="m128.58,24.87v-5c-.49.28-1.13.48-2.13.63-1.04.15-1.99.66-1.93,1.49.08,1.09,1.53,1.52,3.36,1.03l-.81,1.84c-2.99.41-4.78-.76-4.78-2.9,0-1.72,1.29-2.68,3.26-2.98,1.12-.18,2.98-.41,2.98-1.45,0-.75-.61-1.34-1.75-1.34-1.29,0-1.88.66-1.88,1.54h-2.36c0-2,1.88-3.11,4.19-3.11s4,1.01,4,2.9v7.33h-2.15Z"/>
          <path class="cls-7" d="m138.96,24.87v-7c0-1.04-.84-1.67-2.02-1.67s-1.84.51-2.05,1.21l.94.73c-.62.13-.94.71-.94,1.26v5.46h-2.15v-5.41c0-.58.52-1.03.89-1.18l-1.13-.71c.29-1.59,1.86-2.93,4.45-2.93s4.17,1.21,4.17,3.21v7.02h-2.15Z"/>
          <path class="cls-7" d="m147.16,25c-2.88,0-4.52-1.29-4.3-3.64h2.34c-.22,1.39.62,2.05,1.99,2.05,1.24,0,1.94-.53,1.94-1.37,0-1.01-.94-1.54-2.37-1.74-1.64-.23-3.63-1.01-3.63-2.76s1.48-2.9,3.9-2.9,4.14,1.06,4.09,3.11h-2.21c0-.94-.7-1.52-1.83-1.54-.94-.02-1.72.48-1.72,1.19,0,.94,1.16,1.19,2.53,1.41,2.02.34,3.44,1.17,3.44,2.98,0,2.12-1.43,3.21-4.17,3.21Z"/>
          <path class="cls-7" d="m149.15,29.67v-2.02h-1.51v-1.77h3.66v3.79h-2.15Z"/>
          <path class="cls-7" d="m157.91,24.87h-2.99l-2.34-9.52,2.12-.58,2.07,8.56h.59c1.48,0,1.93-1.04,1.93-3.71,0-2.4-.51-3.31-2.23-3.31h-1.21l1.18-1.54h1.08c2.66,0,3.36,1.67,3.36,4.8,0,3.94-1.11,5.3-3.58,5.3Z"/>
          <path class="cls-7" d="m166.52,24.87h-2.61v-10.1h2.15v8.54h1.24l-.78,1.56Z"/>
          <path class="cls-7" d="m175.1,24.87v-6.69c0-1.19-.43-1.92-1.53-1.89-1.16.02-2.52,1.41-2.52,2.45v6.14h-2.15v-8.56c0-.68-.25-1.19-.81-1.54h2.42c.49.4.54.71.54,1.44v.21c.4-.79,1.29-1.77,2.96-1.77,2.04,0,3.26.88,3.26,3.01v7.22h-2.16Z"/>
          <path class="cls-7" d="m186.15,25c-1.04,0-1.64-.4-2.07-.83-.42.43-1.02.83-2.06.83-1.67,0-2.88-.68-2.88-2.58v-7.65h2.15v7.73c0,.66.41.94.89.94s.89-.28.89-.94v-7.73h2.04v7.73c0,.66.4.94.89.94s.88-.28.88-.94v-7.73h2.16v7.65c0,1.89-1.21,2.58-2.88,2.58Z"/>
        </g>
        <g>
          <path class="cls-7" d="m47.55,43.72v-10.08h3.71c.75,0,1.36.1,1.81.31.46.2.82.52,1.07.94.26.42.39.87.39,1.33,0,.43-.11.84-.34,1.22-.23.38-.57.69-1.03.92.59.18,1.05.49,1.36.92.32.43.48.94.48,1.53,0,.47-.1.91-.29,1.31-.2.41-.45.72-.73.94-.29.22-.65.38-1.08.5-.43.11-.97.17-1.59.17h-3.76Zm1.3-5.83h2.14c.58,0,.99-.04,1.25-.12.33-.1.58-.27.75-.51.18-.23.26-.53.26-.89,0-.34-.08-.63-.23-.89-.16-.26-.38-.43-.67-.53-.3-.1-.8-.15-1.51-.15h-1.98v3.07Zm0,4.64h2.46c.42,0,.72-.01.89-.04.3-.06.55-.15.75-.28.2-.13.37-.32.49-.56.13-.24.2-.53.2-.84,0-.38-.09-.7-.28-.98-.18-.28-.44-.48-.78-.58-.34-.12-.82-.17-1.45-.17h-2.29v3.46Z"/>
          <path class="cls-7" d="m55.73,43.72l3.79-10.08h1.42l4.03,10.08h-1.49l-1.13-3.05h-4.16l-1.07,3.05h-1.38Zm2.82-4.13h3.4l-1.05-2.81c-.3-.85-.54-1.55-.71-2.09-.13.65-.32,1.29-.55,1.93l-1.1,2.97Z"/>
          <path class="cls-7" d="m65.99,43.72v-10.08h1.34l5.21,7.92v-7.92h1.25v10.08h-1.34l-5.2-7.92v7.92h-1.25Z"/>
          <path class="cls-7" d="m80.56,39.76v-1.18h4.17v3.74c-.63.52-1.3.92-1.99,1.18-.68.26-1.38.39-2.09.39-.97,0-1.85-.21-2.65-.64-.78-.43-1.38-1.04-1.79-1.84-.4-.8-.6-1.7-.6-2.69s.2-1.9.6-2.75c.4-.85.98-1.48,1.74-1.89.75-.41,1.61-.62,2.6-.62.72,0,1.35.12,1.93.35.58.24,1.03.57,1.36.99.32.42.57.97.74,1.65l-1.2.33c-.15-.51-.33-.92-.55-1.21-.22-.3-.53-.53-.94-.71-.41-.18-.86-.26-1.35-.26-.6,0-1.11.09-1.54.28-.43.19-.78.43-1.05.74-.26.31-.47.64-.62,1-.25.63-.38,1.3-.38,2.04,0,.9.15,1.66.45,2.26.3.61.74,1.06,1.31,1.35.58.3,1.19.44,1.84.44.56,0,1.11-.11,1.65-.34.53-.22.94-.46,1.22-.72v-1.9h-2.87Z"/>
          <path class="cls-7" d="m86.6,43.72v-10.08h1.31v4.98l4.92-4.98h1.77l-4.15,4.08,4.32,6h-1.72l-3.52-5.09-1.62,1.6v3.49h-1.31Z"/>
          <path class="cls-7" d="m95.43,38.82c0-1.68.44-2.98,1.32-3.93.88-.95,2.02-1.42,3.42-1.42.91,0,1.74.22,2.47.67.73.44,1.29,1.07,1.67,1.86.39.79.58,1.7.58,2.7s-.2,1.93-.61,2.74c-.4.81-.97,1.42-1.72,1.83-.74.41-1.54.62-2.4.62-.93,0-1.76-.23-2.5-.69-.73-.45-1.29-1.08-1.67-1.87-.38-.79-.57-1.63-.57-2.51Zm1.35.03c0,1.21.32,2.17.96,2.87.63.7,1.43,1.05,2.41,1.05s1.79-.36,2.43-1.06c.64-.71.95-1.71.95-3.01,0-.82-.14-1.53-.41-2.15-.27-.61-.67-1.08-1.19-1.42-.52-.34-1.11-.51-1.76-.51-.92,0-1.72.32-2.39.97-.67.65-1,1.73-1,3.25Z"/>
          <path class="cls-7" d="m106.52,43.72v-10.08h1.3v4.98l4.91-4.98h1.77l-4.15,4.08,4.33,6h-1.73l-3.52-5.09-1.62,1.6v3.49h-1.3Z"/>
          <path class="cls-7" d="m123.47,43.72v-10.08h1.31v4.15h5.14v-4.15h1.3v10.08h-1.3v-4.74h-5.14v4.74h-1.31Z"/>
          <path class="cls-7" d="m132.95,38.82c0-1.68.44-2.98,1.33-3.93.88-.95,2.02-1.42,3.42-1.42.91,0,1.73.22,2.47.67.73.44,1.29,1.07,1.68,1.86.38.79.58,1.7.58,2.7s-.2,1.93-.61,2.74c-.41.81-.98,1.42-1.72,1.83s-1.54.62-2.4.62c-.94,0-1.77-.23-2.5-.69-.73-.45-1.29-1.08-1.67-1.87-.37-.79-.57-1.63-.57-2.51Zm1.36.03c0,1.21.32,2.17.96,2.87.64.7,1.45,1.05,2.41,1.05s1.79-.36,2.43-1.06c.63-.71.95-1.71.95-3.01,0-.82-.14-1.53-.41-2.15-.27-.61-.67-1.08-1.19-1.42-.53-.34-1.11-.51-1.77-.51-.92,0-1.72.32-2.39.97-.67.65-1,1.73-1,3.25Z"/>
          <path class="cls-7" d="m143.67,40.48l1.23-.1c.06.51.19.92.4,1.25.22.33.55.59.99.79.44.2.94.3,1.51.3.5,0,.93-.08,1.31-.23.38-.15.66-.36.85-.63.18-.26.28-.55.28-.86s-.09-.59-.27-.83c-.18-.23-.48-.43-.89-.59-.26-.11-.84-.27-1.75-.5-.9-.22-1.53-.43-1.89-.63-.47-.25-.82-.57-1.04-.94-.23-.37-.35-.8-.35-1.26,0-.51.14-.99.43-1.43.28-.44.69-.78,1.23-1.01.54-.23,1.14-.34,1.81-.34.73,0,1.37.12,1.93.36.56.24.99.59,1.28,1.07.31.47.46,1,.49,1.59l-1.25.1c-.06-.64-.3-1.12-.68-1.45-.38-.33-.96-.49-1.71-.49-.79,0-1.36.15-1.72.45-.36.29-.54.65-.54,1.07,0,.36.13.66.38.89.25.24.9.47,1.96.72,1.06.25,1.78.46,2.17.64.58.27,1,.61,1.27,1.03.27.41.41.89.41,1.43s-.15,1.04-.45,1.51c-.3.48-.73.84-1.29,1.11-.56.26-1.19.39-1.9.39-.89,0-1.63-.13-2.23-.4-.6-.26-1.08-.67-1.41-1.2-.34-.54-.52-1.14-.54-1.81Z"/>
          <path class="cls-7" d="m153.28,43.72v-10.08h3.73c.66,0,1.16.03,1.51.09.49.08.89.24,1.22.48.33.23.59.55.79.97.2.41.3.87.3,1.37,0,.86-.27,1.58-.8,2.17-.54.59-1.5.89-2.9.89h-2.54v4.1h-1.31Zm1.31-5.28h2.56c.84,0,1.45-.16,1.81-.48.36-.33.53-.78.53-1.36,0-.42-.1-.79-.31-1.09-.21-.31-.49-.5-.83-.6-.22-.06-.63-.09-1.22-.09h-2.53v3.62Z"/>
          <path class="cls-7" d="m162.7,43.72v-10.08h1.3v10.08h-1.3Z"/>
          <path class="cls-7" d="m168.82,43.72v-8.9h-3.25v-1.18h7.8v1.18h-3.24v8.9h-1.31Z"/>
          <path class="cls-7" d="m172.65,43.72l3.79-10.08h1.42l4.03,10.08h-1.49l-1.14-3.05h-4.16l-1.07,3.05h-1.38Zm2.82-4.13h3.4l-1.04-2.81c-.31-.85-.55-1.55-.71-2.09-.14.65-.32,1.29-.56,1.93l-1.1,2.97Z"/>
          <path class="cls-7" d="m182.85,43.72v-10.08h1.3v8.9h4.86v1.18h-6.16Z"/>
        </g>
        <path class="cls-8" d="m106.06,58.03H.5v-1.3h105.56v1.3Z"/>
        <g>
          <path class="cls-7" d="m116.28,57.98v-5.68c0-.97-.75-1.67-1.83-1.67-1.01,0-1.64.58-1.89,1.11l.81.56c-.39.1-.81.48-.81,1.01v4.67h-1.47l-.54-.8h.93v-3.75c0-.56.44-.94.71-1.05l-.85-.56c.29-.96,1.43-2,3.11-2s2.9.93,2.9,2.42v5.74h-1.07Z"/>
          <path class="cls-7" d="m115.78,61.52c-.77,0-1.86-.32-1.86-1.21v-.62h-.67v-.91h1.76v1.39c0,.4.35.58.77.58.37,0,.7-.18.7-.58v-1.39h1.1v1.49c0,.93-1.06,1.25-1.8,1.25Z"/>
          <path class="cls-7" d="m120.73,57.98h-1.47v-8.05h1.08v7.25h.95l-.56.8Z"/>
          <path class="cls-7" d="m127.13,57.98v-5.68c0-.97-.73-1.67-1.83-1.67-.99,0-1.61.58-1.86,1.11l.81.56c-.4.1-.81.48-.81,1.01v4.67h-1.1v-4.55c0-.56.44-.94.7-1.05l-.85-.56c.31-.96,1.43-2,3.11-2s2.92.93,2.92,2.42v5.74h-1.1Z"/>
          <path class="cls-7" d="m127.84,49.02h-1.1c-.52,0-.79-.16-1.04-.51-.24.35-.6.51-1.3.51h-1.24v-.98c0-.89.75-1.45,1.93-1.45h1.22c.56,0,.75-.16.75-.52v-.29h1.1v.46c0,.67-.36,1.06-1.37,1.06h-1.57c-.56,0-.93.16-.93.61v.26c.72,0,1.04-.02,1.43-.55.35.46.75.55,1.33.55h1.22l-.41.84Z"/>
          <path class="cls-7" d="m135.01,57.98v-6.06c0-.64-.34-1.05-.62-1.13-.23.44-.68.79-1.35.79s-1.1-.34-1.32-.79c-.29.08-.62.49-.62,1.13v4.31l1.92-2.96h-1.2l.36-.81h1.98v.81l-3.06,4.71h-1.1v-6.24c0-1.09.8-1.91,2.07-1.91,0,.4.36.86.97.86s.99-.46.99-.86c1.27,0,2.05.83,2.05,1.91v6.24h-1.07Z"/>
          <path class="cls-7" d="m140.29,53.62c0-.42.15-.78.46-1.09.29-.3.66-.45,1.07-.45s.79.15,1.08.45c.3.3.45.66.45,1.09s-.15.79-.45,1.09c-.29.31-.66.46-1.08.46s-.78-.15-1.07-.46c-.3-.3-.46-.66-.46-1.09Z"/>
          <path class="cls-7" d="m147.59,57.98v-8.01h2.83c.5,0,.88.02,1.14.08.37.07.67.19.93.38.25.18.45.44.6.77.16.33.23.7.23,1.1,0,.69-.2,1.26-.61,1.73-.4.48-1.14.71-2.2.71h-1.92v3.24h-1Zm1-4.19h1.93c.64,0,1.1-.13,1.37-.38.26-.25.41-.61.41-1.08,0-.33-.08-.62-.24-.86-.16-.24-.37-.39-.63-.47-.17-.04-.47-.07-.93-.07h-1.91v2.86Z"/>
          <path class="cls-7" d="m154.72,57.98v-8.01h.99v3.28h3.86v-3.28h.99v8.01h-.99v-3.77h-3.86v3.77h-.99Z"/>
          <path class="cls-7" d="m167.22,49.97h1v4.62c0,.8-.08,1.45-.25,1.92-.17.47-.48.86-.91,1.15-.45.3-1.02.44-1.74.44s-1.27-.13-1.71-.39c-.45-.26-.77-.63-.95-1.12-.19-.49-.29-1.16-.29-2.01v-4.62h1v4.61c0,.69.06,1.2.18,1.53.12.33.32.59.61.76.29.18.65.27,1.07.27.72,0,1.23-.18,1.54-.53.31-.35.45-1.03.45-2.03v-4.61Z"/>
          <path class="cls-7" d="m169.96,57.98v-8.01h1v3.94l3.71-3.94h1.34l-3.15,3.26,3.28,4.75h-1.31l-2.68-4.02-1.2,1.25v2.77h-1Z"/>
          <path class="cls-7" d="m177.1,57.98v-8.01h5.39v.95h-4.39v2.44h4.1v.95h-4.1v2.7h4.57v.96h-5.57Z"/>
          <path class="cls-7" d="m186.04,57.98v-7.05h-2.46v-.95h5.92v.95h-2.46v7.05h-1Z"/>
        </g>
        <g>
          <path class="cls-8" d="m29.31,26.06s0,.02,0,0h0Zm4.29-14.68c-1.61-1.79-3.92-2.9-6.5-2.9-.06,0-26.55,0-26.55,0v17.58s28.41,0,28.77,0h0c1.82.48,3.41,1.54,4.57,2.97,2.82-1.82,4.71-4.92,4.71-8.35s-2.21-7.24-4.99-9.3Z"/>
          <path class="cls-6" d="m33.98,29.15c-1.17-1.49-2.8-2.59-4.66-3.08,0,.04-28.78,0-28.78,0v17.62h0l4.61,4.53h23.07c5.62,0,10.37-4.6,10.37-10.05,0-3.36-2.04-6.93-4.62-9.02Z"/>
          <path class="cls-3" d="m38.6,20.68c0-3.54-2.22-7.26-5.03-9.32,1.45,1.59,2.33,3.72,2.33,6.06,0,4.15-2.8,7.65-6.59,8.65-.02,0,0,.02,0,0,1.82.48,3.41,1.54,4.57,2.97,2.82-1.82,4.71-4.92,4.71-8.35Zm-4.62,8.47c1.21,1.52,1.93,3.46,1.93,5.57,0,4.94-3.95,8.95-8.81,8.95h0s-26.55.01-26.55.01l4.62,4.53h23.07c5.62,0,10.37-4.6,10.37-10.05,0-3.36-2.04-6.93-4.62-9.02Z"/>
          <g>
            <g>
              <polygon class="cls-3" points="1.13 26.06 .54 30.7 1.65 31.81 10.85 31.81 9.77 39.71 10.87 40.82 20.12 40.82 20.12 31.81 29.33 31.81 29.33 26.06 1.13 26.06"/>
              <polygon class="cls-1" points="1.13 26.06 .54 30.7 1.65 31.81 10.86 31.81 9.77 39.71 10.88 40.82 20.13 40.82 20.13 31.81 29.33 31.81 29.33 26.06 1.13 26.06"/>
            </g>
            <polygon class="cls-3" points="29.33 26.06 29.33 22.51 28.24 21.43 20.13 22.55 20.13 13.26 19.04 12.18 10.85 13.29 10.85 22.55 1.57 22.55 1.13 26.06 29.33 26.06"/>
            <polygon class="cls-2" points="29.33 26.06 29.33 22.51 28.24 21.43 20.13 22.55 20.13 13.26 19.04 12.18 10.86 13.29 10.86 22.55 1.58 22.55 1.13 26.06 29.33 26.06"/>
          </g>
          <polygon class="cls-4" points="19.04 39.7 19.04 30.7 28.23 30.7 28.23 21.43 19.04 21.43 19.04 12.18 9.77 12.18 9.77 21.43 .54 21.43 .54 30.7 9.77 30.7 9.77 39.71 19.04 39.7"/>
        </g>
      </g>
    </g>
  </g>
</svg>