<?xml version="1.0" encoding="UTF-8"?>
<svg id="Layer_1" data-name="Layer 1" xmlns="http://www.w3.org/2000/svg" viewBox="0 0 190 70">
  <defs>
    <style>
      .cls-1 {
        fill: gray;
      }
    </style>
  </defs>
  <g>
    <path class="cls-1" d="m9.31,25.05c1.21-2.19,2.89-3.89,5.05-5.11,2.16-1.22,4.61-1.83,7.34-1.83,3.35,0,6.22.89,8.61,2.66,2.39,1.77,3.98,4.18,4.79,7.24h-7.56c-.56-1.18-1.36-2.08-2.39-2.7-1.03-.62-2.21-.93-3.52-.93-2.12,0-3.84.74-5.15,2.21-1.31,1.48-1.97,3.45-1.97,5.92s.66,4.44,1.97,5.92c1.31,1.48,3.03,2.21,5.15,2.21,1.31,0,2.49-.31,3.52-.93,1.03-.62,1.83-1.51,2.39-2.7h7.56c-.8,3.06-2.4,5.46-4.79,7.22-2.39,1.76-5.26,2.64-8.61,2.64-2.74,0-5.18-.61-7.34-1.83-2.16-1.22-3.84-2.92-5.05-5.09-1.21-2.17-1.81-4.65-1.81-7.44s.6-5.28,1.81-7.46Z"/>
    <path class="cls-1" d="m63.79,18.43v28.25h-6.88v-11.63h-10.7v11.63h-6.88v-28.25h6.88v11.06h10.7v-11.06h6.88Z"/>
    <path class="cls-1" d="m86.32,41.69h-10.54l-1.69,4.99h-7.2l10.22-28.25h7.97l10.22,28.25h-7.28l-1.69-4.99Zm-1.77-5.31l-3.5-10.34-3.46,10.34h6.96Z"/>
    <path class="cls-1" d="m124.91,18.43l-10.02,28.25h-8.61l-10.02-28.25h7.32l7,21.33,7.04-21.33h7.28Z"/>
    <path class="cls-1" d="m146.16,20.2c2.23,1.18,3.95,2.84,5.17,4.97s1.83,4.59,1.83,7.38-.61,5.22-1.83,7.36c-1.22,2.15-2.95,3.81-5.19,4.99-2.24,1.18-4.83,1.77-7.79,1.77h-10.58v-28.25h10.58c2.98,0,5.58.59,7.81,1.77Zm-2.17,18.39c1.45-1.42,2.17-3.43,2.17-6.04s-.72-4.63-2.17-6.08c-1.45-1.45-3.47-2.17-6.08-2.17h-3.26v16.42h3.26c2.6,0,4.63-.71,6.08-2.13Z"/>
    <path class="cls-1" d="m174.6,41.69h-10.54l-1.69,4.99h-7.2l10.22-28.25h7.97l10.22,28.25h-7.28l-1.69-4.99Zm-1.77-5.31l-3.5-10.34-3.46,10.34h6.96Z"/>
  </g>
  <g>
    <path class="cls-1" d="m149.63,52.01v9.05h-1.48v-9.05h1.48Z"/>
    <path class="cls-1" d="m159.02,61.05h-1.48l-4.47-6.76v6.76h-1.48v-9.06h1.48l4.47,6.74v-6.74h1.48v9.06Z"/>
    <path class="cls-1" d="m166.3,52.01v1.21h-3.84v2.67h2.99v1.21h-2.99v3.96h-1.48v-9.05h5.32Z"/>
    <path class="cls-1" d="m172.38,61.05l-2.08-3.62h-1.13v3.62h-1.48v-9.05h3.12c.69,0,1.28.12,1.76.36s.84.57,1.08.98c.24.41.36.86.36,1.37,0,.59-.17,1.13-.51,1.61-.34.48-.87.81-1.58.98l2.24,3.75h-1.77Zm-3.22-4.8h1.64c.56,0,.97-.14,1.26-.42.28-.28.42-.65.42-1.12s-.14-.83-.42-1.1c-.28-.26-.7-.4-1.26-.4h-1.64v3.03Z"/>
    <path class="cls-1" d="m181.36,59.2h-3.79l-.65,1.85h-1.55l3.24-9.06h1.72l3.24,9.06h-1.56l-.65-1.85Zm-.42-1.21l-1.47-4.2-1.48,4.2h2.95Z"/>
  </g>
</svg>