<?xml version="1.0" encoding="utf-8"?>
<!-- Generator: Adobe Illustrator 27.3.1, SVG Export Plug-In . SVG Version: 6.00 Build 0)  -->
<svg version="1.1" id="Layer_1" xmlns="http://www.w3.org/2000/svg" xmlns:xlink="http://www.w3.org/1999/xlink" x="0px" y="0px"
	 viewBox="0 0 190 70" style="enable-background:new 0 0 190 70;" xml:space="preserve">
<style type="text/css">
	.st0{fill:#E6E6E6;}
	.st1{fill:#B2B2B2;}
</style>
<path class="st0" d="M37.7,40.1v-7.2H20.3v-7.5h19.7v-7.2H12.3v16.4c1.3-0.8,2.6-1.5,4-2.3c0,1.3,0,2.6,0,3.8c0,0.4,0.1,0.5,0.4,0.7
	c1.7,1,3.4,2,5.2,3c0.3,0.2,0.7,0.3,1,0.3c4.7,0,9.4,0,14,0C37.2,40,37.4,40,37.7,40.1L37.7,40.1z"/>
<path class="st0" d="M5.8,56.4C6,56,5.9,55.4,5.9,55c0-4.2,0-8.4,0-12.6c0-0.2,0-0.3,0-0.6c0.2,0.1,0.3,0.1,0.5,0.2
	c0.7,0.4,1.5,0.9,2.2,1.3c0.4,0.2,0.5,0.4,0.5,0.8c0,3.7,0,7.3,0,11v0.7c0.6-0.1,1.1-0.2,1.8-0.2v-0.7c0-2.6,0-5.2,0-7.8
	c0-0.3,0.1-0.5,0.4-0.7c1.3-0.8,2.7-1.5,4.1-2.3v11.1H17V38.2c0.2,0.1,0.3,0.1,0.5,0.2c1.2,0.7,2.4,1.4,3.6,2.1
	c0.3,0.2,0.4,0.4,0.4,0.8c0,4.5,0,9.1,0,13.6c0,0.2,0,0.4,0,0.6c0.6,0.1,1.1,0.2,1.8,0.3c0-0.2,0-0.4,0-0.6c0-2.8,0-5.7,0-8.5
	c0-0.4,0.1-0.6,0.4-0.7c0.9-0.5,1.8-1,2.8-1.6c0,0.3,0,0.5,0,0.7c0,3.6,0,7.2,0,10.8c0,0.4,0.1,0.6,0.5,0.7c1.2,0.4,2.4,0.8,3.6,1.2
	c0.1,0,0.2,0.1,0.3,0.2c-0.2,0-0.3-0.1-0.5-0.1c-4.3-0.9-9.2-1.4-14.3-1.4c-4.6,0-8.9,0.4-12.9,1.1c-0.6,0.1-1.1,0.2-1.7,0.3
	L5.8,56.4L5.8,56.4z"/>
<path class="st0" d="M40.3,47.9H27.5V55h5.9l6.9-6.9L40.3,47.9L40.3,47.9z"/>
<path class="st1" d="M15.3,34.1c0,0.8,0,1.4,0,2c0,0.1-0.1,0.3-0.2,0.4c-1.4,0.8-2.8,1.6-4.3,2.5c0-0.8,0-1.5,0-2.1
	c0-0.1,0.1-0.2,0.2-0.3C12.4,35.8,13.8,35,15.3,34.1z"/>
<path class="st0" d="M15.2,37.5c0.2,0.8,0,1.3-0.7,1.6c-1.1,0.5-2.1,1.2-3.1,1.8c-0.2,0.1-0.3,0.2-0.5,0.3c-0.1-0.7,0.1-1.2,0.7-1.6
	C12.8,38.9,14,38.2,15.2,37.5L15.2,37.5z"/>
<path class="st1" d="M15.2,39.7c0.1,0.7-0.1,1.2-0.6,1.5c-1.1,0.6-2.2,1.3-3.3,1.9c-0.1,0.1-0.2,0.1-0.4,0.2
	c-0.1-0.7,0.1-1.2,0.6-1.5C12.7,41.1,14,40.4,15.2,39.7z"/>
<path class="st0" d="M15.2,41.9c0.3,0.9-0.1,1.3-0.8,1.6c-1.2,0.6-2.4,1.3-3.6,2c-0.2-0.9-0.2-1,0.6-1.5
	C12.7,43.4,13.9,42.7,15.2,41.9z"/>
<polygon class="st0" points="100.4,11.4 92,11.4 73.2,30.1 66.4,18.3 59.5,18.3 68.9,34.5 48.8,54.6 57.2,54.6 71.9,39.8 77.8,49.9 
	84.6,49.9 76.3,35.5 "/>
<polygon class="st1" points="41.1,58.6 65.7,34.2 56.5,18.3 49.8,18.3 58.8,33.5 34,58.6 "/>
<path class="st0" d="M101.2,28.5l-7.7,21.2h-6.2L95,28.5H101.2z"/>
<path class="st0" d="M115.2,41.2l2.4,0.7c-0.2,0.5-0.3,1-0.4,1.4c-0.8,2.1-2.1,3.7-4,4.9s-4.2,1.8-6.7,1.8c-6.3,0-8.2-3.5-5.6-10.6
	c1.2-3.4,3.1-6.1,5.7-8.2c2.6-2.1,5.4-3.1,8.3-3.1c4.6,0,6.1,2.2,4.5,6.6l-3.1,1.2c0.3-0.6,0.4-1.1,0.6-1.5c1.1-3.1,0.4-4.7-2.1-4.7
	c-2.7,0-5.2,3.3-7.6,10c-2.1,5.7-1.6,8.6,1.3,8.6c1.2,0,2.4-0.5,3.6-1.5c1.2-1,2-2.2,2.6-3.7C114.9,42.8,115.1,42.1,115.2,41.2
	L115.2,41.2z"/>
<path class="st0" d="M134.6,28.1c6.2,0,7.9,3.7,5.3,11s-7.1,11-13.4,11s-8.1-3.7-5.3-11.2C123.7,31.7,128.2,28.1,134.6,28.1z
	 M133.9,29.8c-1.2,0-2.2,0.6-3.1,1.9c-0.9,1.3-2,3.7-3.3,7.4s-2,6.1-2.1,7.4c-0.1,1.3,0.5,1.9,1.7,1.9c1.2,0,2.2-0.6,3-1.9
	s2-3.7,3.3-7.4c1.3-3.6,2-6.1,2.1-7.4C135.6,30.5,135,29.8,133.9,29.8L133.9,29.8z"/>
<path class="st0" d="M163,28.5l-7.7,21.2h-4.7l-4-13.4l-4.9,13.4h-2.1l7.7-21.2h3.9l4.4,14.5l5.3-14.5H163L163,28.5z"/>
<path class="st0" d="M179.2,34.4l-3.1,0.5c0.3-0.6,0.6-1,0.7-1.4c0.9-2.5-0.1-3.7-3.1-3.7c-2.4,0-3.9,0.9-4.5,2.5
	c-0.5,1.3,0.5,2.4,2.8,3.3c4.5,1.8,6.1,4.3,4.8,7.8c-0.7,2-2,3.6-3.9,4.8c-1.9,1.2-4,1.8-6.4,1.8c-5.2,0-7.1-2-5.7-6.1
	c0.1-0.3,0.3-0.7,0.5-1.2l3.2-0.7c-0.6,0.9-0.9,1.7-1.2,2.3c-1,2.6,0.1,4,3.1,4c2.4,0,4-1,4.7-2.8c0.5-1.4-0.5-2.7-3-3.7
	c-3.6-1.5-4.8-4-3.6-7.3c0.7-1.9,1.9-3.4,3.8-4.6s3.9-1.8,6.1-1.8C179.1,28.2,180.7,30.3,179.2,34.4L179.2,34.4z"/>
<g>
	<path class="st0" d="M181.4,21.4c0,0,0,0.1,0,0.1c0,0,0,0.1,0,0.1s0,0-0.1,0c0,0,0,0-0.1,0h-1.6v4.8c0,0,0,0,0,0.1c0,0,0,0-0.1,0
		s-0.1,0-0.1,0s-0.1,0-0.2,0s-0.1,0-0.2,0s-0.1,0-0.1,0c0,0-0.1,0-0.1,0s0,0,0-0.1v-4.8h-1.6c0,0,0,0-0.1,0c0,0,0,0-0.1,0
		s0-0.1,0-0.1c0,0,0-0.1,0-0.1s0-0.1,0-0.1c0,0,0-0.1,0-0.1c0,0,0,0,0.1-0.1c0,0,0,0,0.1,0h3.9c0,0,0,0,0.1,0c0,0,0,0,0.1,0.1
		c0,0,0,0.1,0,0.1C181.4,21.3,181.4,21.4,181.4,21.4L181.4,21.4z"/>
	<path class="st0" d="M188.5,26.6C188.5,26.6,188.5,26.6,188.5,26.6c0,0.1-0.1,0.1-0.1,0.1s-0.1,0-0.1,0c-0.1,0-0.1,0-0.2,0
		c-0.1,0-0.1,0-0.2,0c-0.1,0-0.1,0-0.1,0c0,0-0.1,0-0.1,0s0,0,0-0.1v-4.8l0,0l-2,4.9c0,0,0,0,0,0c0,0,0,0-0.1,0c0,0-0.1,0-0.1,0
		s-0.1,0-0.1,0s-0.1,0-0.1,0s-0.1,0-0.1,0c0,0-0.1,0-0.1,0c0,0,0,0,0,0l-1.9-4.9l0,0v4.8c0,0,0,0,0,0.1s0,0-0.1,0s-0.1,0-0.1,0
		s-0.1,0-0.2,0s-0.1,0-0.2,0c-0.1,0-0.1,0-0.1,0c0,0-0.1,0-0.1,0s0,0,0-0.1v-5.1c0-0.1,0-0.2,0.1-0.3c0.1,0,0.1-0.1,0.2-0.1h0.4
		c0.1,0,0.2,0,0.2,0s0.1,0,0.2,0.1c0.1,0,0.1,0.1,0.1,0.1s0.1,0.1,0.1,0.2l1.6,4h0l1.6-4c0-0.1,0.1-0.2,0.1-0.2s0.1-0.1,0.1-0.1
		c0.1,0,0.1-0.1,0.1-0.1c0.1,0,0.1,0,0.2,0h0.5c0,0,0.1,0,0.1,0c0,0,0.1,0,0.1,0.1c0,0,0.1,0.1,0.1,0.1s0,0.1,0,0.1L188.5,26.6
		L188.5,26.6z"/>
</g>
</svg>
