<?xml version="1.0" encoding="UTF-8"?>
<svg id="Layer_1" data-name="Layer 1" xmlns="http://www.w3.org/2000/svg" viewBox="0 0 94 70">
  <defs>
    <style>
      .cls-1 {
        fill: #ccc;
      }
    </style>
  </defs>
  <path class="cls-1" d="m2.59,10.7v48.6h26.73V10.7H2.59Zm21.41,36.98c-.02,2.38-.69,4.24-2.04,5.58-1.34,1.32-3.23,2-5.67,2.02-2.62-.02-4.66-.83-6.13-2.41-1.47-1.57-2.22-3.79-2.24-6.64.02-2.81.77-4.99,2.23-6.55,1.46-1.57,3.48-2.36,6.06-2.38,2.06.02,3.78.57,5.14,1.64,1.37,1.07,2.2,2.49,2.49,4.28h-3.65c-.27-.92-.75-1.63-1.45-2.13-.7-.51-1.54-.76-2.53-.77-1.45.02-2.57.53-3.37,1.55-.79,1.02-1.2,2.46-1.22,4.32.02,1.9.44,3.38,1.28,4.44.84,1.07,1.98,1.61,3.44,1.63,1.2-.02,2.18-.35,2.91-1,.73-.65,1.12-1.52,1.18-2.61v-.28s-3.77,0-3.77,0v-2.65h7.32v1.96Z"/>
  <path class="cls-1" d="m32.43,10.7v48.6h26.73V10.7h-26.73Zm20.45,29.69h-5.21v14.88h-3.76v-14.88h-5.2v-3.1h14.17v3.1Z"/>
  <path class="cls-1" d="m62.27,10.7v48.6h26.73V10.7h-26.73Zm19.18,44.58h-11.63v-17.98h3.76v14.87h7.86v3.12Z"/>
</svg>